<?xml version="1.0" encoding="UTF-8" ?>
<svg version="1.1" width="227" height="110" xmlns="http://www.w3.org/2000/svg" shape-rendering="crispEdges">
<rect x="0" y="0" width="227" height="1" fill="#1A224F" />
<rect x="0" y="1" width="227" height="1" fill="#1A2250" />
<rect x="0" y="2" width="227" height="1" fill="#1B2351" />
<rect x="0" y="3" width="227" height="1" fill="#1B2453" />
<rect x="0" y="4" width="227" height="1" fill="#1C2454" />
<rect x="0" y="5" width="227" height="1" fill="#1D2555" />
<rect x="0" y="6" width="227" height="1" fill="#1D2657" />
<rect x="0" y="7" width="227" height="1" fill="#1E2758" />
<rect x="0" y="8" width="227" height="1" fill="#1F2759" />
<rect x="0" y="9" width="227" height="1" fill="#1F285B" />
<rect x="0" y="10" width="227" height="1" fill="#20295C" />
<rect x="0" y="11" width="227" height="1" fill="#202A5D" />
<rect x="0" y="12" width="227" height="1" fill="#212A5F" />
<rect x="0" y="13" width="227" height="1" fill="#222B60" />
<rect x="0" y="14" width="227" height="1" fill="#222C62" />
<rect x="0" y="15" width="227" height="1" fill="#232D63" />
<rect x="0" y="16" width="227" height="1" fill="#242D64" />
<rect x="0" y="17" width="227" height="1" fill="#242E66" />
<rect x="0" y="18" width="227" height="1" fill="#252F67" />
<rect x="0" y="19" width="227" height="1" fill="#252F68" />
<rect x="0" y="20" width="227" height="1" fill="#26306A" />
<rect x="0" y="21" width="227" height="1" fill="#27316B" />
<rect x="0" y="22" width="227" height="1" fill="#27326C" />
<rect x="0" y="23" width="227" height="1" fill="#28326E" />
<rect x="0" y="24" width="227" height="1" fill="#29336F" />
<rect x="0" y="25" width="227" height="1" fill="#293470" />
<rect x="0" y="26" width="227" height="1" fill="#2A3572" />
<rect x="0" y="27" width="227" height="1" fill="#2A3573" />
<rect x="0" y="28" width="227" height="1" fill="#2B3675" />
<rect x="0" y="29" width="227" height="1" fill="#2C3776" />
<rect x="0" y="30" width="227" height="1" fill="#2C3877" />
<rect x="0" y="31" width="227" height="1" fill="#2D3879" />
<rect x="0" y="32" width="227" height="1" fill="#2E397A" />
<rect x="0" y="33" width="227" height="1" fill="#2E3A7B" />
<rect x="0" y="34" width="227" height="1" fill="#2F3A7D" />
<rect x="0" y="35" width="227" height="1" fill="#2F3B7E" />
<rect x="0" y="36" width="227" height="1" fill="#303C7F" />
<rect x="0" y="37" width="227" height="1" fill="#313D81" />
<rect x="0" y="38" width="227" height="1" fill="#313D82" />
<rect x="0" y="39" width="227" height="1" fill="#323E84" />
<rect x="0" y="40" width="227" height="1" fill="#333F85" />
<rect x="0" y="41" width="227" height="1" fill="#334086" />
<rect x="0" y="42" width="227" height="1" fill="#344088" />
<rect x="0" y="43" width="227" height="1" fill="#344189" />
<rect x="0" y="44" width="227" height="1" fill="#35428A" />
<rect x="0" y="45" width="227" height="1" fill="#36438C" />
<rect x="0" y="46" width="227" height="1" fill="#36438D" />
<rect x="0" y="47" width="227" height="1" fill="#37448E" />
<rect x="0" y="48" width="227" height="1" fill="#384590" />
<rect x="0" y="49" width="227" height="1" fill="#384591" />
<rect x="0" y="50" width="227" height="1" fill="#394692" />
<rect x="0" y="51" width="227" height="1" fill="#394794" />
<rect x="0" y="52" width="227" height="1" fill="#3A4895" />
<rect x="0" y="53" width="227" height="1" fill="#3B4897" />
<rect x="0" y="54" width="227" height="1" fill="#3B4998" />
<rect x="0" y="55" width="227" height="1" fill="#3C4A99" />
<rect x="0" y="56" width="227" height="1" fill="#3D4B9B" />
<rect x="0" y="57" width="227" height="1" fill="#3D4B9C" />
<rect x="0" y="58" width="227" height="1" fill="#3E4C9D" />
<rect x="0" y="59" width="227" height="1" fill="#3E4D9F" />
<rect x="0" y="60" width="227" height="1" fill="#3F4EA0" />
<rect x="0" y="61" width="227" height="1" fill="#404EA1" />
<rect x="0" y="62" width="227" height="1" fill="#404FA3" />
<rect x="0" y="63" width="227" height="1" fill="#4150A4" />
<rect x="0" y="64" width="227" height="46" fill="#4251A6" />
</svg>