<?xml version="1.0" encoding="UTF-8" ?>
<svg version="1.1" width="227" height="110" xmlns="http://www.w3.org/2000/svg" shape-rendering="crispEdges">
<rect x="55" y="12" width="1" height="3" fill="#FFFFFF" />
<rect x="54" y="13" width="1" height="1" fill="#FFFFFF" />
<rect x="56" y="13" width="1" height="1" fill="#FFFFFF" />
<rect x="177" y="15" width="1" height="3" fill="#FFFFFF" />
<rect x="176" y="16" width="1" height="1" fill="#FFFFFF" />
<rect x="178" y="16" width="1" height="1" fill="#FFFFFF" />
<rect x="206" y="17" width="1" height="3" fill="#FFFFFF" />
<rect x="205" y="18" width="1" height="1" fill="#FFFFFF" />
<rect x="207" y="18" width="1" height="1" fill="#FFFFFF" />
<rect x="28" y="23" width="1" height="3" fill="#FFFFFF" />
<rect x="27" y="24" width="1" height="1" fill="#FFFFFF" />
<rect x="29" y="24" width="1" height="1" fill="#FFFFFF" />
<rect x="43" y="39" width="1" height="3" fill="#FFFFFF" />
<rect x="42" y="40" width="1" height="1" fill="#FFFFFF" />
<rect x="44" y="40" width="1" height="1" fill="#FFFFFF" />
<rect x="180" y="40" width="1" height="3" fill="#FFFFFF" />
<rect x="179" y="41" width="1" height="1" fill="#FFFFFF" />
<rect x="181" y="41" width="1" height="1" fill="#FFFFFF" />
<rect x="203" y="41" width="1" height="3" fill="#FFFFFF" />
<rect x="202" y="42" width="1" height="1" fill="#FFFFFF" />
<rect x="204" y="42" width="1" height="1" fill="#FFFFFF" />
<rect x="169" y="53" width="1" height="3" fill="#FFFFFF" />
<rect x="27" y="54" width="1" height="3" fill="#FFFFFF" />
<rect x="168" y="54" width="1" height="1" fill="#FFFFFF" />
<rect x="170" y="54" width="1" height="1" fill="#FFFFFF" />
<rect x="26" y="55" width="1" height="1" fill="#FFFFFF" />
<rect x="28" y="55" width="1" height="1" fill="#FFFFFF" />
<rect x="131" y="58" width="1" height="3" fill="#FFFFFF" />
<rect x="130" y="59" width="1" height="1" fill="#FFFFFF" />
<rect x="132" y="59" width="1" height="1" fill="#FFFFFF" />
<rect x="83" y="66" width="1" height="3" fill="#FFFFFF" />
<rect x="82" y="67" width="1" height="1" fill="#FFFFFF" />
<rect x="84" y="67" width="1" height="1" fill="#FFFFFF" />
<rect x="195" y="67" width="1" height="3" fill="#FFFFFF" />
<rect x="194" y="68" width="1" height="1" fill="#FFFFFF" />
<rect x="196" y="68" width="1" height="1" fill="#FFFFFF" />
<rect x="44" y="74" width="1" height="3" fill="#FFFFFF" />
<rect x="43" y="75" width="1" height="1" fill="#FFFFFF" />
<rect x="45" y="75" width="1" height="1" fill="#FFFFFF" />
<rect x="162" y="80" width="1" height="3" fill="#FFFFFF" />
<rect x="109" y="81" width="1" height="3" fill="#FFFFFF" />
<rect x="161" y="81" width="1" height="1" fill="#FFFFFF" />
<rect x="163" y="81" width="1" height="1" fill="#FFFFFF" />
<rect x="108" y="82" width="1" height="1" fill="#FFFFFF" />
<rect x="110" y="82" width="1" height="1" fill="#FFFFFF" />
<rect x="20" y="85" width="1" height="3" fill="#FFFFFF" />
<rect x="19" y="86" width="1" height="1" fill="#FFFFFF" />
<rect x="21" y="86" width="1" height="1" fill="#FFFFFF" />
<rect x="184" y="93" width="1" height="3" fill="#FFFFFF" />
<rect x="214" y="93" width="1" height="3" fill="#FFFFFF" />
<rect x="183" y="94" width="1" height="1" fill="#FFFFFF" />
<rect x="185" y="94" width="1" height="1" fill="#FFFFFF" />
<rect x="213" y="94" width="1" height="1" fill="#FFFFFF" />
<rect x="215" y="94" width="1" height="1" fill="#FFFFFF" />
<rect x="133" y="95" width="1" height="3" fill="#FFFFFF" />
<rect x="132" y="96" width="1" height="1" fill="#FFFFFF" />
<rect x="134" y="96" width="1" height="1" fill="#FFFFFF" />
<rect x="65" y="97" width="1" height="3" fill="#FFFFFF" />
<rect x="64" y="98" width="1" height="1" fill="#FFFFFF" />
<rect x="66" y="98" width="1" height="1" fill="#FFFFFF" />
</svg>