<?xml version="1.0" encoding="UTF-8" ?>
<svg version="1.1" width="227" height="110" xmlns="http://www.w3.org/2000/svg" shape-rendering="crispEdges">
<rect x="50" y="40" width="12" height="1" fill="#000000" />
<rect x="50" y="41" width="1" height="3" fill="#000000" />
<rect x="51" y="41" width="2" height="2" fill="#EDFF78" />
<rect x="53" y="41" width="2" height="2" fill="#0F1240" />
<rect x="55" y="41" width="2" height="2" fill="#EDFF78" />
<rect x="57" y="41" width="2" height="2" fill="#0F1240" />
<rect x="59" y="41" width="2" height="2" fill="#EDFF78" />
<rect x="61" y="41" width="1" height="3" fill="#000000" />
<rect x="51" y="43" width="10" height="1" fill="#000000" />
<rect x="54" y="44" width="4" height="3" fill="#0F1240" />
<rect x="43" y="47" width="26" height="1" fill="#000000" />
<rect x="43" y="48" width="26" height="3" fill="#0F1240" />
<rect x="40" y="50" width="3" height="1" fill="#000000" />
<rect x="69" y="50" width="3" height="1" fill="#000000" />
<rect x="40" y="51" width="6" height="2" fill="#0F1240" />
<rect x="46" y="51" width="20" height="1" fill="#78F1FF" />
<rect x="66" y="51" width="6" height="2" fill="#0F1240" />
<rect x="149" y="51" width="11" height="3" fill="#0F1240" />
<rect x="46" y="52" width="1" height="2" fill="#78F1FF" />
<rect x="47" y="52" width="18" height="4" fill="#0F1240" />
<rect x="65" y="52" width="1" height="2" fill="#78F1FF" />
<rect x="40" y="53" width="4" height="57" fill="#0F1240" />
<rect x="44" y="53" width="2" height="1" fill="#78F1FF" />
<rect x="66" y="53" width="2" height="1" fill="#78F1FF" />
<rect x="68" y="53" width="4" height="57" fill="#0F1240" />
<rect x="44" y="54" width="1" height="56" fill="#78F1FF" />
<rect x="45" y="54" width="2" height="56" fill="#0F1240" />
<rect x="65" y="54" width="2" height="56" fill="#0F1240" />
<rect x="67" y="54" width="1" height="56" fill="#78F1FF" />
<rect x="149" y="54" width="3" height="56" fill="#0F1240" />
<rect x="152" y="54" width="5" height="22" fill="#90FFB7" />
<rect x="157" y="54" width="3" height="56" fill="#0F1240" />
<rect x="148" y="55" width="1" height="2" fill="#000000" />
<rect x="37" y="56" width="3" height="1" fill="#000000" />
<rect x="47" y="56" width="1" height="54" fill="#0F1240" />
<rect x="48" y="56" width="6" height="2" fill="#000000" />
<rect x="54" y="56" width="4" height="54" fill="#0F1240" />
<rect x="58" y="56" width="6" height="2" fill="#EDFF78" />
<rect x="64" y="56" width="1" height="54" fill="#0F1240" />
<rect x="72" y="56" width="3" height="1" fill="#000000" />
<rect x="147" y="56" width="1" height="2" fill="#000000" />
<rect x="37" y="57" width="3" height="7" fill="#0F1240" />
<rect x="72" y="57" width="3" height="6" fill="#0F1240" />
<rect x="146" y="57" width="1" height="2" fill="#000000" />
<rect x="48" y="58" width="6" height="3" fill="#0F1240" />
<rect x="58" y="58" width="6" height="3" fill="#0F1240" />
<rect x="145" y="58" width="1" height="2" fill="#000000" />
<rect x="144" y="59" width="1" height="3" fill="#000000" />
<rect x="160" y="59" width="8" height="4" fill="#0F1240" />
<rect x="143" y="60" width="1" height="2" fill="#000000" />
<rect x="48" y="61" width="6" height="2" fill="#EDFF78" />
<rect x="58" y="61" width="6" height="2" fill="#EDFF78" />
<rect x="115" y="61" width="28" height="1" fill="#000000" />
<rect x="145" y="61" width="1" height="1" fill="#000000" />
<rect x="115" y="62" width="31" height="1" fill="#0F1240" />
<rect x="48" y="63" width="6" height="3" fill="#0F1240" />
<rect x="58" y="63" width="6" height="3" fill="#0F1240" />
<rect x="115" y="63" width="2" height="3" fill="#0F1240" />
<rect x="117" y="63" width="27" height="1" fill="#FFCA78" />
<rect x="144" y="63" width="2" height="3" fill="#0F1240" />
<rect x="160" y="63" width="5" height="22" fill="#90FFB7" />
<rect x="165" y="63" width="28" height="4" fill="#0F1240" />
<rect x="82" y="64" width="7" height="2" fill="#0F1240" />
<rect x="117" y="64" width="27" height="2" fill="#0F1240" />
<rect x="104" y="65" width="5" height="1" fill="#000000" />
<rect x="48" y="66" width="6" height="2" fill="#EDFF78" />
<rect x="58" y="66" width="6" height="2" fill="#EDFF78" />
<rect x="82" y="66" width="2" height="44" fill="#0F1240" />
<rect x="84" y="66" width="5" height="1" fill="#78F1FF" />
<rect x="104" y="66" width="5" height="1" fill="#0F1240" />
<rect x="117" y="66" width="3" height="6" fill="#0F1240" />
<rect x="129" y="66" width="3" height="7" fill="#0F1240" />
<rect x="141" y="66" width="3" height="7" fill="#0F1240" />
<rect x="84" y="67" width="1" height="43" fill="#78F1FF" />
<rect x="85" y="67" width="3" height="42" fill="#0F1240" />
<rect x="88" y="67" width="1" height="43" fill="#78F1FF" />
<rect x="104" y="67" width="2" height="5" fill="#0F1240" />
<rect x="165" y="67" width="10" height="43" fill="#0F1240" />
<rect x="175" y="67" width="14" height="1" fill="#C65673" />
<rect x="189" y="67" width="4" height="43" fill="#0F1240" />
<rect x="48" y="68" width="6" height="3" fill="#0F1240" />
<rect x="58" y="68" width="6" height="3" fill="#0F1240" />
<rect x="175" y="68" width="2" height="40" fill="#C65673" />
<rect x="177" y="68" width="1" height="1" fill="#F9F47B" />
<rect x="178" y="68" width="11" height="3" fill="#C65673" />
<rect x="99" y="69" width="5" height="3" fill="#0F1240" />
<rect x="106" y="69" width="11" height="3" fill="#0F1240" />
<rect x="120" y="69" width="9" height="4" fill="#0F1240" />
<rect x="132" y="69" width="9" height="4" fill="#0F1240" />
<rect x="144" y="69" width="5" height="4" fill="#0F1240" />
<rect x="177" y="69" width="1" height="7" fill="#C65673" />
<rect x="48" y="71" width="6" height="2" fill="#EDFF78" />
<rect x="58" y="71" width="6" height="2" fill="#000000" />
<rect x="178" y="71" width="2" height="10" fill="#C65673" />
<rect x="180" y="71" width="1" height="1" fill="#F9F47B" />
<rect x="181" y="71" width="3" height="5" fill="#C65673" />
<rect x="184" y="71" width="1" height="1" fill="#F9F47B" />
<rect x="185" y="71" width="4" height="15" fill="#C65673" />
<rect x="37" y="72" width="3" height="1" fill="#000000" />
<rect x="72" y="72" width="3" height="1" fill="#000000" />
<rect x="99" y="72" width="3" height="38" fill="#0F1240" />
<rect x="102" y="72" width="3" height="1" fill="#BE78FF" />
<rect x="105" y="72" width="4" height="38" fill="#0F1240" />
<rect x="109" y="72" width="3" height="1" fill="#BE78FF" />
<rect x="112" y="72" width="4" height="38" fill="#0F1240" />
<rect x="116" y="72" width="3" height="1" fill="#BE78FF" />
<rect x="119" y="72" width="1" height="38" fill="#0F1240" />
<rect x="180" y="72" width="1" height="10" fill="#C65673" />
<rect x="184" y="72" width="1" height="6" fill="#C65673" />
<rect x="37" y="73" width="3" height="7" fill="#0F1240" />
<rect x="48" y="73" width="6" height="3" fill="#0F1240" />
<rect x="58" y="73" width="6" height="3" fill="#0F1240" />
<rect x="72" y="73" width="3" height="6" fill="#0F1240" />
<rect x="95" y="73" width="4" height="2" fill="#0F1240" />
<rect x="102" y="73" width="3" height="3" fill="#0F1240" />
<rect x="109" y="73" width="3" height="3" fill="#0F1240" />
<rect x="116" y="73" width="3" height="3" fill="#0F1240" />
<rect x="120" y="73" width="2" height="37" fill="#0F1240" />
<rect x="122" y="73" width="27" height="1" fill="#000000" />
<rect x="95" y="75" width="2" height="5" fill="#0F1240" />
<rect x="48" y="76" width="6" height="2" fill="#EDFF78" />
<rect x="58" y="76" width="6" height="2" fill="#EDFF78" />
<rect x="102" y="76" width="3" height="1" fill="#BE78FF" />
<rect x="109" y="76" width="3" height="1" fill="#BE78FF" />
<rect x="116" y="76" width="3" height="1" fill="#BE78FF" />
<rect x="152" y="76" width="5" height="5" fill="#0F1240" />
<rect x="177" y="76" width="1" height="1" fill="#F9F47B" />
<rect x="181" y="76" width="1" height="18" fill="#C65673" />
<rect x="182" y="76" width="1" height="1" fill="#F9F47B" />
<rect x="183" y="76" width="1" height="22" fill="#C65673" />
<rect x="102" y="77" width="3" height="3" fill="#0F1240" />
<rect x="109" y="77" width="3" height="3" fill="#0F1240" />
<rect x="116" y="77" width="3" height="3" fill="#0F1240" />
<rect x="177" y="77" width="1" height="31" fill="#C65673" />
<rect x="182" y="77" width="1" height="9" fill="#C65673" />
<rect x="48" y="78" width="6" height="3" fill="#0F1240" />
<rect x="58" y="78" width="6" height="3" fill="#0F1240" />
<rect x="97" y="78" width="2" height="2" fill="#0F1240" />
<rect x="184" y="78" width="1" height="1" fill="#F9F47B" />
<rect x="184" y="79" width="1" height="29" fill="#C65673" />
<rect x="102" y="80" width="3" height="1" fill="#BE78FF" />
<rect x="109" y="80" width="3" height="1" fill="#BE78FF" />
<rect x="116" y="80" width="3" height="1" fill="#BE78FF" />
<rect x="48" y="81" width="6" height="2" fill="#000000" />
<rect x="58" y="81" width="6" height="2" fill="#000000" />
<rect x="102" y="81" width="3" height="3" fill="#0F1240" />
<rect x="109" y="81" width="3" height="3" fill="#0F1240" />
<rect x="116" y="81" width="3" height="3" fill="#0F1240" />
<rect x="152" y="81" width="5" height="22" fill="#90FFB7" />
<rect x="178" y="81" width="1" height="1" fill="#F9F47B" />
<rect x="179" y="81" width="1" height="27" fill="#C65673" />
<rect x="178" y="82" width="1" height="8" fill="#C65673" />
<rect x="180" y="82" width="1" height="1" fill="#F9F47B" />
<rect x="48" y="83" width="6" height="3" fill="#0F1240" />
<rect x="58" y="83" width="6" height="3" fill="#0F1240" />
<rect x="180" y="83" width="1" height="4" fill="#C65673" />
<rect x="102" y="84" width="3" height="1" fill="#BE78FF" />
<rect x="109" y="84" width="3" height="1" fill="#BE78FF" />
<rect x="116" y="84" width="3" height="1" fill="#BE78FF" />
<rect x="72" y="85" width="10" height="3" fill="#0F1240" />
<rect x="102" y="85" width="3" height="3" fill="#0F1240" />
<rect x="109" y="85" width="3" height="3" fill="#0F1240" />
<rect x="116" y="85" width="3" height="3" fill="#0F1240" />
<rect x="134" y="85" width="15" height="3" fill="#0F1240" />
<rect x="160" y="85" width="5" height="5" fill="#0F1240" />
<rect x="48" y="86" width="6" height="2" fill="#EDFF78" />
<rect x="58" y="86" width="6" height="2" fill="#EDFF78" />
<rect x="182" y="86" width="1" height="1" fill="#F9F47B" />
<rect x="185" y="86" width="1" height="12" fill="#C65673" />
<rect x="186" y="86" width="1" height="1" fill="#F9F47B" />
<rect x="187" y="86" width="2" height="22" fill="#C65673" />
<rect x="37" y="87" width="3" height="1" fill="#000000" />
<rect x="95" y="87" width="4" height="2" fill="#0F1240" />
<rect x="180" y="87" width="1" height="1" fill="#F9F47B" />
<rect x="182" y="87" width="1" height="3" fill="#C65673" />
<rect x="186" y="87" width="1" height="21" fill="#C65673" />
<rect x="37" y="88" width="3" height="7" fill="#0F1240" />
<rect x="48" y="88" width="6" height="3" fill="#0F1240" />
<rect x="58" y="88" width="6" height="3" fill="#0F1240" />
<rect x="72" y="88" width="1" height="22" fill="#0F1240" />
<rect x="73" y="88" width="3" height="10" fill="#FFCA78" />
<rect x="76" y="88" width="3" height="22" fill="#0F1240" />
<rect x="79" y="88" width="3" height="10" fill="#FFCA78" />
<rect x="102" y="88" width="3" height="1" fill="#BE78FF" />
<rect x="109" y="88" width="3" height="1" fill="#BE78FF" />
<rect x="116" y="88" width="3" height="1" fill="#BE78FF" />
<rect x="134" y="88" width="3" height="22" fill="#0F1240" />
<rect x="137" y="88" width="3" height="3" fill="#EDFF78" />
<rect x="140" y="88" width="6" height="22" fill="#0F1240" />
<rect x="146" y="88" width="3" height="3" fill="#EDFF78" />
<rect x="180" y="88" width="1" height="15" fill="#C65673" />
<rect x="95" y="89" width="2" height="6" fill="#0F1240" />
<rect x="97" y="89" width="2" height="4" fill="#78F1FF" />
<rect x="102" y="89" width="3" height="3" fill="#0F1240" />
<rect x="109" y="89" width="3" height="3" fill="#0F1240" />
<rect x="116" y="89" width="3" height="3" fill="#0F1240" />
<rect x="160" y="90" width="5" height="20" fill="#90FFB7" />
<rect x="178" y="90" width="1" height="1" fill="#F9F47B" />
<rect x="182" y="90" width="1" height="1" fill="#F9F47B" />
<rect x="48" y="91" width="6" height="2" fill="#EDFF78" />
<rect x="58" y="91" width="6" height="2" fill="#EDFF78" />
<rect x="137" y="91" width="3" height="6" fill="#0F1240" />
<rect x="146" y="91" width="3" height="6" fill="#0F1240" />
<rect x="178" y="91" width="1" height="4" fill="#C65673" />
<rect x="182" y="91" width="1" height="17" fill="#C65673" />
<rect x="102" y="92" width="3" height="1" fill="#BE78FF" />
<rect x="109" y="92" width="3" height="1" fill="#BE78FF" />
<rect x="116" y="92" width="3" height="1" fill="#BE78FF" />
<rect x="48" y="93" width="6" height="3" fill="#0F1240" />
<rect x="58" y="93" width="6" height="3" fill="#0F1240" />
<rect x="89" y="93" width="6" height="2" fill="#0F1240" />
<rect x="97" y="93" width="2" height="2" fill="#0F1240" />
<rect x="102" y="93" width="3" height="3" fill="#0F1240" />
<rect x="109" y="93" width="3" height="3" fill="#0F1240" />
<rect x="116" y="93" width="3" height="3" fill="#0F1240" />
<rect x="181" y="94" width="1" height="1" fill="#F9F47B" />
<rect x="89" y="95" width="1" height="5" fill="#0F1240" />
<rect x="90" y="95" width="8" height="2" fill="#FF789B" />
<rect x="98" y="95" width="1" height="5" fill="#0F1240" />
<rect x="178" y="95" width="1" height="1" fill="#F9F47B" />
<rect x="181" y="95" width="1" height="13" fill="#C65673" />
<rect x="48" y="96" width="6" height="2" fill="#000000" />
<rect x="58" y="96" width="6" height="2" fill="#EDFF78" />
<rect x="102" y="96" width="3" height="1" fill="#BE78FF" />
<rect x="109" y="96" width="3" height="1" fill="#BE78FF" />
<rect x="116" y="96" width="3" height="1" fill="#BE78FF" />
<rect x="178" y="96" width="1" height="3" fill="#C65673" />
<rect x="90" y="97" width="8" height="1" fill="#000000" />
<rect x="102" y="97" width="3" height="3" fill="#0F1240" />
<rect x="109" y="97" width="3" height="3" fill="#0F1240" />
<rect x="116" y="97" width="3" height="3" fill="#0F1240" />
<rect x="137" y="97" width="3" height="3" fill="#EDFF78" />
<rect x="146" y="97" width="3" height="3" fill="#EDFF78" />
<rect x="48" y="98" width="6" height="3" fill="#0F1240" />
<rect x="58" y="98" width="6" height="3" fill="#0F1240" />
<rect x="73" y="98" width="3" height="4" fill="#0F1240" />
<rect x="79" y="98" width="3" height="4" fill="#0F1240" />
<rect x="90" y="98" width="8" height="2" fill="#0F1240" />
<rect x="183" y="98" width="1" height="1" fill="#F9F47B" />
<rect x="185" y="98" width="1" height="1" fill="#F9F47B" />
<rect x="178" y="99" width="1" height="1" fill="#F9F47B" />
<rect x="183" y="99" width="1" height="4" fill="#C65673" />
<rect x="185" y="99" width="1" height="9" fill="#C65673" />
<rect x="102" y="100" width="3" height="1" fill="#BE78FF" />
<rect x="109" y="100" width="3" height="1" fill="#BE78FF" />
<rect x="116" y="100" width="3" height="1" fill="#BE78FF" />
<rect x="137" y="100" width="3" height="6" fill="#0F1240" />
<rect x="146" y="100" width="3" height="6" fill="#0F1240" />
<rect x="178" y="100" width="1" height="8" fill="#C65673" />
<rect x="48" y="101" width="6" height="2" fill="#EDFF78" />
<rect x="58" y="101" width="6" height="2" fill="#EDFF78" />
<rect x="102" y="101" width="3" height="3" fill="#0F1240" />
<rect x="109" y="101" width="3" height="3" fill="#0F1240" />
<rect x="116" y="101" width="3" height="3" fill="#0F1240" />
<rect x="37" y="102" width="3" height="1" fill="#000000" />
<rect x="73" y="102" width="3" height="4" fill="#FFCA78" />
<rect x="79" y="102" width="3" height="4" fill="#FFCA78" />
<rect x="37" y="103" width="3" height="7" fill="#0F1240" />
<rect x="48" y="103" width="6" height="3" fill="#0F1240" />
<rect x="58" y="103" width="6" height="3" fill="#0F1240" />
<rect x="152" y="103" width="5" height="5" fill="#0F1240" />
<rect x="180" y="103" width="1" height="1" fill="#F9F47B" />
<rect x="183" y="103" width="1" height="1" fill="#F9F47B" />
<rect x="102" y="104" width="3" height="1" fill="#BE78FF" />
<rect x="109" y="104" width="3" height="1" fill="#BE78FF" />
<rect x="116" y="104" width="3" height="1" fill="#BE78FF" />
<rect x="180" y="104" width="1" height="4" fill="#C65673" />
<rect x="183" y="104" width="1" height="4" fill="#C65673" />
<rect x="102" y="105" width="3" height="3" fill="#0F1240" />
<rect x="109" y="105" width="3" height="3" fill="#0F1240" />
<rect x="116" y="105" width="3" height="3" fill="#0F1240" />
<rect x="48" y="106" width="6" height="2" fill="#EDFF78" />
<rect x="58" y="106" width="6" height="2" fill="#EDFF78" />
<rect x="73" y="106" width="3" height="4" fill="#0F1240" />
<rect x="79" y="106" width="3" height="4" fill="#0F1240" />
<rect x="137" y="106" width="3" height="3" fill="#EDFF78" />
<rect x="146" y="106" width="3" height="3" fill="#EDFF78" />
<rect x="48" y="108" width="6" height="2" fill="#0F1240" />
<rect x="58" y="108" width="6" height="2" fill="#0F1240" />
<rect x="102" y="108" width="3" height="1" fill="#BE78FF" />
<rect x="109" y="108" width="3" height="1" fill="#BE78FF" />
<rect x="116" y="108" width="3" height="1" fill="#BE78FF" />
<rect x="152" y="108" width="5" height="2" fill="#90FFB7" />
<rect x="175" y="108" width="14" height="2" fill="#0F1240" />
<rect x="85" y="109" width="3" height="1" fill="#78F1FF" />
<rect x="102" y="109" width="3" height="1" fill="#0F1240" />
<rect x="109" y="109" width="3" height="1" fill="#0F1240" />
<rect x="116" y="109" width="3" height="1" fill="#0F1240" />
<rect x="137" y="109" width="3" height="1" fill="#0F1240" />
<rect x="146" y="109" width="3" height="1" fill="#0F1240" />
</svg>