<?xml version="1.0" encoding="UTF-8" ?>
<svg version="1.1" width="227" height="110" xmlns="http://www.w3.org/2000/svg" shape-rendering="crispEdges">
<rect x="0" y="0" width="13" height="1" fill="#201E46" />
<rect x="13" y="0" width="214" height="1" fill="#201E45" />
<rect x="0" y="1" width="11" height="2" fill="#201F46" />
<rect x="11" y="1" width="42" height="1" fill="#201E46" />
<rect x="53" y="1" width="174" height="1" fill="#201E45" />
<rect x="11" y="2" width="40" height="1" fill="#201F46" />
<rect x="51" y="2" width="42" height="1" fill="#201E46" />
<rect x="93" y="2" width="134" height="1" fill="#201E45" />
<rect x="0" y="3" width="36" height="1" fill="#201F47" />
<rect x="36" y="3" width="55" height="1" fill="#201F46" />
<rect x="91" y="3" width="42" height="1" fill="#201E46" />
<rect x="133" y="3" width="94" height="1" fill="#201E45" />
<rect x="0" y="4" width="4" height="1" fill="#211F47" />
<rect x="4" y="4" width="72" height="1" fill="#201F47" />
<rect x="76" y="4" width="55" height="1" fill="#201F46" />
<rect x="131" y="4" width="42" height="1" fill="#201E46" />
<rect x="173" y="4" width="54" height="1" fill="#201E45" />
<rect x="0" y="5" width="19" height="2" fill="#212048" />
<rect x="19" y="5" width="13" height="1" fill="#212047" />
<rect x="32" y="5" width="12" height="1" fill="#211F47" />
<rect x="44" y="5" width="72" height="1" fill="#201F47" />
<rect x="116" y="5" width="55" height="1" fill="#201F46" />
<rect x="171" y="5" width="42" height="1" fill="#201E46" />
<rect x="213" y="5" width="14" height="1" fill="#201E45" />
<rect x="19" y="6" width="40" height="2" fill="#212048" />
<rect x="59" y="6" width="13" height="1" fill="#212047" />
<rect x="72" y="6" width="12" height="1" fill="#211F47" />
<rect x="84" y="6" width="72" height="1" fill="#201F47" />
<rect x="156" y="6" width="55" height="1" fill="#201F46" />
<rect x="211" y="6" width="16" height="1" fill="#201E46" />
<rect x="0" y="7" width="2" height="1" fill="#212049" />
<rect x="2" y="7" width="17" height="1" fill="#212048" />
<rect x="59" y="7" width="40" height="2" fill="#212048" />
<rect x="99" y="7" width="13" height="1" fill="#212047" />
<rect x="112" y="7" width="12" height="1" fill="#211F47" />
<rect x="124" y="7" width="72" height="1" fill="#201F47" />
<rect x="196" y="7" width="31" height="1" fill="#201F46" />
<rect x="0" y="8" width="13" height="2" fill="#212149" />
<rect x="13" y="8" width="29" height="1" fill="#212049" />
<rect x="42" y="8" width="17" height="1" fill="#212048" />
<rect x="99" y="8" width="40" height="2" fill="#212048" />
<rect x="139" y="8" width="13" height="1" fill="#212047" />
<rect x="152" y="8" width="12" height="1" fill="#211F47" />
<rect x="164" y="8" width="63" height="1" fill="#201F47" />
<rect x="13" y="9" width="40" height="1" fill="#212149" />
<rect x="53" y="9" width="29" height="1" fill="#212049" />
<rect x="82" y="9" width="17" height="1" fill="#212048" />
<rect x="139" y="9" width="40" height="2" fill="#212048" />
<rect x="179" y="9" width="13" height="1" fill="#212047" />
<rect x="192" y="9" width="12" height="1" fill="#211F47" />
<rect x="204" y="9" width="23" height="1" fill="#201F47" />
<rect x="0" y="10" width="25" height="1" fill="#21214A" />
<rect x="25" y="10" width="68" height="1" fill="#212149" />
<rect x="93" y="10" width="29" height="1" fill="#212049" />
<rect x="122" y="10" width="17" height="1" fill="#212048" />
<rect x="179" y="10" width="40" height="2" fill="#212048" />
<rect x="219" y="10" width="8" height="1" fill="#212047" />
<rect x="0" y="11" width="17" height="1" fill="#22214A" />
<rect x="17" y="11" width="48" height="1" fill="#21214A" />
<rect x="65" y="11" width="68" height="1" fill="#212149" />
<rect x="133" y="11" width="29" height="1" fill="#212049" />
<rect x="162" y="11" width="17" height="1" fill="#212048" />
<rect x="219" y="11" width="8" height="2" fill="#212048" />
<rect x="0" y="12" width="8" height="3" fill="#22224B" />
<rect x="8" y="12" width="26" height="1" fill="#22224A" />
<rect x="34" y="12" width="23" height="1" fill="#22214A" />
<rect x="57" y="12" width="48" height="1" fill="#21214A" />
<rect x="105" y="12" width="68" height="1" fill="#212149" />
<rect x="173" y="12" width="29" height="1" fill="#212049" />
<rect x="202" y="12" width="17" height="1" fill="#212048" />
<rect x="8" y="13" width="40" height="2" fill="#22224B" />
<rect x="48" y="13" width="26" height="1" fill="#22224A" />
<rect x="74" y="13" width="23" height="1" fill="#22214A" />
<rect x="97" y="13" width="48" height="1" fill="#21214A" />
<rect x="145" y="13" width="68" height="1" fill="#212149" />
<rect x="213" y="13" width="14" height="1" fill="#212049" />
<rect x="48" y="14" width="40" height="2" fill="#22224B" />
<rect x="88" y="14" width="26" height="1" fill="#22224A" />
<rect x="114" y="14" width="23" height="1" fill="#22214A" />
<rect x="137" y="14" width="48" height="1" fill="#21214A" />
<rect x="185" y="14" width="42" height="1" fill="#212149" />
<rect x="0" y="15" width="14" height="2" fill="#22234C" />
<rect x="14" y="15" width="17" height="1" fill="#22224C" />
<rect x="31" y="15" width="17" height="1" fill="#22224B" />
<rect x="88" y="15" width="40" height="2" fill="#22224B" />
<rect x="128" y="15" width="26" height="1" fill="#22224A" />
<rect x="154" y="15" width="23" height="1" fill="#22214A" />
<rect x="177" y="15" width="48" height="1" fill="#21214A" />
<rect x="225" y="15" width="2" height="1" fill="#212149" />
<rect x="14" y="16" width="40" height="2" fill="#22234C" />
<rect x="54" y="16" width="17" height="1" fill="#22224C" />
<rect x="71" y="16" width="17" height="1" fill="#22224B" />
<rect x="128" y="16" width="40" height="2" fill="#22224B" />
<rect x="168" y="16" width="26" height="1" fill="#22224A" />
<rect x="194" y="16" width="23" height="1" fill="#22214A" />
<rect x="217" y="16" width="10" height="1" fill="#21214A" />
<rect x="0" y="17" width="14" height="1" fill="#22234D" />
<rect x="54" y="17" width="40" height="2" fill="#22234C" />
<rect x="94" y="17" width="17" height="1" fill="#22224C" />
<rect x="111" y="17" width="17" height="1" fill="#22224B" />
<rect x="168" y="17" width="40" height="2" fill="#22224B" />
<rect x="208" y="17" width="19" height="1" fill="#22224A" />
<rect x="0" y="18" width="30" height="1" fill="#23234D" />
<rect x="30" y="18" width="24" height="1" fill="#22234D" />
<rect x="94" y="18" width="40" height="2" fill="#22234C" />
<rect x="134" y="18" width="17" height="1" fill="#22224C" />
<rect x="151" y="18" width="17" height="1" fill="#22224B" />
<rect x="208" y="18" width="19" height="2" fill="#22224B" />
<rect x="0" y="19" width="35" height="1" fill="#23244D" />
<rect x="35" y="19" width="35" height="1" fill="#23234D" />
<rect x="70" y="19" width="24" height="1" fill="#22234D" />
<rect x="134" y="19" width="40" height="2" fill="#22234C" />
<rect x="174" y="19" width="17" height="1" fill="#22224C" />
<rect x="191" y="19" width="17" height="1" fill="#22224B" />
<rect x="0" y="20" width="37" height="2" fill="#23244E" />
<rect x="37" y="20" width="38" height="1" fill="#23244D" />
<rect x="75" y="20" width="35" height="1" fill="#23234D" />
<rect x="110" y="20" width="24" height="1" fill="#22234D" />
<rect x="174" y="20" width="40" height="2" fill="#22234C" />
<rect x="214" y="20" width="13" height="1" fill="#22224C" />
<rect x="37" y="21" width="40" height="2" fill="#23244E" />
<rect x="77" y="21" width="38" height="1" fill="#23244D" />
<rect x="115" y="21" width="35" height="1" fill="#23234D" />
<rect x="150" y="21" width="24" height="1" fill="#22234D" />
<rect x="214" y="21" width="13" height="2" fill="#22234C" />
<rect x="0" y="22" width="16" height="2" fill="#23254F" />
<rect x="16" y="22" width="4" height="1" fill="#23244F" />
<rect x="20" y="22" width="17" height="1" fill="#23244E" />
<rect x="77" y="22" width="40" height="2" fill="#23244E" />
<rect x="117" y="22" width="38" height="1" fill="#23244D" />
<rect x="155" y="22" width="35" height="1" fill="#23234D" />
<rect x="190" y="22" width="24" height="1" fill="#22234D" />
<rect x="16" y="23" width="40" height="2" fill="#23254F" />
<rect x="56" y="23" width="4" height="1" fill="#23244F" />
<rect x="60" y="23" width="17" height="1" fill="#23244E" />
<rect x="117" y="23" width="40" height="2" fill="#23244E" />
<rect x="157" y="23" width="38" height="1" fill="#23244D" />
<rect x="195" y="23" width="32" height="1" fill="#23234D" />
<rect x="0" y="24" width="3" height="2" fill="#242550" />
<rect x="3" y="24" width="13" height="1" fill="#23254F" />
<rect x="56" y="24" width="40" height="2" fill="#23254F" />
<rect x="96" y="24" width="4" height="1" fill="#23244F" />
<rect x="100" y="24" width="17" height="1" fill="#23244E" />
<rect x="157" y="24" width="40" height="2" fill="#23244E" />
<rect x="197" y="24" width="30" height="1" fill="#23244D" />
<rect x="3" y="25" width="40" height="1" fill="#242550" />
<rect x="43" y="25" width="13" height="1" fill="#23254F" />
<rect x="96" y="25" width="40" height="2" fill="#23254F" />
<rect x="136" y="25" width="4" height="1" fill="#23244F" />
<rect x="140" y="25" width="17" height="1" fill="#23244E" />
<rect x="197" y="25" width="30" height="2" fill="#23244E" />
<rect x="0" y="26" width="37" height="1" fill="#242650" />
<rect x="37" y="26" width="46" height="1" fill="#242550" />
<rect x="83" y="26" width="13" height="1" fill="#23254F" />
<rect x="136" y="26" width="40" height="2" fill="#23254F" />
<rect x="176" y="26" width="4" height="1" fill="#23244F" />
<rect x="180" y="26" width="17" height="1" fill="#23244E" />
<rect x="0" y="27" width="26" height="2" fill="#242651" />
<rect x="26" y="27" width="51" height="1" fill="#242650" />
<rect x="77" y="27" width="46" height="1" fill="#242550" />
<rect x="123" y="27" width="13" height="1" fill="#23254F" />
<rect x="176" y="27" width="40" height="2" fill="#23254F" />
<rect x="216" y="27" width="4" height="1" fill="#23244F" />
<rect x="220" y="27" width="7" height="1" fill="#23244E" />
<rect x="26" y="28" width="40" height="2" fill="#242651" />
<rect x="66" y="28" width="51" height="1" fill="#242650" />
<rect x="117" y="28" width="46" height="1" fill="#242550" />
<rect x="163" y="28" width="13" height="1" fill="#23254F" />
<rect x="216" y="28" width="11" height="2" fill="#23254F" />
<rect x="0" y="29" width="9" height="2" fill="#242752" />
<rect x="9" y="29" width="9" height="1" fill="#242751" />
<rect x="18" y="29" width="8" height="1" fill="#242651" />
<rect x="66" y="29" width="40" height="2" fill="#242651" />
<rect x="106" y="29" width="51" height="1" fill="#242650" />
<rect x="157" y="29" width="46" height="1" fill="#242550" />
<rect x="203" y="29" width="13" height="1" fill="#23254F" />
<rect x="9" y="30" width="40" height="1" fill="#242752" />
<rect x="49" y="30" width="9" height="1" fill="#242751" />
<rect x="58" y="30" width="8" height="1" fill="#242651" />
<rect x="106" y="30" width="40" height="2" fill="#242651" />
<rect x="146" y="30" width="51" height="1" fill="#242650" />
<rect x="197" y="30" width="30" height="1" fill="#242550" />
<rect x="0" y="31" width="16" height="1" fill="#252752" />
<rect x="16" y="31" width="73" height="1" fill="#242752" />
<rect x="89" y="31" width="9" height="1" fill="#242751" />
<rect x="98" y="31" width="8" height="1" fill="#242651" />
<rect x="146" y="31" width="40" height="2" fill="#242651" />
<rect x="186" y="31" width="41" height="1" fill="#242650" />
<rect x="0" y="32" width="32" height="1" fill="#252753" />
<rect x="32" y="32" width="24" height="1" fill="#252752" />
<rect x="56" y="32" width="73" height="1" fill="#242752" />
<rect x="129" y="32" width="9" height="1" fill="#242751" />
<rect x="138" y="32" width="8" height="1" fill="#242651" />
<rect x="186" y="32" width="40" height="2" fill="#242651" />
<rect x="226" y="32" width="1" height="1" fill="#242650" />
<rect x="0" y="33" width="38" height="1" fill="#252853" />
<rect x="38" y="33" width="34" height="1" fill="#252753" />
<rect x="72" y="33" width="24" height="1" fill="#252752" />
<rect x="96" y="33" width="73" height="1" fill="#242752" />
<rect x="169" y="33" width="9" height="1" fill="#242751" />
<rect x="178" y="33" width="8" height="1" fill="#242651" />
<rect x="226" y="33" width="1" height="2" fill="#242651" />
<rect x="0" y="34" width="15" height="2" fill="#252854" />
<rect x="15" y="34" width="63" height="1" fill="#252853" />
<rect x="78" y="34" width="34" height="1" fill="#252753" />
<rect x="112" y="34" width="24" height="1" fill="#252752" />
<rect x="136" y="34" width="73" height="1" fill="#242752" />
<rect x="209" y="34" width="9" height="1" fill="#242751" />
<rect x="218" y="34" width="8" height="1" fill="#242651" />
<rect x="15" y="35" width="40" height="1" fill="#252854" />
<rect x="55" y="35" width="63" height="1" fill="#252853" />
<rect x="118" y="35" width="34" height="1" fill="#252753" />
<rect x="152" y="35" width="24" height="1" fill="#252752" />
<rect x="176" y="35" width="51" height="1" fill="#242752" />
<rect x="0" y="36" width="19" height="1" fill="#252954" />
<rect x="19" y="36" width="76" height="1" fill="#252854" />
<rect x="95" y="36" width="63" height="1" fill="#252853" />
<rect x="158" y="36" width="34" height="1" fill="#252753" />
<rect x="192" y="36" width="24" height="1" fill="#252752" />
<rect x="216" y="36" width="11" height="1" fill="#242752" />
<rect x="0" y="37" width="38" height="1" fill="#252955" />
<rect x="38" y="37" width="21" height="1" fill="#252954" />
<rect x="59" y="37" width="76" height="1" fill="#252854" />
<rect x="135" y="37" width="63" height="1" fill="#252853" />
<rect x="198" y="37" width="29" height="1" fill="#252753" />
<rect x="0" y="38" width="30" height="1" fill="#262955" />
<rect x="30" y="38" width="48" height="1" fill="#252955" />
<rect x="78" y="38" width="21" height="1" fill="#252954" />
<rect x="99" y="38" width="76" height="1" fill="#252854" />
<rect x="175" y="38" width="52" height="1" fill="#252853" />
<rect x="0" y="39" width="21" height="1" fill="#262956" />
<rect x="21" y="39" width="49" height="1" fill="#262955" />
<rect x="70" y="39" width="48" height="1" fill="#252955" />
<rect x="118" y="39" width="21" height="1" fill="#252954" />
<rect x="139" y="39" width="76" height="1" fill="#252854" />
<rect x="215" y="39" width="12" height="1" fill="#252853" />
<rect x="0" y="40" width="40" height="1" fill="#262A56" />
<rect x="40" y="40" width="21" height="1" fill="#262956" />
<rect x="61" y="40" width="49" height="1" fill="#262955" />
<rect x="110" y="40" width="48" height="1" fill="#252955" />
<rect x="158" y="40" width="21" height="1" fill="#252954" />
<rect x="179" y="40" width="48" height="1" fill="#252854" />
<rect x="0" y="41" width="4" height="2" fill="#262A57" />
<rect x="4" y="41" width="76" height="1" fill="#262A56" />
<rect x="80" y="41" width="21" height="1" fill="#262956" />
<rect x="101" y="41" width="49" height="1" fill="#262955" />
<rect x="150" y="41" width="48" height="1" fill="#252955" />
<rect x="198" y="41" width="21" height="1" fill="#252954" />
<rect x="219" y="41" width="8" height="1" fill="#252854" />
<rect x="4" y="42" width="40" height="1" fill="#262A57" />
<rect x="44" y="42" width="76" height="1" fill="#262A56" />
<rect x="120" y="42" width="21" height="1" fill="#262956" />
<rect x="141" y="42" width="49" height="1" fill="#262955" />
<rect x="190" y="42" width="37" height="1" fill="#252955" />
<rect x="0" y="43" width="21" height="1" fill="#262B57" />
<rect x="21" y="43" width="63" height="1" fill="#262A57" />
<rect x="84" y="43" width="76" height="1" fill="#262A56" />
<rect x="160" y="43" width="21" height="1" fill="#262956" />
<rect x="181" y="43" width="46" height="1" fill="#262955" />
<rect x="0" y="44" width="3" height="2" fill="#272B58" />
<rect x="3" y="44" width="24" height="1" fill="#262B58" />
<rect x="27" y="44" width="34" height="1" fill="#262B57" />
<rect x="61" y="44" width="63" height="1" fill="#262A57" />
<rect x="124" y="44" width="76" height="1" fill="#262A56" />
<rect x="200" y="44" width="21" height="1" fill="#262956" />
<rect x="221" y="44" width="6" height="1" fill="#262955" />
<rect x="3" y="45" width="40" height="1" fill="#272B58" />
<rect x="43" y="45" width="24" height="1" fill="#262B58" />
<rect x="67" y="45" width="34" height="1" fill="#262B57" />
<rect x="101" y="45" width="63" height="1" fill="#262A57" />
<rect x="164" y="45" width="63" height="1" fill="#262A56" />
<rect x="0" y="46" width="1" height="3" fill="#272C59" />
<rect x="1" y="46" width="9" height="1" fill="#272B59" />
<rect x="10" y="46" width="73" height="1" fill="#272B58" />
<rect x="83" y="46" width="24" height="1" fill="#262B58" />
<rect x="107" y="46" width="34" height="1" fill="#262B57" />
<rect x="141" y="46" width="63" height="1" fill="#262A57" />
<rect x="204" y="46" width="23" height="1" fill="#262A56" />
<rect x="1" y="47" width="40" height="2" fill="#272C59" />
<rect x="41" y="47" width="9" height="1" fill="#272B59" />
<rect x="50" y="47" width="73" height="1" fill="#272B58" />
<rect x="123" y="47" width="24" height="1" fill="#262B58" />
<rect x="147" y="47" width="34" height="1" fill="#262B57" />
<rect x="181" y="47" width="46" height="1" fill="#262A57" />
<rect x="41" y="48" width="40" height="2" fill="#272C59" />
<rect x="81" y="48" width="9" height="1" fill="#272B59" />
<rect x="90" y="48" width="73" height="1" fill="#272B58" />
<rect x="163" y="48" width="24" height="1" fill="#262B58" />
<rect x="187" y="48" width="34" height="1" fill="#262B57" />
<rect x="221" y="48" width="6" height="1" fill="#262A57" />
<rect x="0" y="49" width="33" height="1" fill="#272C5A" />
<rect x="33" y="49" width="8" height="1" fill="#272C59" />
<rect x="81" y="49" width="40" height="2" fill="#272C59" />
<rect x="121" y="49" width="9" height="1" fill="#272B59" />
<rect x="130" y="49" width="73" height="1" fill="#272B58" />
<rect x="203" y="49" width="24" height="1" fill="#262B58" />
<rect x="0" y="50" width="22" height="1" fill="#272D5A" />
<rect x="22" y="50" width="51" height="1" fill="#272C5A" />
<rect x="73" y="50" width="8" height="1" fill="#272C59" />
<rect x="121" y="50" width="40" height="2" fill="#272C59" />
<rect x="161" y="50" width="9" height="1" fill="#272B59" />
<rect x="170" y="50" width="57" height="1" fill="#272B58" />
<rect x="0" y="51" width="16" height="2" fill="#282D5B" />
<rect x="16" y="51" width="46" height="1" fill="#272D5A" />
<rect x="62" y="51" width="51" height="1" fill="#272C5A" />
<rect x="113" y="51" width="8" height="1" fill="#272C59" />
<rect x="161" y="51" width="40" height="2" fill="#272C59" />
<rect x="201" y="51" width="9" height="1" fill="#272B59" />
<rect x="210" y="51" width="17" height="1" fill="#272B58" />
<rect x="16" y="52" width="40" height="2" fill="#282D5B" />
<rect x="56" y="52" width="46" height="1" fill="#272D5A" />
<rect x="102" y="52" width="51" height="1" fill="#272C5A" />
<rect x="153" y="52" width="8" height="1" fill="#272C59" />
<rect x="201" y="52" width="26" height="2" fill="#272C59" />
<rect x="0" y="53" width="3" height="1" fill="#282E5B" />
<rect x="3" y="53" width="13" height="1" fill="#282D5B" />
<rect x="56" y="53" width="40" height="2" fill="#282D5B" />
<rect x="96" y="53" width="46" height="1" fill="#272D5A" />
<rect x="142" y="53" width="51" height="1" fill="#272C5A" />
<rect x="193" y="53" width="8" height="1" fill="#272C59" />
<rect x="0" y="54" width="39" height="2" fill="#282E5C" />
<rect x="39" y="54" width="4" height="1" fill="#282E5B" />
<rect x="43" y="54" width="13" height="1" fill="#282D5B" />
<rect x="96" y="54" width="40" height="2" fill="#282D5B" />
<rect x="136" y="54" width="46" height="1" fill="#272D5A" />
<rect x="182" y="54" width="45" height="1" fill="#272C5A" />
<rect x="39" y="55" width="40" height="2" fill="#282E5C" />
<rect x="79" y="55" width="4" height="1" fill="#282E5B" />
<rect x="83" y="55" width="13" height="1" fill="#282D5B" />
<rect x="136" y="55" width="40" height="2" fill="#282D5B" />
<rect x="176" y="55" width="46" height="1" fill="#272D5A" />
<rect x="222" y="55" width="5" height="1" fill="#272C5A" />
<rect x="0" y="56" width="22" height="1" fill="#282E5D" />
<rect x="22" y="56" width="17" height="1" fill="#282E5C" />
<rect x="79" y="56" width="40" height="2" fill="#282E5C" />
<rect x="119" y="56" width="4" height="1" fill="#282E5B" />
<rect x="123" y="56" width="13" height="1" fill="#282D5B" />
<rect x="176" y="56" width="40" height="2" fill="#282D5B" />
<rect x="216" y="56" width="11" height="1" fill="#272D5A" />
<rect x="0" y="57" width="24" height="1" fill="#282F5D" />
<rect x="24" y="57" width="38" height="1" fill="#282E5D" />
<rect x="62" y="57" width="17" height="1" fill="#282E5C" />
<rect x="119" y="57" width="40" height="2" fill="#282E5C" />
<rect x="159" y="57" width="4" height="1" fill="#282E5B" />
<rect x="163" y="57" width="13" height="1" fill="#282D5B" />
<rect x="216" y="57" width="11" height="2" fill="#282D5B" />
<rect x="0" y="58" width="5" height="2" fill="#292F5E" />
<rect x="5" y="58" width="24" height="1" fill="#292F5D" />
<rect x="29" y="58" width="35" height="1" fill="#282F5D" />
<rect x="64" y="58" width="38" height="1" fill="#282E5D" />
<rect x="102" y="58" width="17" height="1" fill="#282E5C" />
<rect x="159" y="58" width="40" height="2" fill="#282E5C" />
<rect x="199" y="58" width="4" height="1" fill="#282E5B" />
<rect x="203" y="58" width="13" height="1" fill="#282D5B" />
<rect x="5" y="59" width="40" height="2" fill="#292F5E" />
<rect x="45" y="59" width="24" height="1" fill="#292F5D" />
<rect x="69" y="59" width="35" height="1" fill="#282F5D" />
<rect x="104" y="59" width="38" height="1" fill="#282E5D" />
<rect x="142" y="59" width="17" height="1" fill="#282E5C" />
<rect x="199" y="59" width="28" height="2" fill="#282E5C" />
<rect x="0" y="60" width="5" height="1" fill="#29305E" />
<rect x="45" y="60" width="40" height="2" fill="#292F5E" />
<rect x="85" y="60" width="24" height="1" fill="#292F5D" />
<rect x="109" y="60" width="35" height="1" fill="#282F5D" />
<rect x="144" y="60" width="38" height="1" fill="#282E5D" />
<rect x="182" y="60" width="17" height="1" fill="#282E5C" />
<rect x="0" y="61" width="28" height="2" fill="#29305F" />
<rect x="28" y="61" width="17" height="1" fill="#29305E" />
<rect x="85" y="61" width="40" height="2" fill="#292F5E" />
<rect x="125" y="61" width="24" height="1" fill="#292F5D" />
<rect x="149" y="61" width="35" height="1" fill="#282F5D" />
<rect x="184" y="61" width="38" height="1" fill="#282E5D" />
<rect x="222" y="61" width="5" height="1" fill="#282E5C" />
<rect x="28" y="62" width="40" height="2" fill="#29305F" />
<rect x="68" y="62" width="17" height="1" fill="#29305E" />
<rect x="125" y="62" width="40" height="2" fill="#292F5E" />
<rect x="165" y="62" width="24" height="1" fill="#292F5D" />
<rect x="189" y="62" width="35" height="1" fill="#282F5D" />
<rect x="224" y="62" width="3" height="1" fill="#282E5D" />
<rect x="0" y="63" width="11" height="1" fill="#293060" />
<rect x="11" y="63" width="17" height="1" fill="#29305F" />
<rect x="68" y="63" width="40" height="2" fill="#29305F" />
<rect x="108" y="63" width="17" height="1" fill="#29305E" />
<rect x="165" y="63" width="40" height="2" fill="#292F5E" />
<rect x="205" y="63" width="22" height="1" fill="#292F5D" />
<rect x="0" y="64" width="2" height="2" fill="#2A3160" />
<rect x="2" y="64" width="23" height="1" fill="#293160" />
<rect x="25" y="64" width="26" height="1" fill="#293060" />
<rect x="51" y="64" width="17" height="1" fill="#29305F" />
<rect x="108" y="64" width="40" height="2" fill="#29305F" />
<rect x="148" y="64" width="17" height="1" fill="#29305E" />
<rect x="205" y="64" width="22" height="2" fill="#292F5E" />
<rect x="2" y="65" width="40" height="1" fill="#2A3160" />
<rect x="42" y="65" width="23" height="1" fill="#293160" />
<rect x="65" y="65" width="26" height="1" fill="#293060" />
<rect x="91" y="65" width="17" height="1" fill="#29305F" />
<rect x="148" y="65" width="40" height="2" fill="#29305F" />
<rect x="188" y="65" width="17" height="1" fill="#29305E" />
<rect x="0" y="66" width="34" height="1" fill="#2A3161" />
<rect x="34" y="66" width="48" height="1" fill="#2A3160" />
<rect x="82" y="66" width="23" height="1" fill="#293160" />
<rect x="105" y="66" width="26" height="1" fill="#293060" />
<rect x="131" y="66" width="17" height="1" fill="#29305F" />
<rect x="188" y="66" width="39" height="2" fill="#29305F" />
<rect x="0" y="67" width="6" height="1" fill="#2A3261" />
<rect x="6" y="67" width="68" height="1" fill="#2A3161" />
<rect x="74" y="67" width="48" height="1" fill="#2A3160" />
<rect x="122" y="67" width="23" height="1" fill="#293160" />
<rect x="145" y="67" width="26" height="1" fill="#293060" />
<rect x="171" y="67" width="17" height="1" fill="#29305F" />
<rect x="0" y="68" width="17" height="3" fill="#2A3262" />
<rect x="17" y="68" width="29" height="1" fill="#2A3261" />
<rect x="46" y="68" width="68" height="1" fill="#2A3161" />
<rect x="114" y="68" width="48" height="1" fill="#2A3160" />
<rect x="162" y="68" width="23" height="1" fill="#293160" />
<rect x="185" y="68" width="26" height="1" fill="#293060" />
<rect x="211" y="68" width="16" height="1" fill="#29305F" />
<rect x="17" y="69" width="40" height="2" fill="#2A3262" />
<rect x="57" y="69" width="29" height="1" fill="#2A3261" />
<rect x="86" y="69" width="68" height="1" fill="#2A3161" />
<rect x="154" y="69" width="48" height="1" fill="#2A3160" />
<rect x="202" y="69" width="23" height="1" fill="#293160" />
<rect x="225" y="69" width="2" height="1" fill="#293060" />
<rect x="57" y="70" width="40" height="2" fill="#2A3262" />
<rect x="97" y="70" width="29" height="1" fill="#2A3261" />
<rect x="126" y="70" width="68" height="1" fill="#2A3161" />
<rect x="194" y="70" width="33" height="1" fill="#2A3160" />
<rect x="0" y="71" width="15" height="2" fill="#2B3363" />
<rect x="15" y="71" width="12" height="1" fill="#2A3363" />
<rect x="27" y="71" width="13" height="1" fill="#2A3263" />
<rect x="40" y="71" width="17" height="1" fill="#2A3262" />
<rect x="97" y="71" width="40" height="2" fill="#2A3262" />
<rect x="137" y="71" width="29" height="1" fill="#2A3261" />
<rect x="166" y="71" width="61" height="1" fill="#2A3161" />
<rect x="15" y="72" width="40" height="1" fill="#2B3363" />
<rect x="55" y="72" width="12" height="1" fill="#2A3363" />
<rect x="67" y="72" width="13" height="1" fill="#2A3263" />
<rect x="80" y="72" width="17" height="1" fill="#2A3262" />
<rect x="137" y="72" width="40" height="2" fill="#2A3262" />
<rect x="177" y="72" width="29" height="1" fill="#2A3261" />
<rect x="206" y="72" width="21" height="1" fill="#2A3161" />
<rect x="0" y="73" width="23" height="1" fill="#2B3364" />
<rect x="23" y="73" width="72" height="1" fill="#2B3363" />
<rect x="95" y="73" width="12" height="1" fill="#2A3363" />
<rect x="107" y="73" width="13" height="1" fill="#2A3263" />
<rect x="120" y="73" width="17" height="1" fill="#2A3262" />
<rect x="177" y="73" width="40" height="2" fill="#2A3262" />
<rect x="217" y="73" width="10" height="1" fill="#2A3261" />
<rect x="0" y="74" width="8" height="1" fill="#2B3464" />
<rect x="8" y="74" width="55" height="1" fill="#2B3364" />
<rect x="63" y="74" width="72" height="1" fill="#2B3363" />
<rect x="135" y="74" width="12" height="1" fill="#2A3363" />
<rect x="147" y="74" width="13" height="1" fill="#2A3263" />
<rect x="160" y="74" width="17" height="1" fill="#2A3262" />
<rect x="217" y="74" width="10" height="2" fill="#2A3262" />
<rect x="0" y="75" width="6" height="3" fill="#2B3465" />
<rect x="6" y="75" width="42" height="1" fill="#2B3464" />
<rect x="48" y="75" width="55" height="1" fill="#2B3364" />
<rect x="103" y="75" width="72" height="1" fill="#2B3363" />
<rect x="175" y="75" width="12" height="1" fill="#2A3363" />
<rect x="187" y="75" width="13" height="1" fill="#2A3263" />
<rect x="200" y="75" width="17" height="1" fill="#2A3262" />
<rect x="6" y="76" width="40" height="2" fill="#2B3465" />
<rect x="46" y="76" width="42" height="1" fill="#2B3464" />
<rect x="88" y="76" width="55" height="1" fill="#2B3364" />
<rect x="143" y="76" width="72" height="1" fill="#2B3363" />
<rect x="215" y="76" width="12" height="1" fill="#2A3363" />
<rect x="46" y="77" width="40" height="2" fill="#2B3465" />
<rect x="86" y="77" width="42" height="1" fill="#2B3464" />
<rect x="128" y="77" width="55" height="1" fill="#2B3364" />
<rect x="183" y="77" width="44" height="1" fill="#2B3363" />
<rect x="0" y="78" width="29" height="32" fill="#2C3566" />
<rect x="29" y="78" width="17" height="1" fill="#2B3465" />
<rect x="86" y="78" width="40" height="2" fill="#2B3465" />
<rect x="126" y="78" width="42" height="1" fill="#2B3464" />
<rect x="168" y="78" width="55" height="1" fill="#2B3364" />
<rect x="223" y="78" width="4" height="1" fill="#2B3363" />
<rect x="29" y="79" width="40" height="31" fill="#2C3566" />
<rect x="69" y="79" width="17" height="1" fill="#2B3465" />
<rect x="126" y="79" width="40" height="2" fill="#2B3465" />
<rect x="166" y="79" width="42" height="1" fill="#2B3464" />
<rect x="208" y="79" width="19" height="1" fill="#2B3364" />
<rect x="69" y="80" width="40" height="30" fill="#2C3566" />
<rect x="109" y="80" width="17" height="1" fill="#2B3465" />
<rect x="166" y="80" width="40" height="2" fill="#2B3465" />
<rect x="206" y="80" width="21" height="1" fill="#2B3464" />
<rect x="109" y="81" width="40" height="29" fill="#2C3566" />
<rect x="149" y="81" width="17" height="1" fill="#2B3465" />
<rect x="206" y="81" width="21" height="2" fill="#2B3465" />
<rect x="149" y="82" width="40" height="28" fill="#2C3566" />
<rect x="189" y="82" width="17" height="1" fill="#2B3465" />
<rect x="189" y="83" width="38" height="27" fill="#2C3566" />
</svg>