<?xml version="1.0" encoding="UTF-8" ?>
<svg version="1.1" width="227" height="110" xmlns="http://www.w3.org/2000/svg" shape-rendering="crispEdges">
<rect x="50" y="40" width="12" height="1" fill="#1F2D6C" />
<rect x="30" y="41" width="14" height="2" fill="#0F1240" />
<rect x="44" y="41" width="1" height="1" fill="#000000" />
<rect x="50" y="41" width="1" height="3" fill="#1F2D6C" />
<rect x="51" y="41" width="2" height="2" fill="#EDFF78" />
<rect x="53" y="41" width="2" height="3" fill="#1F2D6C" />
<rect x="55" y="41" width="2" height="2" fill="#EDFF78" />
<rect x="57" y="41" width="2" height="3" fill="#1F2D6C" />
<rect x="59" y="41" width="2" height="2" fill="#EDFF78" />
<rect x="61" y="41" width="1" height="3" fill="#1F2D6C" />
<rect x="29" y="42" width="1" height="13" fill="#0F1240" />
<rect x="44" y="42" width="1" height="6" fill="#0F1240" />
<rect x="45" y="42" width="1" height="6" fill="#000000" />
<rect x="30" y="43" width="2" height="8" fill="#0F1240" />
<rect x="32" y="43" width="10" height="1" fill="#FFFFFF" />
<rect x="42" y="43" width="1" height="7" fill="#000000" />
<rect x="43" y="43" width="1" height="5" fill="#0F1240" />
<rect x="51" y="43" width="2" height="1" fill="#1F2D6C" />
<rect x="55" y="43" width="2" height="8" fill="#1F2D6C" />
<rect x="59" y="43" width="2" height="1" fill="#1F2D6C" />
<rect x="32" y="44" width="1" height="5" fill="#FFFFFF" />
<rect x="33" y="44" width="2" height="2" fill="#C3EEF9" />
<rect x="35" y="44" width="1" height="1" fill="#FFFFFF" />
<rect x="36" y="44" width="3" height="1" fill="#C3EEF9" />
<rect x="39" y="44" width="1" height="1" fill="#FFFFFF" />
<rect x="40" y="44" width="2" height="1" fill="#C3EEF9" />
<rect x="50" y="44" width="4" height="1" fill="#000000" />
<rect x="54" y="44" width="1" height="7" fill="#1F2D6C" />
<rect x="57" y="44" width="1" height="7" fill="#1F2D6C" />
<rect x="58" y="44" width="4" height="1" fill="#000000" />
<rect x="35" y="45" width="1" height="3" fill="#C3EEF9" />
<rect x="36" y="45" width="1" height="1" fill="#FFFFFF" />
<rect x="37" y="45" width="3" height="1" fill="#C3EEF9" />
<rect x="40" y="45" width="1" height="1" fill="#FFFFFF" />
<rect x="41" y="45" width="1" height="1" fill="#C3EEF9" />
<rect x="33" y="46" width="1" height="1" fill="#FFFFFF" />
<rect x="34" y="46" width="1" height="1" fill="#C3EEF9" />
<rect x="36" y="46" width="1" height="3" fill="#C3EEF9" />
<rect x="37" y="46" width="1" height="1" fill="#FFFFFF" />
<rect x="38" y="46" width="3" height="1" fill="#C3EEF9" />
<rect x="41" y="46" width="1" height="1" fill="#FFFFFF" />
<rect x="82" y="46" width="6" height="18" fill="#0F1240" />
<rect x="33" y="47" width="1" height="2" fill="#C3EEF9" />
<rect x="34" y="47" width="1" height="1" fill="#FFFFFF" />
<rect x="37" y="47" width="1" height="2" fill="#C3EEF9" />
<rect x="38" y="47" width="1" height="1" fill="#FFFFFF" />
<rect x="39" y="47" width="3" height="1" fill="#C3EEF9" />
<rect x="79" y="47" width="3" height="38" fill="#0F1240" />
<rect x="88" y="47" width="3" height="17" fill="#0F1240" />
<rect x="124" y="47" width="19" height="14" fill="#0F1240" />
<rect x="34" y="48" width="1" height="1" fill="#C3EEF9" />
<rect x="35" y="48" width="1" height="1" fill="#FFFFFF" />
<rect x="38" y="48" width="1" height="1" fill="#C3EEF9" />
<rect x="39" y="48" width="1" height="1" fill="#FFFFFF" />
<rect x="40" y="48" width="2" height="1" fill="#C3EEF9" />
<rect x="43" y="48" width="11" height="3" fill="#1F2D6C" />
<rect x="58" y="48" width="11" height="3" fill="#1F2D6C" />
<rect x="77" y="48" width="2" height="26" fill="#0F1240" />
<rect x="91" y="48" width="2" height="26" fill="#0F1240" />
<rect x="32" y="49" width="10" height="1" fill="#000000" />
<rect x="76" y="49" width="1" height="24" fill="#0F1240" />
<rect x="93" y="49" width="1" height="24" fill="#0F1240" />
<rect x="32" y="50" width="11" height="1" fill="#0F1240" />
<rect x="75" y="50" width="1" height="22" fill="#0F1240" />
<rect x="94" y="50" width="1" height="22" fill="#0F1240" />
<rect x="6" y="51" width="14" height="2" fill="#0F1240" />
<rect x="30" y="51" width="1" height="5" fill="#0F1240" />
<rect x="31" y="51" width="9" height="1" fill="#FFCA78" />
<rect x="40" y="51" width="6" height="2" fill="#1F2D6C" />
<rect x="46" y="51" width="20" height="1" fill="#78F1FF" />
<rect x="66" y="51" width="6" height="2" fill="#1F2D6C" />
<rect x="74" y="51" width="1" height="6" fill="#0F1240" />
<rect x="95" y="51" width="1" height="20" fill="#0F1240" />
<rect x="149" y="51" width="11" height="3" fill="#1F2D6C" />
<rect x="5" y="52" width="1" height="13" fill="#0F1240" />
<rect x="20" y="52" width="1" height="13" fill="#0F1240" />
<rect x="31" y="52" width="1" height="4" fill="#0F1240" />
<rect x="32" y="52" width="8" height="1" fill="#000000" />
<rect x="46" y="52" width="1" height="2" fill="#78F1FF" />
<rect x="47" y="52" width="18" height="1" fill="#000000" />
<rect x="65" y="52" width="1" height="2" fill="#78F1FF" />
<rect x="73" y="52" width="1" height="5" fill="#0F1240" />
<rect x="96" y="52" width="1" height="18" fill="#0F1240" />
<rect x="6" y="53" width="2" height="8" fill="#0F1240" />
<rect x="8" y="53" width="10" height="1" fill="#FFFFFF" />
<rect x="18" y="53" width="1" height="7" fill="#000000" />
<rect x="19" y="53" width="1" height="9" fill="#0F1240" />
<rect x="21" y="53" width="1" height="13" fill="#000000" />
<rect x="32" y="53" width="8" height="3" fill="#0F1240" />
<rect x="40" y="53" width="4" height="57" fill="#1F2D6C" />
<rect x="44" y="53" width="2" height="1" fill="#78F1FF" />
<rect x="47" y="53" width="18" height="3" fill="#1F2D6C" />
<rect x="66" y="53" width="2" height="1" fill="#78F1FF" />
<rect x="68" y="53" width="4" height="57" fill="#1F2D6C" />
<rect x="72" y="53" width="1" height="4" fill="#0F1240" />
<rect x="97" y="53" width="1" height="16" fill="#0F1240" />
<rect x="121" y="53" width="3" height="8" fill="#0F1240" />
<rect x="143" y="53" width="3" height="5" fill="#0F1240" />
<rect x="8" y="54" width="1" height="5" fill="#FFFFFF" />
<rect x="9" y="54" width="2" height="2" fill="#C3EEF9" />
<rect x="11" y="54" width="1" height="1" fill="#FFFFFF" />
<rect x="12" y="54" width="3" height="1" fill="#C3EEF9" />
<rect x="15" y="54" width="1" height="1" fill="#FFFFFF" />
<rect x="16" y="54" width="2" height="1" fill="#C3EEF9" />
<rect x="44" y="54" width="1" height="56" fill="#78F1FF" />
<rect x="45" y="54" width="2" height="1" fill="#000000" />
<rect x="65" y="54" width="2" height="1" fill="#000000" />
<rect x="67" y="54" width="1" height="56" fill="#78F1FF" />
<rect x="149" y="54" width="3" height="56" fill="#1F2D6C" />
<rect x="152" y="54" width="5" height="22" fill="#90FFB7" />
<rect x="157" y="54" width="3" height="56" fill="#1F2D6C" />
<rect x="160" y="54" width="9" height="5" fill="#302847" />
<rect x="11" y="55" width="1" height="3" fill="#C3EEF9" />
<rect x="12" y="55" width="1" height="1" fill="#FFFFFF" />
<rect x="13" y="55" width="3" height="1" fill="#C3EEF9" />
<rect x="16" y="55" width="1" height="1" fill="#FFFFFF" />
<rect x="17" y="55" width="1" height="1" fill="#C3EEF9" />
<rect x="29" y="55" width="1" height="1" fill="#000000" />
<rect x="45" y="55" width="2" height="55" fill="#1F2D6C" />
<rect x="65" y="55" width="2" height="55" fill="#1F2D6C" />
<rect x="98" y="55" width="1" height="12" fill="#0F1240" />
<rect x="148" y="55" width="1" height="2" fill="#1F2D6C" />
<rect x="9" y="56" width="1" height="1" fill="#FFFFFF" />
<rect x="10" y="56" width="1" height="1" fill="#C3EEF9" />
<rect x="12" y="56" width="1" height="3" fill="#C3EEF9" />
<rect x="13" y="56" width="1" height="1" fill="#FFFFFF" />
<rect x="14" y="56" width="3" height="1" fill="#C3EEF9" />
<rect x="17" y="56" width="1" height="1" fill="#FFFFFF" />
<rect x="30" y="56" width="4" height="1" fill="#000000" />
<rect x="34" y="56" width="5" height="1" fill="#0F1240" />
<rect x="39" y="56" width="1" height="1" fill="#000000" />
<rect x="47" y="56" width="1" height="54" fill="#1F2D6C" />
<rect x="48" y="56" width="6" height="3" fill="#000000" />
<rect x="54" y="56" width="4" height="54" fill="#1F2D6C" />
<rect x="58" y="56" width="6" height="2" fill="#EDFF78" />
<rect x="64" y="56" width="1" height="54" fill="#1F2D6C" />
<rect x="147" y="56" width="1" height="2" fill="#1F2D6C" />
<rect x="9" y="57" width="1" height="2" fill="#C3EEF9" />
<rect x="10" y="57" width="1" height="1" fill="#FFFFFF" />
<rect x="13" y="57" width="1" height="2" fill="#C3EEF9" />
<rect x="14" y="57" width="1" height="1" fill="#FFFFFF" />
<rect x="15" y="57" width="3" height="1" fill="#C3EEF9" />
<rect x="34" y="57" width="3" height="12" fill="#0F1240" />
<rect x="37" y="57" width="3" height="7" fill="#1F2D6C" />
<rect x="72" y="57" width="3" height="6" fill="#1F2D6C" />
<rect x="146" y="57" width="1" height="2" fill="#1F2D6C" />
<rect x="148" y="57" width="1" height="1" fill="#000000" />
<rect x="10" y="58" width="1" height="1" fill="#C3EEF9" />
<rect x="11" y="58" width="1" height="1" fill="#FFFFFF" />
<rect x="14" y="58" width="1" height="1" fill="#C3EEF9" />
<rect x="15" y="58" width="1" height="1" fill="#FFFFFF" />
<rect x="16" y="58" width="2" height="1" fill="#C3EEF9" />
<rect x="58" y="58" width="6" height="1" fill="#000000" />
<rect x="99" y="58" width="1" height="6" fill="#0F1240" />
<rect x="143" y="58" width="2" height="1" fill="#0F1240" />
<rect x="145" y="58" width="1" height="2" fill="#1F2D6C" />
<rect x="147" y="58" width="1" height="1" fill="#000000" />
<rect x="8" y="59" width="10" height="1" fill="#000000" />
<rect x="48" y="59" width="6" height="2" fill="#1F2D6C" />
<rect x="58" y="59" width="6" height="2" fill="#1F2D6C" />
<rect x="143" y="59" width="1" height="1" fill="#0F1240" />
<rect x="144" y="59" width="1" height="7" fill="#1F2D6C" />
<rect x="146" y="59" width="1" height="1" fill="#000000" />
<rect x="160" y="59" width="8" height="4" fill="#1F2D6C" />
<rect x="168" y="59" width="1" height="4" fill="#302847" />
<rect x="8" y="60" width="11" height="1" fill="#0F1240" />
<rect x="143" y="60" width="1" height="3" fill="#1F2D6C" />
<rect x="145" y="60" width="1" height="1" fill="#000000" />
<rect x="6" y="61" width="1" height="5" fill="#0F1240" />
<rect x="7" y="61" width="12" height="1" fill="#EDFF78" />
<rect x="48" y="61" width="6" height="2" fill="#EDFF78" />
<rect x="58" y="61" width="6" height="2" fill="#EDFF78" />
<rect x="115" y="61" width="28" height="2" fill="#1F2D6C" />
<rect x="145" y="61" width="1" height="5" fill="#1F2D6C" />
<rect x="7" y="62" width="1" height="4" fill="#0F1240" />
<rect x="8" y="62" width="12" height="1" fill="#000000" />
<rect x="8" y="63" width="12" height="3" fill="#0F1240" />
<rect x="48" y="63" width="6" height="1" fill="#000000" />
<rect x="58" y="63" width="6" height="1" fill="#000000" />
<rect x="72" y="63" width="3" height="1" fill="#000000" />
<rect x="115" y="63" width="2" height="3" fill="#1F2D6C" />
<rect x="117" y="63" width="27" height="1" fill="#FFCA78" />
<rect x="160" y="63" width="5" height="22" fill="#90FFB7" />
<rect x="165" y="63" width="28" height="4" fill="#1F2D6C" />
<rect x="37" y="64" width="3" height="1" fill="#000000" />
<rect x="48" y="64" width="6" height="2" fill="#1F2D6C" />
<rect x="58" y="64" width="6" height="2" fill="#1F2D6C" />
<rect x="72" y="64" width="3" height="5" fill="#0F1240" />
<rect x="82" y="64" width="7" height="2" fill="#1F2D6C" />
<rect x="89" y="64" width="2" height="29" fill="#0F1240" />
<rect x="99" y="64" width="1" height="1" fill="#000000" />
<rect x="117" y="64" width="27" height="2" fill="#1F2D6C" />
<rect x="5" y="65" width="1" height="1" fill="#000000" />
<rect x="20" y="65" width="1" height="26" fill="#000000" />
<rect x="37" y="65" width="2" height="4" fill="#0F1240" />
<rect x="39" y="65" width="1" height="2" fill="#000000" />
<rect x="104" y="65" width="5" height="2" fill="#1F2D6C" />
<rect x="6" y="66" width="8" height="1" fill="#000000" />
<rect x="14" y="66" width="6" height="1" fill="#0F1240" />
<rect x="48" y="66" width="6" height="2" fill="#EDFF78" />
<rect x="58" y="66" width="6" height="2" fill="#EDFF78" />
<rect x="82" y="66" width="2" height="44" fill="#1F2D6C" />
<rect x="84" y="66" width="5" height="1" fill="#78F1FF" />
<rect x="115" y="66" width="2" height="1" fill="#000000" />
<rect x="117" y="66" width="3" height="6" fill="#1F2D6C" />
<rect x="120" y="66" width="9" height="1" fill="#000000" />
<rect x="129" y="66" width="3" height="7" fill="#1F2D6C" />
<rect x="132" y="66" width="9" height="1" fill="#000000" />
<rect x="141" y="66" width="3" height="7" fill="#1F2D6C" />
<rect x="144" y="66" width="2" height="1" fill="#000000" />
<rect x="14" y="67" width="2" height="26" fill="#0F1240" />
<rect x="16" y="67" width="1" height="1" fill="#CFFFE0" />
<rect x="17" y="67" width="1" height="1" fill="#A8FFC7" />
<rect x="18" y="67" width="2" height="26" fill="#0F1240" />
<rect x="26" y="67" width="8" height="2" fill="#0F1240" />
<rect x="39" y="67" width="1" height="2" fill="#0F1240" />
<rect x="84" y="67" width="1" height="43" fill="#78F1FF" />
<rect x="85" y="67" width="3" height="42" fill="#1F2D6C" />
<rect x="88" y="67" width="1" height="43" fill="#78F1FF" />
<rect x="98" y="67" width="1" height="1" fill="#000000" />
<rect x="104" y="67" width="2" height="5" fill="#1F2D6C" />
<rect x="106" y="67" width="3" height="1" fill="#000000" />
<rect x="121" y="67" width="8" height="2" fill="#0F1240" />
<rect x="132" y="67" width="9" height="2" fill="#0F1240" />
<rect x="144" y="67" width="2" height="2" fill="#0F1240" />
<rect x="165" y="67" width="10" height="43" fill="#1F2D6C" />
<rect x="175" y="67" width="14" height="1" fill="#C65673" />
<rect x="189" y="67" width="4" height="43" fill="#1F2D6C" />
<rect x="16" y="68" width="1" height="1" fill="#A8FFC7" />
<rect x="17" y="68" width="1" height="1" fill="#90FFB7" />
<rect x="25" y="68" width="1" height="12" fill="#0F1240" />
<rect x="48" y="68" width="6" height="1" fill="#000000" />
<rect x="58" y="68" width="6" height="1" fill="#000000" />
<rect x="175" y="68" width="2" height="40" fill="#C65673" />
<rect x="177" y="68" width="1" height="1" fill="#F9F47B" />
<rect x="178" y="68" width="11" height="3" fill="#C65673" />
<rect x="16" y="69" width="2" height="2" fill="#0F1240" />
<rect x="26" y="69" width="2" height="8" fill="#0F1240" />
<rect x="28" y="69" width="12" height="1" fill="#FFFFFF" />
<rect x="48" y="69" width="6" height="2" fill="#1F2D6C" />
<rect x="58" y="69" width="6" height="2" fill="#1F2D6C" />
<rect x="72" y="69" width="1" height="1" fill="#000000" />
<rect x="73" y="69" width="2" height="1" fill="#0F1240" />
<rect x="97" y="69" width="1" height="1" fill="#000000" />
<rect x="99" y="69" width="5" height="3" fill="#1F2D6C" />
<rect x="106" y="69" width="11" height="3" fill="#1F2D6C" />
<rect x="120" y="69" width="9" height="4" fill="#1F2D6C" />
<rect x="132" y="69" width="9" height="4" fill="#1F2D6C" />
<rect x="144" y="69" width="5" height="4" fill="#1F2D6C" />
<rect x="177" y="69" width="1" height="7" fill="#C65673" />
<rect x="28" y="70" width="1" height="5" fill="#FFFFFF" />
<rect x="29" y="70" width="2" height="2" fill="#C3EEF9" />
<rect x="31" y="70" width="1" height="1" fill="#FFFFFF" />
<rect x="32" y="70" width="3" height="1" fill="#C3EEF9" />
<rect x="35" y="70" width="1" height="1" fill="#FFFFFF" />
<rect x="36" y="70" width="3" height="1" fill="#C3EEF9" />
<rect x="39" y="70" width="1" height="1" fill="#FFFFFF" />
<rect x="73" y="70" width="1" height="1" fill="#000000" />
<rect x="74" y="70" width="1" height="1" fill="#0F1240" />
<rect x="96" y="70" width="1" height="1" fill="#000000" />
<rect x="16" y="71" width="1" height="1" fill="#CFFFE0" />
<rect x="17" y="71" width="1" height="1" fill="#A8FFC7" />
<rect x="31" y="71" width="1" height="3" fill="#C3EEF9" />
<rect x="32" y="71" width="1" height="1" fill="#FFFFFF" />
<rect x="33" y="71" width="3" height="1" fill="#C3EEF9" />
<rect x="36" y="71" width="1" height="1" fill="#FFFFFF" />
<rect x="37" y="71" width="3" height="1" fill="#C3EEF9" />
<rect x="48" y="71" width="6" height="2" fill="#EDFF78" />
<rect x="58" y="71" width="6" height="3" fill="#000000" />
<rect x="74" y="71" width="1" height="1" fill="#000000" />
<rect x="95" y="71" width="1" height="1" fill="#000000" />
<rect x="178" y="71" width="2" height="10" fill="#C65673" />
<rect x="180" y="71" width="1" height="1" fill="#F9F47B" />
<rect x="181" y="71" width="3" height="5" fill="#C65673" />
<rect x="184" y="71" width="1" height="1" fill="#F9F47B" />
<rect x="185" y="71" width="4" height="15" fill="#C65673" />
<rect x="16" y="72" width="1" height="1" fill="#A8FFC7" />
<rect x="17" y="72" width="1" height="1" fill="#90FFB7" />
<rect x="29" y="72" width="1" height="1" fill="#FFFFFF" />
<rect x="30" y="72" width="1" height="1" fill="#C3EEF9" />
<rect x="32" y="72" width="1" height="3" fill="#C3EEF9" />
<rect x="33" y="72" width="1" height="1" fill="#FFFFFF" />
<rect x="34" y="72" width="3" height="1" fill="#C3EEF9" />
<rect x="37" y="72" width="1" height="1" fill="#FFFFFF" />
<rect x="38" y="72" width="2" height="1" fill="#C3EEF9" />
<rect x="75" y="72" width="1" height="1" fill="#000000" />
<rect x="94" y="72" width="1" height="1" fill="#000000" />
<rect x="99" y="72" width="3" height="38" fill="#1F2D6C" />
<rect x="102" y="72" width="3" height="1" fill="#BE78FF" />
<rect x="105" y="72" width="4" height="38" fill="#1F2D6C" />
<rect x="109" y="72" width="2" height="1" fill="#BE78FF" />
<rect x="111" y="72" width="1" height="3" fill="#211047" />
<rect x="112" y="72" width="4" height="1" fill="#1F2D6C" />
<rect x="116" y="72" width="3" height="1" fill="#BE78FF" />
<rect x="119" y="72" width="1" height="38" fill="#1F2D6C" />
<rect x="180" y="72" width="1" height="10" fill="#C65673" />
<rect x="184" y="72" width="1" height="6" fill="#C65673" />
<rect x="16" y="73" width="2" height="2" fill="#0F1240" />
<rect x="29" y="73" width="1" height="2" fill="#C3EEF9" />
<rect x="30" y="73" width="1" height="1" fill="#FFFFFF" />
<rect x="33" y="73" width="1" height="2" fill="#C3EEF9" />
<rect x="34" y="73" width="1" height="1" fill="#FFFFFF" />
<rect x="35" y="73" width="2" height="1" fill="#C3EEF9" />
<rect x="37" y="73" width="3" height="7" fill="#1F2D6C" />
<rect x="48" y="73" width="6" height="1" fill="#000000" />
<rect x="72" y="73" width="3" height="6" fill="#1F2D6C" />
<rect x="76" y="73" width="1" height="1" fill="#000000" />
<rect x="93" y="73" width="1" height="1" fill="#000000" />
<rect x="95" y="73" width="4" height="2" fill="#1F2D6C" />
<rect x="102" y="73" width="3" height="3" fill="#1F2D6C" />
<rect x="109" y="73" width="1" height="3" fill="#1F2D6C" />
<rect x="110" y="73" width="1" height="1" fill="#211047" />
<rect x="112" y="73" width="1" height="1" fill="#211047" />
<rect x="113" y="73" width="6" height="3" fill="#1F2D6C" />
<rect x="120" y="73" width="2" height="37" fill="#1F2D6C" />
<rect x="122" y="73" width="27" height="1" fill="#000000" />
<rect x="30" y="74" width="1" height="1" fill="#C3EEF9" />
<rect x="31" y="74" width="1" height="1" fill="#FFFFFF" />
<rect x="34" y="74" width="1" height="1" fill="#C3EEF9" />
<rect x="35" y="74" width="1" height="1" fill="#FFFFFF" />
<rect x="36" y="74" width="1" height="1" fill="#C3EEF9" />
<rect x="48" y="74" width="6" height="2" fill="#1F2D6C" />
<rect x="58" y="74" width="6" height="2" fill="#1F2D6C" />
<rect x="77" y="74" width="2" height="1" fill="#000000" />
<rect x="91" y="74" width="2" height="1" fill="#000000" />
<rect x="110" y="74" width="1" height="2" fill="#1F2D6C" />
<rect x="112" y="74" width="1" height="36" fill="#1F2D6C" />
<rect x="122" y="74" width="24" height="11" fill="#0F1240" />
<rect x="16" y="75" width="1" height="1" fill="#CFFFE0" />
<rect x="17" y="75" width="1" height="1" fill="#A8FFC7" />
<rect x="28" y="75" width="9" height="1" fill="#000000" />
<rect x="95" y="75" width="2" height="5" fill="#1F2D6C" />
<rect x="97" y="75" width="2" height="1" fill="#000000" />
<rect x="111" y="75" width="1" height="1" fill="#1F2D6C" />
<rect x="16" y="76" width="1" height="1" fill="#A8FFC7" />
<rect x="17" y="76" width="1" height="1" fill="#90FFB7" />
<rect x="28" y="76" width="9" height="1" fill="#0F1240" />
<rect x="48" y="76" width="6" height="2" fill="#EDFF78" />
<rect x="58" y="76" width="6" height="2" fill="#EDFF78" />
<rect x="102" y="76" width="3" height="1" fill="#BE78FF" />
<rect x="109" y="76" width="3" height="1" fill="#BE78FF" />
<rect x="113" y="76" width="3" height="34" fill="#1F2D6C" />
<rect x="116" y="76" width="3" height="1" fill="#BE78FF" />
<rect x="152" y="76" width="5" height="5" fill="#1F2D6C" />
<rect x="177" y="76" width="1" height="1" fill="#F9F47B" />
<rect x="181" y="76" width="1" height="18" fill="#C65673" />
<rect x="182" y="76" width="1" height="1" fill="#F9F47B" />
<rect x="183" y="76" width="1" height="22" fill="#C65673" />
<rect x="16" y="77" width="2" height="2" fill="#0F1240" />
<rect x="26" y="77" width="1" height="4" fill="#0F1240" />
<rect x="27" y="77" width="10" height="1" fill="#C65673" />
<rect x="102" y="77" width="3" height="3" fill="#1F2D6C" />
<rect x="109" y="77" width="3" height="3" fill="#1F2D6C" />
<rect x="116" y="77" width="3" height="3" fill="#1F2D6C" />
<rect x="177" y="77" width="1" height="31" fill="#C65673" />
<rect x="182" y="77" width="1" height="9" fill="#C65673" />
<rect x="27" y="78" width="1" height="3" fill="#0F1240" />
<rect x="28" y="78" width="9" height="1" fill="#000000" />
<rect x="48" y="78" width="6" height="1" fill="#000000" />
<rect x="58" y="78" width="6" height="1" fill="#000000" />
<rect x="97" y="78" width="2" height="2" fill="#1F2D6C" />
<rect x="184" y="78" width="1" height="1" fill="#F9F47B" />
<rect x="16" y="79" width="1" height="1" fill="#CFFFE0" />
<rect x="17" y="79" width="1" height="1" fill="#A8FFC7" />
<rect x="28" y="79" width="9" height="2" fill="#0F1240" />
<rect x="48" y="79" width="6" height="2" fill="#1F2D6C" />
<rect x="58" y="79" width="6" height="2" fill="#1F2D6C" />
<rect x="72" y="79" width="3" height="1" fill="#000000" />
<rect x="184" y="79" width="1" height="29" fill="#C65673" />
<rect x="16" y="80" width="1" height="1" fill="#A8FFC7" />
<rect x="17" y="80" width="1" height="1" fill="#90FFB7" />
<rect x="25" y="80" width="1" height="1" fill="#000000" />
<rect x="37" y="80" width="3" height="1" fill="#000000" />
<rect x="95" y="80" width="4" height="1" fill="#000000" />
<rect x="102" y="80" width="3" height="1" fill="#BE78FF" />
<rect x="109" y="80" width="3" height="1" fill="#BE78FF" />
<rect x="116" y="80" width="3" height="1" fill="#BE78FF" />
<rect x="16" y="81" width="2" height="2" fill="#0F1240" />
<rect x="26" y="81" width="8" height="1" fill="#000000" />
<rect x="34" y="81" width="2" height="22" fill="#0F1240" />
<rect x="36" y="81" width="1" height="1" fill="#C65673" />
<rect x="37" y="81" width="2" height="7" fill="#0F1240" />
<rect x="39" y="81" width="1" height="7" fill="#000000" />
<rect x="48" y="81" width="6" height="3" fill="#000000" />
<rect x="58" y="81" width="6" height="3" fill="#000000" />
<rect x="102" y="81" width="3" height="3" fill="#1F2D6C" />
<rect x="109" y="81" width="3" height="3" fill="#1F2D6C" />
<rect x="116" y="81" width="3" height="3" fill="#1F2D6C" />
<rect x="152" y="81" width="5" height="22" fill="#90FFB7" />
<rect x="178" y="81" width="1" height="1" fill="#F9F47B" />
<rect x="179" y="81" width="1" height="27" fill="#C65673" />
<rect x="36" y="82" width="1" height="1" fill="#0F1240" />
<rect x="178" y="82" width="1" height="8" fill="#C65673" />
<rect x="180" y="82" width="1" height="1" fill="#F9F47B" />
<rect x="16" y="83" width="1" height="1" fill="#CFFFE0" />
<rect x="17" y="83" width="1" height="1" fill="#A8FFC7" />
<rect x="36" y="83" width="1" height="1" fill="#C65673" />
<rect x="180" y="83" width="1" height="4" fill="#C65673" />
<rect x="16" y="84" width="1" height="1" fill="#A8FFC7" />
<rect x="17" y="84" width="1" height="1" fill="#90FFB7" />
<rect x="36" y="84" width="1" height="1" fill="#0F1240" />
<rect x="48" y="84" width="6" height="2" fill="#1F2D6C" />
<rect x="58" y="84" width="6" height="2" fill="#1F2D6C" />
<rect x="102" y="84" width="3" height="1" fill="#BE78FF" />
<rect x="109" y="84" width="3" height="1" fill="#BE78FF" />
<rect x="116" y="84" width="3" height="1" fill="#BE78FF" />
<rect x="16" y="85" width="2" height="2" fill="#0F1240" />
<rect x="36" y="85" width="1" height="1" fill="#C65673" />
<rect x="72" y="85" width="10" height="3" fill="#1F2D6C" />
<rect x="102" y="85" width="3" height="3" fill="#1F2D6C" />
<rect x="109" y="85" width="3" height="3" fill="#1F2D6C" />
<rect x="116" y="85" width="3" height="3" fill="#1F2D6C" />
<rect x="122" y="85" width="12" height="25" fill="#0F1240" />
<rect x="134" y="85" width="15" height="3" fill="#1F2D6C" />
<rect x="160" y="85" width="5" height="5" fill="#1F2D6C" />
<rect x="36" y="86" width="1" height="1" fill="#0F1240" />
<rect x="48" y="86" width="6" height="2" fill="#EDFF78" />
<rect x="58" y="86" width="6" height="2" fill="#EDFF78" />
<rect x="182" y="86" width="1" height="1" fill="#F9F47B" />
<rect x="185" y="86" width="1" height="12" fill="#C65673" />
<rect x="186" y="86" width="1" height="1" fill="#F9F47B" />
<rect x="187" y="86" width="2" height="22" fill="#C65673" />
<rect x="16" y="87" width="1" height="1" fill="#CFFFE0" />
<rect x="17" y="87" width="1" height="1" fill="#A8FFC7" />
<rect x="36" y="87" width="1" height="1" fill="#C65673" />
<rect x="95" y="87" width="4" height="2" fill="#1F2D6C" />
<rect x="180" y="87" width="1" height="1" fill="#F9F47B" />
<rect x="182" y="87" width="1" height="3" fill="#C65673" />
<rect x="186" y="87" width="1" height="21" fill="#C65673" />
<rect x="16" y="88" width="1" height="1" fill="#A8FFC7" />
<rect x="17" y="88" width="1" height="1" fill="#90FFB7" />
<rect x="36" y="88" width="1" height="1" fill="#0F1240" />
<rect x="37" y="88" width="3" height="7" fill="#1F2D6C" />
<rect x="48" y="88" width="6" height="1" fill="#000000" />
<rect x="58" y="88" width="6" height="1" fill="#000000" />
<rect x="72" y="88" width="1" height="22" fill="#1F2D6C" />
<rect x="73" y="88" width="3" height="10" fill="#FFCA78" />
<rect x="76" y="88" width="3" height="22" fill="#1F2D6C" />
<rect x="79" y="88" width="3" height="10" fill="#FFCA78" />
<rect x="102" y="88" width="3" height="1" fill="#BE78FF" />
<rect x="109" y="88" width="3" height="1" fill="#BE78FF" />
<rect x="116" y="88" width="3" height="1" fill="#BE78FF" />
<rect x="134" y="88" width="3" height="22" fill="#1F2D6C" />
<rect x="137" y="88" width="3" height="3" fill="#EDFF78" />
<rect x="140" y="88" width="6" height="22" fill="#1F2D6C" />
<rect x="146" y="88" width="3" height="3" fill="#EDFF78" />
<rect x="180" y="88" width="1" height="15" fill="#C65673" />
<rect x="16" y="89" width="2" height="4" fill="#0F1240" />
<rect x="36" y="89" width="1" height="1" fill="#C65673" />
<rect x="48" y="89" width="6" height="2" fill="#1F2D6C" />
<rect x="58" y="89" width="6" height="2" fill="#1F2D6C" />
<rect x="95" y="89" width="2" height="6" fill="#1F2D6C" />
<rect x="97" y="89" width="2" height="4" fill="#78F1FF" />
<rect x="102" y="89" width="3" height="3" fill="#1F2D6C" />
<rect x="109" y="89" width="3" height="3" fill="#1F2D6C" />
<rect x="116" y="89" width="3" height="3" fill="#1F2D6C" />
<rect x="36" y="90" width="1" height="1" fill="#0F1240" />
<rect x="91" y="90" width="4" height="3" fill="#0F1240" />
<rect x="160" y="90" width="5" height="20" fill="#90FFB7" />
<rect x="178" y="90" width="1" height="1" fill="#F9F47B" />
<rect x="182" y="90" width="1" height="1" fill="#F9F47B" />
<rect x="12" y="91" width="2" height="10" fill="#0F1240" />
<rect x="20" y="91" width="6" height="2" fill="#0F1240" />
<rect x="36" y="91" width="1" height="1" fill="#C65673" />
<rect x="48" y="91" width="6" height="2" fill="#EDFF78" />
<rect x="58" y="91" width="6" height="2" fill="#EDFF78" />
<rect x="137" y="91" width="3" height="1" fill="#000000" />
<rect x="146" y="91" width="3" height="1" fill="#000000" />
<rect x="178" y="91" width="1" height="4" fill="#C65673" />
<rect x="182" y="91" width="1" height="17" fill="#C65673" />
<rect x="11" y="92" width="1" height="13" fill="#0F1240" />
<rect x="26" y="92" width="1" height="13" fill="#0F1240" />
<rect x="36" y="92" width="1" height="1" fill="#0F1240" />
<rect x="102" y="92" width="3" height="1" fill="#BE78FF" />
<rect x="109" y="92" width="3" height="1" fill="#BE78FF" />
<rect x="116" y="92" width="3" height="1" fill="#BE78FF" />
<rect x="137" y="92" width="3" height="5" fill="#1F2D6C" />
<rect x="146" y="92" width="3" height="5" fill="#1F2D6C" />
<rect x="14" y="93" width="10" height="1" fill="#FFFFFF" />
<rect x="24" y="93" width="1" height="7" fill="#000000" />
<rect x="25" y="93" width="1" height="9" fill="#0F1240" />
<rect x="27" y="93" width="1" height="6" fill="#000000" />
<rect x="36" y="93" width="1" height="1" fill="#C65673" />
<rect x="48" y="93" width="6" height="1" fill="#000000" />
<rect x="58" y="93" width="6" height="1" fill="#000000" />
<rect x="89" y="93" width="6" height="2" fill="#1F2D6C" />
<rect x="97" y="93" width="2" height="2" fill="#1F2D6C" />
<rect x="102" y="93" width="3" height="3" fill="#1F2D6C" />
<rect x="109" y="93" width="3" height="3" fill="#1F2D6C" />
<rect x="116" y="93" width="3" height="3" fill="#1F2D6C" />
<rect x="14" y="94" width="1" height="5" fill="#FFFFFF" />
<rect x="15" y="94" width="2" height="2" fill="#C3EEF9" />
<rect x="17" y="94" width="1" height="1" fill="#FFFFFF" />
<rect x="18" y="94" width="3" height="1" fill="#C3EEF9" />
<rect x="21" y="94" width="1" height="1" fill="#FFFFFF" />
<rect x="22" y="94" width="2" height="1" fill="#C3EEF9" />
<rect x="36" y="94" width="1" height="1" fill="#0F1240" />
<rect x="48" y="94" width="6" height="2" fill="#1F2D6C" />
<rect x="58" y="94" width="6" height="2" fill="#1F2D6C" />
<rect x="181" y="94" width="1" height="1" fill="#F9F47B" />
<rect x="17" y="95" width="1" height="3" fill="#C3EEF9" />
<rect x="18" y="95" width="1" height="1" fill="#FFFFFF" />
<rect x="19" y="95" width="3" height="1" fill="#C3EEF9" />
<rect x="22" y="95" width="1" height="1" fill="#FFFFFF" />
<rect x="23" y="95" width="1" height="1" fill="#C3EEF9" />
<rect x="36" y="95" width="1" height="1" fill="#C65673" />
<rect x="37" y="95" width="3" height="1" fill="#000000" />
<rect x="89" y="95" width="1" height="5" fill="#1F2D6C" />
<rect x="90" y="95" width="8" height="2" fill="#FF789B" />
<rect x="98" y="95" width="1" height="5" fill="#1F2D6C" />
<rect x="178" y="95" width="1" height="1" fill="#F9F47B" />
<rect x="181" y="95" width="1" height="13" fill="#C65673" />
<rect x="15" y="96" width="1" height="1" fill="#FFFFFF" />
<rect x="16" y="96" width="1" height="1" fill="#C3EEF9" />
<rect x="18" y="96" width="1" height="3" fill="#C3EEF9" />
<rect x="19" y="96" width="1" height="1" fill="#FFFFFF" />
<rect x="20" y="96" width="3" height="1" fill="#C3EEF9" />
<rect x="23" y="96" width="1" height="1" fill="#FFFFFF" />
<rect x="36" y="96" width="3" height="1" fill="#0F1240" />
<rect x="39" y="96" width="1" height="3" fill="#000000" />
<rect x="48" y="96" width="6" height="3" fill="#000000" />
<rect x="58" y="96" width="6" height="2" fill="#EDFF78" />
<rect x="102" y="96" width="3" height="1" fill="#BE78FF" />
<rect x="109" y="96" width="3" height="1" fill="#BE78FF" />
<rect x="116" y="96" width="3" height="1" fill="#BE78FF" />
<rect x="178" y="96" width="1" height="3" fill="#C65673" />
<rect x="15" y="97" width="1" height="2" fill="#C3EEF9" />
<rect x="16" y="97" width="1" height="1" fill="#FFFFFF" />
<rect x="19" y="97" width="1" height="2" fill="#C3EEF9" />
<rect x="20" y="97" width="1" height="1" fill="#FFFFFF" />
<rect x="21" y="97" width="3" height="1" fill="#C3EEF9" />
<rect x="36" y="97" width="1" height="1" fill="#C65673" />
<rect x="37" y="97" width="2" height="6" fill="#0F1240" />
<rect x="90" y="97" width="8" height="1" fill="#000000" />
<rect x="102" y="97" width="3" height="3" fill="#1F2D6C" />
<rect x="109" y="97" width="3" height="3" fill="#1F2D6C" />
<rect x="116" y="97" width="3" height="3" fill="#1F2D6C" />
<rect x="137" y="97" width="3" height="3" fill="#EDFF78" />
<rect x="146" y="97" width="3" height="3" fill="#EDFF78" />
<rect x="16" y="98" width="1" height="1" fill="#C3EEF9" />
<rect x="17" y="98" width="1" height="1" fill="#FFFFFF" />
<rect x="20" y="98" width="1" height="1" fill="#C3EEF9" />
<rect x="21" y="98" width="1" height="1" fill="#FFFFFF" />
<rect x="22" y="98" width="2" height="1" fill="#C3EEF9" />
<rect x="36" y="98" width="1" height="5" fill="#0F1240" />
<rect x="58" y="98" width="6" height="1" fill="#000000" />
<rect x="73" y="98" width="3" height="4" fill="#1F2D6C" />
<rect x="79" y="98" width="3" height="4" fill="#1F2D6C" />
<rect x="90" y="98" width="8" height="2" fill="#1F2D6C" />
<rect x="183" y="98" width="1" height="1" fill="#F9F47B" />
<rect x="185" y="98" width="1" height="1" fill="#F9F47B" />
<rect x="14" y="99" width="10" height="1" fill="#000000" />
<rect x="27" y="99" width="7" height="4" fill="#0F1240" />
<rect x="39" y="99" width="1" height="4" fill="#0F1240" />
<rect x="48" y="99" width="6" height="2" fill="#1F2D6C" />
<rect x="58" y="99" width="6" height="2" fill="#1F2D6C" />
<rect x="178" y="99" width="1" height="1" fill="#F9F47B" />
<rect x="183" y="99" width="1" height="4" fill="#C65673" />
<rect x="185" y="99" width="1" height="9" fill="#C65673" />
<rect x="14" y="100" width="11" height="1" fill="#0F1240" />
<rect x="89" y="100" width="10" height="1" fill="#000000" />
<rect x="102" y="100" width="3" height="1" fill="#BE78FF" />
<rect x="109" y="100" width="3" height="1" fill="#BE78FF" />
<rect x="116" y="100" width="3" height="1" fill="#BE78FF" />
<rect x="137" y="100" width="3" height="1" fill="#000000" />
<rect x="146" y="100" width="3" height="1" fill="#000000" />
<rect x="178" y="100" width="1" height="8" fill="#C65673" />
<rect x="12" y="101" width="1" height="5" fill="#0F1240" />
<rect x="13" y="101" width="12" height="1" fill="#FFCA78" />
<rect x="48" y="101" width="6" height="2" fill="#EDFF78" />
<rect x="58" y="101" width="6" height="2" fill="#EDFF78" />
<rect x="89" y="101" width="10" height="1" fill="#0F1240" />
<rect x="102" y="101" width="3" height="3" fill="#1F2D6C" />
<rect x="109" y="101" width="3" height="3" fill="#1F2D6C" />
<rect x="116" y="101" width="3" height="3" fill="#1F2D6C" />
<rect x="137" y="101" width="3" height="5" fill="#1F2D6C" />
<rect x="146" y="101" width="3" height="5" fill="#1F2D6C" />
<rect x="13" y="102" width="1" height="4" fill="#0F1240" />
<rect x="14" y="102" width="12" height="1" fill="#000000" />
<rect x="73" y="102" width="3" height="4" fill="#FFCA78" />
<rect x="79" y="102" width="3" height="4" fill="#FFCA78" />
<rect x="89" y="102" width="2" height="8" fill="#0F1240" />
<rect x="91" y="102" width="8" height="1" fill="#000000" />
<rect x="14" y="103" width="12" height="3" fill="#0F1240" />
<rect x="27" y="103" width="10" height="1" fill="#000000" />
<rect x="37" y="103" width="3" height="7" fill="#1F2D6C" />
<rect x="48" y="103" width="6" height="1" fill="#000000" />
<rect x="58" y="103" width="6" height="1" fill="#000000" />
<rect x="152" y="103" width="5" height="5" fill="#1F2D6C" />
<rect x="180" y="103" width="1" height="1" fill="#F9F47B" />
<rect x="183" y="103" width="1" height="1" fill="#F9F47B" />
<rect x="27" y="104" width="1" height="2" fill="#000000" />
<rect x="48" y="104" width="6" height="2" fill="#1F2D6C" />
<rect x="58" y="104" width="6" height="2" fill="#1F2D6C" />
<rect x="102" y="104" width="3" height="1" fill="#BE78FF" />
<rect x="109" y="104" width="3" height="1" fill="#BE78FF" />
<rect x="116" y="104" width="3" height="1" fill="#BE78FF" />
<rect x="180" y="104" width="1" height="4" fill="#C65673" />
<rect x="183" y="104" width="1" height="4" fill="#C65673" />
<rect x="11" y="105" width="1" height="1" fill="#000000" />
<rect x="26" y="105" width="1" height="2" fill="#000000" />
<rect x="102" y="105" width="3" height="3" fill="#1F2D6C" />
<rect x="109" y="105" width="3" height="3" fill="#1F2D6C" />
<rect x="116" y="105" width="3" height="3" fill="#1F2D6C" />
<rect x="12" y="106" width="14" height="1" fill="#000000" />
<rect x="48" y="106" width="6" height="2" fill="#EDFF78" />
<rect x="58" y="106" width="6" height="2" fill="#EDFF78" />
<rect x="73" y="106" width="3" height="4" fill="#1F2D6C" />
<rect x="79" y="106" width="3" height="4" fill="#1F2D6C" />
<rect x="137" y="106" width="3" height="3" fill="#EDFF78" />
<rect x="146" y="106" width="3" height="3" fill="#EDFF78" />
<rect x="48" y="108" width="6" height="1" fill="#000000" />
<rect x="58" y="108" width="6" height="1" fill="#000000" />
<rect x="102" y="108" width="3" height="1" fill="#BE78FF" />
<rect x="109" y="108" width="3" height="1" fill="#BE78FF" />
<rect x="116" y="108" width="3" height="1" fill="#BE78FF" />
<rect x="152" y="108" width="5" height="2" fill="#90FFB7" />
<rect x="175" y="108" width="14" height="2" fill="#1F2D6C" />
<rect x="48" y="109" width="6" height="1" fill="#1F2D6C" />
<rect x="58" y="109" width="6" height="1" fill="#1F2D6C" />
<rect x="85" y="109" width="3" height="1" fill="#78F1FF" />
<rect x="102" y="109" width="3" height="1" fill="#1F2D6C" />
<rect x="109" y="109" width="3" height="1" fill="#1F2D6C" />
<rect x="116" y="109" width="3" height="1" fill="#1F2D6C" />
<rect x="137" y="109" width="3" height="1" fill="#000000" />
<rect x="146" y="109" width="3" height="1" fill="#000000" />
</svg>