<?xml version="1.0" encoding="UTF-8" ?>
<svg version="1.1" width="178" height="108" xmlns="http://www.w3.org/2000/svg" shape-rendering="crispEdges">
<rect x="0" y="0" width="178" height="4" fill="#0F1240" />
<rect x="0" y="4" width="118" height="1" fill="#0F1240" />
<rect x="118" y="4" width="50" height="2" fill="#C65673" />
<rect x="168" y="4" width="10" height="2" fill="#0F1240" />
<rect x="0" y="5" width="10" height="2" fill="#0F1240" />
<rect x="10" y="5" width="97" height="2" fill="#78F1FF" />
<rect x="107" y="5" width="11" height="1" fill="#0F1240" />
<rect x="107" y="6" width="9" height="1" fill="#0F1240" />
<rect x="116" y="6" width="4" height="2" fill="#C65673" />
<rect x="120" y="6" width="46" height="7" fill="#0F1240" />
<rect x="166" y="6" width="4" height="2" fill="#C65673" />
<rect x="170" y="6" width="8" height="102" fill="#0F1240" />
<rect x="0" y="7" width="8" height="101" fill="#0F1240" />
<rect x="8" y="7" width="2" height="44" fill="#78F1FF" />
<rect x="10" y="7" width="97" height="5" fill="#0F1240" />
<rect x="107" y="7" width="2" height="44" fill="#78F1FF" />
<rect x="109" y="7" width="7" height="101" fill="#0F1240" />
<rect x="116" y="8" width="2" height="94" fill="#C65673" />
<rect x="118" y="8" width="2" height="92" fill="#0F1240" />
<rect x="166" y="8" width="2" height="92" fill="#0F1240" />
<rect x="168" y="8" width="2" height="94" fill="#C65673" />
<rect x="10" y="12" width="4" height="39" fill="#0F1240" />
<rect x="14" y="12" width="10" height="2" fill="#FFFFFF" />
<rect x="24" y="12" width="2" height="25" fill="#0F1240" />
<rect x="26" y="12" width="3" height="17" fill="#FFFFFF" />
<rect x="29" y="12" width="6" height="8" fill="#0F1240" />
<rect x="35" y="12" width="3" height="17" fill="#FFFFFF" />
<rect x="38" y="12" width="2" height="27" fill="#0F1240" />
<rect x="40" y="12" width="12" height="2" fill="#FFFFFF" />
<rect x="52" y="12" width="2" height="39" fill="#0F1240" />
<rect x="54" y="12" width="12" height="2" fill="#FFFFFF" />
<rect x="66" y="12" width="2" height="27" fill="#0F1240" />
<rect x="68" y="12" width="11" height="2" fill="#FFFFFF" />
<rect x="79" y="12" width="2" height="39" fill="#0F1240" />
<rect x="81" y="12" width="9" height="2" fill="#FFFFFF" />
<rect x="90" y="12" width="2" height="22" fill="#0F1240" />
<rect x="92" y="12" width="11" height="2" fill="#FFFFFF" />
<rect x="103" y="12" width="4" height="39" fill="#0F1240" />
<rect x="120" y="13" width="4" height="89" fill="#0F1240" />
<rect x="124" y="13" width="9" height="2" fill="#FFFFFF" />
<rect x="133" y="13" width="2" height="24" fill="#0F1240" />
<rect x="135" y="13" width="12" height="2" fill="#FFFFFF" />
<rect x="147" y="13" width="4" height="31" fill="#0F1240" />
<rect x="151" y="13" width="11" height="2" fill="#FFFFFF" />
<rect x="162" y="13" width="4" height="89" fill="#0F1240" />
<rect x="14" y="14" width="3" height="8" fill="#FFFFFF" />
<rect x="17" y="14" width="7" height="6" fill="#0F1240" />
<rect x="40" y="14" width="3" height="15" fill="#FFFFFF" />
<rect x="43" y="14" width="6" height="13" fill="#0F1240" />
<rect x="49" y="14" width="3" height="15" fill="#FFFFFF" />
<rect x="54" y="14" width="3" height="15" fill="#FFFFFF" />
<rect x="57" y="14" width="6" height="13" fill="#0F1240" />
<rect x="63" y="14" width="3" height="15" fill="#FFFFFF" />
<rect x="68" y="14" width="4" height="26" fill="#0F1240" />
<rect x="72" y="14" width="3" height="15" fill="#FFFFFF" />
<rect x="75" y="14" width="4" height="37" fill="#0F1240" />
<rect x="81" y="14" width="3" height="15" fill="#FFFFFF" />
<rect x="84" y="14" width="6" height="6" fill="#0F1240" />
<rect x="92" y="14" width="3" height="15" fill="#FFFFFF" />
<rect x="95" y="14" width="5" height="5" fill="#0F1240" />
<rect x="100" y="14" width="3" height="7" fill="#FFFFFF" />
<rect x="124" y="15" width="2" height="9" fill="#FFFFFF" />
<rect x="126" y="15" width="7" height="22" fill="#0F1240" />
<rect x="135" y="15" width="2" height="16" fill="#FFFFFF" />
<rect x="137" y="15" width="8" height="7" fill="#0F1240" />
<rect x="145" y="15" width="2" height="9" fill="#FFFFFF" />
<rect x="151" y="15" width="2" height="9" fill="#FFFFFF" />
<rect x="153" y="15" width="7" height="7" fill="#0F1240" />
<rect x="160" y="15" width="2" height="16" fill="#FFFFFF" />
<rect x="95" y="19" width="5" height="2" fill="#FFFFFF" />
<rect x="17" y="20" width="7" height="2" fill="#FFFFFF" />
<rect x="29" y="20" width="6" height="2" fill="#FFFFFF" />
<rect x="84" y="20" width="6" height="2" fill="#FFFFFF" />
<rect x="95" y="21" width="2" height="3" fill="#FFFFFF" />
<rect x="97" y="21" width="6" height="1" fill="#0F1240" />
<rect x="14" y="22" width="7" height="5" fill="#0F1240" />
<rect x="21" y="22" width="3" height="7" fill="#FFFFFF" />
<rect x="29" y="22" width="6" height="18" fill="#0F1240" />
<rect x="84" y="22" width="6" height="5" fill="#0F1240" />
<rect x="97" y="22" width="1" height="4" fill="#FFFFFF" />
<rect x="98" y="22" width="5" height="1" fill="#0F1240" />
<rect x="137" y="22" width="8" height="2" fill="#FFFFFF" />
<rect x="153" y="22" width="7" height="2" fill="#FFFFFF" />
<rect x="98" y="23" width="1" height="4" fill="#FFFFFF" />
<rect x="99" y="23" width="4" height="1" fill="#0F1240" />
<rect x="95" y="24" width="1" height="13" fill="#0F1240" />
<rect x="96" y="24" width="1" height="1" fill="#FFFFFF" />
<rect x="99" y="24" width="1" height="4" fill="#FFFFFF" />
<rect x="100" y="24" width="3" height="1" fill="#0F1240" />
<rect x="124" y="24" width="2" height="78" fill="#0F1240" />
<rect x="137" y="24" width="10" height="31" fill="#0F1240" />
<rect x="151" y="24" width="9" height="5" fill="#0F1240" />
<rect x="96" y="25" width="1" height="13" fill="#0F1240" />
<rect x="100" y="25" width="1" height="4" fill="#FFFFFF" />
<rect x="101" y="25" width="2" height="1" fill="#0F1240" />
<rect x="97" y="26" width="1" height="25" fill="#0F1240" />
<rect x="101" y="26" width="1" height="3" fill="#FFFFFF" />
<rect x="102" y="26" width="1" height="1" fill="#0F1240" />
<rect x="14" y="27" width="7" height="2" fill="#FFFFFF" />
<rect x="43" y="27" width="6" height="2" fill="#FFFFFF" />
<rect x="57" y="27" width="6" height="2" fill="#FFFFFF" />
<rect x="84" y="27" width="6" height="2" fill="#FFFFFF" />
<rect x="98" y="27" width="1" height="24" fill="#0F1240" />
<rect x="102" y="27" width="1" height="2" fill="#FFFFFF" />
<rect x="99" y="28" width="1" height="23" fill="#0F1240" />
<rect x="14" y="29" width="10" height="8" fill="#0F1240" />
<rect x="26" y="29" width="3" height="9" fill="#0F1240" />
<rect x="35" y="29" width="3" height="22" fill="#0F1240" />
<rect x="40" y="29" width="12" height="11" fill="#0F1240" />
<rect x="54" y="29" width="12" height="22" fill="#0F1240" />
<rect x="72" y="29" width="3" height="22" fill="#0F1240" />
<rect x="81" y="29" width="9" height="5" fill="#0F1240" />
<rect x="92" y="29" width="3" height="5" fill="#0F1240" />
<rect x="100" y="29" width="3" height="22" fill="#0F1240" />
<rect x="151" y="29" width="9" height="2" fill="#FFFFFF" />
<rect x="135" y="31" width="2" height="44" fill="#0F1240" />
<rect x="151" y="31" width="11" height="13" fill="#0F1240" />
<rect x="81" y="34" width="7" height="1" fill="#0F1240" />
<rect x="88" y="34" width="5" height="1" fill="#FFFFFF" />
<rect x="93" y="34" width="2" height="1" fill="#0F1240" />
<rect x="81" y="35" width="6" height="1" fill="#0F1240" />
<rect x="87" y="35" width="1" height="1" fill="#FFFFFF" />
<rect x="88" y="35" width="5" height="11" fill="#0F1240" />
<rect x="93" y="35" width="1" height="1" fill="#FFFFFF" />
<rect x="94" y="35" width="1" height="1" fill="#0F1240" />
<rect x="81" y="36" width="5" height="1" fill="#0F1240" />
<rect x="86" y="36" width="1" height="1" fill="#FFFFFF" />
<rect x="87" y="36" width="1" height="9" fill="#0F1240" />
<rect x="93" y="36" width="1" height="9" fill="#0F1240" />
<rect x="94" y="36" width="1" height="1" fill="#FFFFFF" />
<rect x="14" y="37" width="9" height="14" fill="#0F1240" />
<rect x="23" y="37" width="2" height="1" fill="#FFFFFF" />
<rect x="25" y="37" width="1" height="1" fill="#0F1240" />
<rect x="81" y="37" width="4" height="1" fill="#0F1240" />
<rect x="85" y="37" width="1" height="1" fill="#FFFFFF" />
<rect x="86" y="37" width="1" height="7" fill="#0F1240" />
<rect x="94" y="37" width="1" height="7" fill="#0F1240" />
<rect x="95" y="37" width="1" height="1" fill="#FFFFFF" />
<rect x="126" y="37" width="4" height="1" fill="#0F1240" />
<rect x="130" y="37" width="4" height="5" fill="#FFFFFF" />
<rect x="134" y="37" width="1" height="1" fill="#0F1240" />
<rect x="23" y="38" width="1" height="6" fill="#FFFFFF" />
<rect x="24" y="38" width="1" height="5" fill="#0F1240" />
<rect x="25" y="38" width="2" height="1" fill="#FFFFFF" />
<rect x="27" y="38" width="2" height="1" fill="#0F1240" />
<rect x="81" y="38" width="3" height="13" fill="#0F1240" />
<rect x="84" y="38" width="1" height="5" fill="#FFFFFF" />
<rect x="85" y="38" width="1" height="5" fill="#0F1240" />
<rect x="95" y="38" width="1" height="5" fill="#0F1240" />
<rect x="96" y="38" width="1" height="5" fill="#FFFFFF" />
<rect x="126" y="38" width="3" height="15" fill="#0F1240" />
<rect x="129" y="38" width="1" height="3" fill="#FFFFFF" />
<rect x="134" y="38" width="1" height="3" fill="#FFFFFF" />
<rect x="25" y="39" width="2" height="3" fill="#0F1240" />
<rect x="27" y="39" width="2" height="1" fill="#FFFFFF" />
<rect x="38" y="39" width="1" height="1" fill="#0F1240" />
<rect x="39" y="39" width="1" height="3" fill="#FFFFFF" />
<rect x="66" y="39" width="1" height="1" fill="#0F1240" />
<rect x="67" y="39" width="1" height="3" fill="#FFFFFF" />
<rect x="27" y="40" width="2" height="1" fill="#0F1240" />
<rect x="29" y="40" width="2" height="1" fill="#FFFFFF" />
<rect x="31" y="40" width="4" height="11" fill="#0F1240" />
<rect x="38" y="40" width="1" height="1" fill="#FFFFFF" />
<rect x="40" y="40" width="1" height="1" fill="#FFFFFF" />
<rect x="41" y="40" width="11" height="11" fill="#0F1240" />
<rect x="66" y="40" width="1" height="1" fill="#FFFFFF" />
<rect x="68" y="40" width="1" height="1" fill="#FFFFFF" />
<rect x="69" y="40" width="3" height="11" fill="#0F1240" />
<rect x="27" y="41" width="2" height="1" fill="#FFFFFF" />
<rect x="29" y="41" width="2" height="10" fill="#0F1240" />
<rect x="38" y="41" width="1" height="10" fill="#0F1240" />
<rect x="40" y="41" width="1" height="10" fill="#0F1240" />
<rect x="66" y="41" width="1" height="10" fill="#0F1240" />
<rect x="68" y="41" width="1" height="10" fill="#0F1240" />
<rect x="129" y="41" width="1" height="12" fill="#0F1240" />
<rect x="134" y="41" width="1" height="43" fill="#0F1240" />
<rect x="25" y="42" width="2" height="1" fill="#FFFFFF" />
<rect x="27" y="42" width="2" height="9" fill="#0F1240" />
<rect x="39" y="42" width="1" height="9" fill="#0F1240" />
<rect x="67" y="42" width="1" height="9" fill="#0F1240" />
<rect x="130" y="42" width="1" height="11" fill="#0F1240" />
<rect x="131" y="42" width="2" height="3" fill="#C65673" />
<rect x="133" y="42" width="1" height="41" fill="#0F1240" />
<rect x="24" y="43" width="1" height="1" fill="#FFFFFF" />
<rect x="25" y="43" width="2" height="8" fill="#0F1240" />
<rect x="84" y="43" width="1" height="8" fill="#0F1240" />
<rect x="85" y="43" width="1" height="1" fill="#FFFFFF" />
<rect x="95" y="43" width="1" height="1" fill="#FFFFFF" />
<rect x="96" y="43" width="1" height="8" fill="#0F1240" />
<rect x="23" y="44" width="2" height="7" fill="#0F1240" />
<rect x="85" y="44" width="1" height="7" fill="#0F1240" />
<rect x="86" y="44" width="1" height="1" fill="#FFFFFF" />
<rect x="94" y="44" width="1" height="1" fill="#FFFFFF" />
<rect x="95" y="44" width="1" height="7" fill="#0F1240" />
<rect x="147" y="44" width="1" height="11" fill="#0F1240" />
<rect x="148" y="44" width="6" height="2" fill="#C65673" />
<rect x="154" y="44" width="8" height="40" fill="#0F1240" />
<rect x="86" y="45" width="1" height="6" fill="#0F1240" />
<rect x="87" y="45" width="1" height="1" fill="#FFFFFF" />
<rect x="93" y="45" width="1" height="1" fill="#FFFFFF" />
<rect x="94" y="45" width="1" height="6" fill="#0F1240" />
<rect x="131" y="45" width="2" height="38" fill="#0F1240" />
<rect x="87" y="46" width="1" height="5" fill="#0F1240" />
<rect x="88" y="46" width="5" height="1" fill="#FFFFFF" />
<rect x="93" y="46" width="1" height="5" fill="#0F1240" />
<rect x="148" y="46" width="1" height="2" fill="#C65673" />
<rect x="149" y="46" width="1" height="1" fill="#FFFFFF" />
<rect x="150" y="46" width="1" height="2" fill="#C65673" />
<rect x="151" y="46" width="1" height="1" fill="#FFFFFF" />
<rect x="152" y="46" width="2" height="2" fill="#C65673" />
<rect x="88" y="47" width="5" height="4" fill="#0F1240" />
<rect x="149" y="47" width="1" height="1" fill="#C65673" />
<rect x="151" y="47" width="1" height="1" fill="#C65673" />
<rect x="148" y="48" width="6" height="7" fill="#0F1240" />
<rect x="8" y="51" width="2" height="9" fill="#0F1240" />
<rect x="10" y="51" width="97" height="2" fill="#78F1FF" />
<rect x="107" y="51" width="2" height="9" fill="#0F1240" />
<rect x="10" y="53" width="97" height="7" fill="#0F1240" />
<rect x="126" y="53" width="5" height="1" fill="#C65673" />
<rect x="126" y="54" width="1" height="3" fill="#C65673" />
<rect x="127" y="54" width="1" height="1" fill="#FFFFFF" />
<rect x="128" y="54" width="1" height="3" fill="#C65673" />
<rect x="129" y="54" width="1" height="1" fill="#FFFFFF" />
<rect x="130" y="54" width="1" height="3" fill="#C65673" />
<rect x="127" y="55" width="1" height="2" fill="#C65673" />
<rect x="129" y="55" width="1" height="2" fill="#C65673" />
<rect x="137" y="55" width="6" height="16" fill="#0F1240" />
<rect x="143" y="55" width="6" height="3" fill="#C65673" />
<rect x="149" y="55" width="5" height="20" fill="#0F1240" />
<rect x="126" y="57" width="5" height="26" fill="#0F1240" />
<rect x="143" y="58" width="1" height="2" fill="#C65673" />
<rect x="144" y="58" width="1" height="1" fill="#FFFFFF" />
<rect x="145" y="58" width="1" height="2" fill="#C65673" />
<rect x="146" y="58" width="1" height="1" fill="#FFFFFF" />
<rect x="147" y="58" width="2" height="2" fill="#C65673" />
<rect x="144" y="59" width="1" height="1" fill="#C65673" />
<rect x="146" y="59" width="1" height="1" fill="#C65673" />
<rect x="8" y="60" width="101" height="2" fill="#90FFB7" />
<rect x="143" y="60" width="6" height="11" fill="#0F1240" />
<rect x="8" y="62" width="2" height="42" fill="#90FFB7" />
<rect x="10" y="62" width="97" height="2" fill="#0F1240" />
<rect x="107" y="62" width="2" height="42" fill="#90FFB7" />
<rect x="10" y="64" width="2" height="38" fill="#0F1240" />
<rect x="12" y="64" width="2" height="2" fill="#90FFB7" />
<rect x="14" y="64" width="89" height="1" fill="#0F1240" />
<rect x="103" y="64" width="2" height="2" fill="#90FFB7" />
<rect x="105" y="64" width="2" height="38" fill="#0F1240" />
<rect x="14" y="65" width="48" height="5" fill="#0F1240" />
<rect x="62" y="65" width="3" height="4" fill="#90FFB7" />
<rect x="65" y="65" width="38" height="1" fill="#0F1240" />
<rect x="12" y="66" width="2" height="32" fill="#0F1240" />
<rect x="65" y="66" width="1" height="16" fill="#0F1240" />
<rect x="66" y="66" width="1" height="1" fill="#FFFFFF" />
<rect x="67" y="66" width="38" height="1" fill="#0F1240" />
<rect x="66" y="67" width="1" height="2" fill="#0F1240" />
<rect x="67" y="67" width="1" height="1" fill="#FFFFFF" />
<rect x="68" y="67" width="37" height="7" fill="#0F1240" />
<rect x="67" y="68" width="1" height="2" fill="#0F1240" />
<rect x="62" y="69" width="1" height="1" fill="#90FFB7" />
<rect x="63" y="69" width="1" height="14" fill="#0F1240" />
<rect x="64" y="69" width="1" height="2" fill="#90FFB7" />
<rect x="66" y="69" width="1" height="1" fill="#FFFFFF" />
<rect x="14" y="70" width="10" height="13" fill="#0F1240" />
<rect x="24" y="70" width="10" height="2" fill="#90FFB7" />
<rect x="34" y="70" width="29" height="2" fill="#0F1240" />
<rect x="66" y="70" width="1" height="12" fill="#0F1240" />
<rect x="67" y="70" width="1" height="1" fill="#FFFFFF" />
<rect x="64" y="71" width="1" height="12" fill="#0F1240" />
<rect x="67" y="71" width="1" height="3" fill="#0F1240" />
<rect x="137" y="71" width="3" height="1" fill="#0F1240" />
<rect x="140" y="71" width="6" height="2" fill="#FFFFFF" />
<rect x="146" y="71" width="3" height="1" fill="#0F1240" />
<rect x="24" y="72" width="21" height="5" fill="#0F1240" />
<rect x="45" y="72" width="14" height="2" fill="#90FFB7" />
<rect x="59" y="72" width="4" height="11" fill="#0F1240" />
<rect x="137" y="72" width="2" height="1" fill="#0F1240" />
<rect x="139" y="72" width="1" height="3" fill="#FFFFFF" />
<rect x="146" y="72" width="1" height="3" fill="#FFFFFF" />
<rect x="147" y="72" width="2" height="1" fill="#0F1240" />
<rect x="137" y="73" width="1" height="1" fill="#0F1240" />
<rect x="138" y="73" width="1" height="3" fill="#FFFFFF" />
<rect x="140" y="73" width="1" height="1" fill="#FFFFFF" />
<rect x="141" y="73" width="4" height="2" fill="#0F1240" />
<rect x="145" y="73" width="1" height="1" fill="#FFFFFF" />
<rect x="147" y="73" width="1" height="3" fill="#FFFFFF" />
<rect x="148" y="73" width="1" height="1" fill="#0F1240" />
<rect x="45" y="74" width="14" height="2" fill="#0F1240" />
<rect x="67" y="74" width="9" height="2" fill="#90FFB7" />
<rect x="76" y="74" width="29" height="4" fill="#0F1240" />
<rect x="137" y="74" width="1" height="3" fill="#FFFFFF" />
<rect x="140" y="74" width="1" height="28" fill="#0F1240" />
<rect x="145" y="74" width="1" height="3" fill="#0F1240" />
<rect x="148" y="74" width="1" height="3" fill="#FFFFFF" />
<rect x="135" y="75" width="1" height="27" fill="#0F1240" />
<rect x="136" y="75" width="1" height="2" fill="#FFFFFF" />
<rect x="139" y="75" width="1" height="27" fill="#0F1240" />
<rect x="141" y="75" width="4" height="7" fill="#C65673" />
<rect x="146" y="75" width="1" height="1" fill="#0F1240" />
<rect x="149" y="75" width="1" height="2" fill="#FFFFFF" />
<rect x="150" y="75" width="4" height="27" fill="#0F1240" />
<rect x="45" y="76" width="6" height="1" fill="#0F1240" />
<rect x="51" y="76" width="4" height="2" fill="#FFFFFF" />
<rect x="55" y="76" width="4" height="1" fill="#0F1240" />
<rect x="67" y="76" width="9" height="6" fill="#0F1240" />
<rect x="138" y="76" width="1" height="26" fill="#0F1240" />
<rect x="146" y="76" width="2" height="1" fill="#C65673" />
<rect x="24" y="77" width="3" height="6" fill="#0F1240" />
<rect x="27" y="77" width="2" height="14" fill="#FFFFFF" />
<rect x="29" y="77" width="20" height="1" fill="#0F1240" />
<rect x="49" y="77" width="2" height="2" fill="#FFFFFF" />
<rect x="55" y="77" width="2" height="2" fill="#FFFFFF" />
<rect x="57" y="77" width="2" height="6" fill="#0F1240" />
<rect x="136" y="77" width="2" height="25" fill="#0F1240" />
<rect x="145" y="77" width="2" height="1" fill="#C65673" />
<rect x="147" y="77" width="3" height="25" fill="#0F1240" />
<rect x="29" y="78" width="19" height="2" fill="#0F1240" />
<rect x="48" y="78" width="1" height="13" fill="#FFFFFF" />
<rect x="51" y="78" width="4" height="4" fill="#0F1240" />
<rect x="76" y="78" width="4" height="5" fill="#0F1240" />
<rect x="80" y="78" width="13" height="2" fill="#90FFB7" />
<rect x="93" y="78" width="12" height="4" fill="#0F1240" />
<rect x="145" y="78" width="1" height="1" fill="#C65673" />
<rect x="146" y="78" width="1" height="24" fill="#0F1240" />
<rect x="49" y="79" width="1" height="12" fill="#FFFFFF" />
<rect x="50" y="79" width="1" height="3" fill="#0F1240" />
<rect x="55" y="79" width="2" height="4" fill="#0F1240" />
<rect x="145" y="79" width="1" height="23" fill="#0F1240" />
<rect x="29" y="80" width="12" height="2" fill="#0F1240" />
<rect x="41" y="80" width="2" height="11" fill="#FFFFFF" />
<rect x="43" y="80" width="5" height="2" fill="#0F1240" />
<rect x="80" y="80" width="13" height="3" fill="#0F1240" />
<rect x="29" y="82" width="10" height="1" fill="#0F1240" />
<rect x="39" y="82" width="2" height="2" fill="#FFFFFF" />
<rect x="43" y="82" width="2" height="2" fill="#FFFFFF" />
<rect x="45" y="82" width="1" height="20" fill="#0F1240" />
<rect x="46" y="82" width="2" height="2" fill="#FFFFFF" />
<rect x="50" y="82" width="2" height="2" fill="#FFFFFF" />
<rect x="52" y="82" width="3" height="1" fill="#0F1240" />
<rect x="65" y="82" width="3" height="2" fill="#FFFFFF" />
<rect x="68" y="82" width="8" height="1" fill="#0F1240" />
<rect x="93" y="82" width="3" height="1" fill="#0F1240" />
<rect x="96" y="82" width="3" height="2" fill="#FFFFFF" />
<rect x="99" y="82" width="6" height="1" fill="#0F1240" />
<rect x="141" y="82" width="1" height="2" fill="#C65673" />
<rect x="142" y="82" width="2" height="20" fill="#0F1240" />
<rect x="144" y="82" width="1" height="2" fill="#C65673" />
<rect x="14" y="83" width="4" height="19" fill="#0F1240" />
<rect x="18" y="83" width="8" height="2" fill="#FFFFFF" />
<rect x="26" y="83" width="1" height="19" fill="#0F1240" />
<rect x="29" y="83" width="1" height="19" fill="#0F1240" />
<rect x="30" y="83" width="8" height="2" fill="#FFFFFF" />
<rect x="38" y="83" width="1" height="19" fill="#0F1240" />
<rect x="52" y="83" width="1" height="19" fill="#0F1240" />
<rect x="53" y="83" width="8" height="2" fill="#FFFFFF" />
<rect x="61" y="83" width="2" height="1" fill="#0F1240" />
<rect x="63" y="83" width="2" height="2" fill="#FFFFFF" />
<rect x="68" y="83" width="2" height="2" fill="#FFFFFF" />
<rect x="70" y="83" width="1" height="19" fill="#0F1240" />
<rect x="71" y="83" width="12" height="2" fill="#FFFFFF" />
<rect x="83" y="83" width="1" height="19" fill="#0F1240" />
<rect x="84" y="83" width="8" height="2" fill="#FFFFFF" />
<rect x="92" y="83" width="2" height="1" fill="#0F1240" />
<rect x="94" y="83" width="2" height="2" fill="#FFFFFF" />
<rect x="99" y="83" width="2" height="2" fill="#FFFFFF" />
<rect x="101" y="83" width="4" height="15" fill="#0F1240" />
<rect x="126" y="83" width="4" height="1" fill="#0F1240" />
<rect x="130" y="83" width="4" height="6" fill="#FFFFFF" />
<rect x="39" y="84" width="2" height="18" fill="#0F1240" />
<rect x="43" y="84" width="2" height="18" fill="#0F1240" />
<rect x="46" y="84" width="2" height="18" fill="#0F1240" />
<rect x="50" y="84" width="2" height="18" fill="#0F1240" />
<rect x="61" y="84" width="1" height="18" fill="#0F1240" />
<rect x="62" y="84" width="1" height="7" fill="#FFFFFF" />
<rect x="65" y="84" width="3" height="18" fill="#0F1240" />
<rect x="92" y="84" width="1" height="18" fill="#0F1240" />
<rect x="93" y="84" width="1" height="7" fill="#FFFFFF" />
<rect x="96" y="84" width="3" height="18" fill="#0F1240" />
<rect x="126" y="84" width="3" height="18" fill="#0F1240" />
<rect x="129" y="84" width="1" height="4" fill="#FFFFFF" />
<rect x="134" y="84" width="1" height="4" fill="#FFFFFF" />
<rect x="141" y="84" width="1" height="18" fill="#0F1240" />
<rect x="144" y="84" width="1" height="18" fill="#0F1240" />
<rect x="154" y="84" width="2" height="1" fill="#0F1240" />
<rect x="156" y="84" width="2" height="6" fill="#FFFFFF" />
<rect x="158" y="84" width="4" height="1" fill="#0F1240" />
<rect x="18" y="85" width="2" height="14" fill="#FFFFFF" />
<rect x="20" y="85" width="4" height="4" fill="#0F1240" />
<rect x="24" y="85" width="2" height="6" fill="#FFFFFF" />
<rect x="30" y="85" width="2" height="6" fill="#FFFFFF" />
<rect x="32" y="85" width="4" height="4" fill="#0F1240" />
<rect x="36" y="85" width="2" height="7" fill="#FFFFFF" />
<rect x="53" y="85" width="2" height="6" fill="#FFFFFF" />
<rect x="55" y="85" width="4" height="4" fill="#0F1240" />
<rect x="59" y="85" width="2" height="6" fill="#FFFFFF" />
<rect x="63" y="85" width="1" height="6" fill="#FFFFFF" />
<rect x="64" y="85" width="1" height="17" fill="#0F1240" />
<rect x="68" y="85" width="2" height="17" fill="#0F1240" />
<rect x="71" y="85" width="2" height="6" fill="#FFFFFF" />
<rect x="73" y="85" width="3" height="17" fill="#0F1240" />
<rect x="76" y="85" width="2" height="6" fill="#FFFFFF" />
<rect x="78" y="85" width="3" height="17" fill="#0F1240" />
<rect x="81" y="85" width="2" height="6" fill="#FFFFFF" />
<rect x="84" y="85" width="2" height="6" fill="#FFFFFF" />
<rect x="86" y="85" width="4" height="1" fill="#0F1240" />
<rect x="90" y="85" width="2" height="3" fill="#FFFFFF" />
<rect x="94" y="85" width="1" height="6" fill="#FFFFFF" />
<rect x="95" y="85" width="1" height="17" fill="#0F1240" />
<rect x="99" y="85" width="2" height="17" fill="#0F1240" />
<rect x="154" y="85" width="1" height="17" fill="#0F1240" />
<rect x="155" y="85" width="1" height="5" fill="#FFFFFF" />
<rect x="158" y="85" width="1" height="5" fill="#FFFFFF" />
<rect x="159" y="85" width="3" height="17" fill="#0F1240" />
<rect x="86" y="86" width="4" height="2" fill="#FFFFFF" />
<rect x="86" y="88" width="6" height="1" fill="#0F1240" />
<rect x="129" y="88" width="1" height="14" fill="#0F1240" />
<rect x="134" y="88" width="1" height="14" fill="#0F1240" />
<rect x="20" y="89" width="4" height="2" fill="#FFFFFF" />
<rect x="32" y="89" width="4" height="2" fill="#FFFFFF" />
<rect x="55" y="89" width="4" height="2" fill="#FFFFFF" />
<rect x="86" y="89" width="6" height="2" fill="#FFFFFF" />
<rect x="130" y="89" width="1" height="13" fill="#0F1240" />
<rect x="131" y="89" width="2" height="3" fill="#C65673" />
<rect x="133" y="89" width="1" height="13" fill="#0F1240" />
<rect x="155" y="90" width="1" height="12" fill="#0F1240" />
<rect x="156" y="90" width="2" height="3" fill="#C65673" />
<rect x="158" y="90" width="1" height="12" fill="#0F1240" />
<rect x="20" y="91" width="6" height="11" fill="#0F1240" />
<rect x="27" y="91" width="2" height="11" fill="#0F1240" />
<rect x="30" y="91" width="6" height="11" fill="#0F1240" />
<rect x="41" y="91" width="2" height="11" fill="#0F1240" />
<rect x="48" y="91" width="2" height="11" fill="#0F1240" />
<rect x="53" y="91" width="8" height="11" fill="#0F1240" />
<rect x="62" y="91" width="2" height="11" fill="#0F1240" />
<rect x="71" y="91" width="2" height="11" fill="#0F1240" />
<rect x="76" y="91" width="2" height="11" fill="#0F1240" />
<rect x="81" y="91" width="2" height="11" fill="#0F1240" />
<rect x="84" y="91" width="8" height="11" fill="#0F1240" />
<rect x="93" y="91" width="2" height="11" fill="#0F1240" />
<rect x="36" y="92" width="2" height="10" fill="#0F1240" />
<rect x="131" y="92" width="2" height="10" fill="#0F1240" />
<rect x="156" y="93" width="2" height="9" fill="#0F1240" />
<rect x="12" y="98" width="2" height="2" fill="#90FFB7" />
<rect x="101" y="98" width="2" height="4" fill="#0F1240" />
<rect x="103" y="98" width="2" height="2" fill="#90FFB7" />
<rect x="18" y="99" width="2" height="3" fill="#0F1240" />
<rect x="12" y="100" width="2" height="2" fill="#0F1240" />
<rect x="103" y="100" width="2" height="2" fill="#0F1240" />
<rect x="118" y="100" width="2" height="4" fill="#C65673" />
<rect x="166" y="100" width="2" height="4" fill="#C65673" />
<rect x="10" y="102" width="97" height="2" fill="#90FFB7" />
<rect x="116" y="102" width="2" height="6" fill="#0F1240" />
<rect x="120" y="102" width="46" height="2" fill="#C65673" />
<rect x="168" y="102" width="2" height="6" fill="#0F1240" />
<rect x="8" y="104" width="101" height="4" fill="#0F1240" />
<rect x="118" y="104" width="50" height="4" fill="#0F1240" />
</svg>