<?xml version="1.0" encoding="UTF-8" ?>
<svg version="1.1" width="250" height="142" xmlns="http://www.w3.org/2000/svg" shape-rendering="crispEdges">
<rect x="0" y="0" width="250" height="11" fill="#0F1240" />
<rect x="0" y="11" width="22" height="17" fill="#0F1240" />
<rect x="22" y="11" width="111" height="56" fill="#323E4D" />
<rect x="133" y="11" width="2" height="1" fill="#000000" />
<rect x="135" y="11" width="115" height="1" fill="#0F1240" />
<rect x="133" y="12" width="1" height="56" fill="#000000" />
<rect x="134" y="12" width="1" height="56" fill="#243345" />
<rect x="135" y="12" width="1" height="1" fill="#000000" />
<rect x="136" y="12" width="114" height="1" fill="#0F1240" />
<rect x="135" y="13" width="1" height="56" fill="#243345" />
<rect x="136" y="13" width="1" height="58" fill="#000000" />
<rect x="137" y="13" width="113" height="4" fill="#0F1240" />
<rect x="137" y="17" width="14" height="80" fill="#0F1240" />
<rect x="151" y="17" width="62" height="5" fill="#323E4D" />
<rect x="213" y="17" width="1" height="20" fill="#000000" />
<rect x="214" y="17" width="36" height="1" fill="#0F1240" />
<rect x="214" y="18" width="1" height="1" fill="#000000" />
<rect x="215" y="18" width="35" height="1" fill="#0F1240" />
<rect x="214" y="19" width="1" height="18" fill="#243345" />
<rect x="215" y="19" width="1" height="1" fill="#000000" />
<rect x="216" y="19" width="34" height="1" fill="#0F1240" />
<rect x="215" y="20" width="1" height="17" fill="#243345" />
<rect x="216" y="20" width="1" height="17" fill="#000000" />
<rect x="217" y="20" width="33" height="17" fill="#0F1240" />
<rect x="151" y="22" width="6" height="1" fill="#323E4D" />
<rect x="157" y="22" width="50" height="1" fill="#C65673" />
<rect x="207" y="22" width="6" height="1" fill="#323E4D" />
<rect x="151" y="23" width="5" height="101" fill="#323E4D" />
<rect x="156" y="23" width="2" height="1" fill="#C65673" />
<rect x="158" y="23" width="48" height="7" fill="#323E4D" />
<rect x="206" y="23" width="2" height="1" fill="#C65673" />
<rect x="208" y="23" width="5" height="83" fill="#323E4D" />
<rect x="156" y="24" width="1" height="94" fill="#C65673" />
<rect x="157" y="24" width="1" height="93" fill="#323E4D" />
<rect x="206" y="24" width="1" height="93" fill="#323E4D" />
<rect x="207" y="24" width="1" height="94" fill="#C65673" />
<rect x="0" y="28" width="22" height="4" fill="#323E4D" />
<rect x="158" y="30" width="5" height="88" fill="#323E4D" />
<rect x="163" y="30" width="9" height="2" fill="#FFFFFF" />
<rect x="172" y="30" width="2" height="24" fill="#323E4D" />
<rect x="174" y="30" width="12" height="2" fill="#FFFFFF" />
<rect x="186" y="30" width="4" height="31" fill="#323E4D" />
<rect x="190" y="30" width="11" height="2" fill="#FFFFFF" />
<rect x="201" y="30" width="5" height="88" fill="#323E4D" />
<rect x="0" y="32" width="7" height="1" fill="#000000" />
<rect x="7" y="32" width="3" height="10" fill="#323E4D" />
<rect x="10" y="32" width="10" height="1" fill="#000000" />
<rect x="20" y="32" width="2" height="10" fill="#323E4D" />
<rect x="163" y="32" width="2" height="9" fill="#FFFFFF" />
<rect x="165" y="32" width="7" height="22" fill="#323E4D" />
<rect x="174" y="32" width="2" height="16" fill="#FFFFFF" />
<rect x="176" y="32" width="8" height="7" fill="#323E4D" />
<rect x="184" y="32" width="2" height="9" fill="#FFFFFF" />
<rect x="190" y="32" width="2" height="9" fill="#FFFFFF" />
<rect x="192" y="32" width="7" height="7" fill="#323E4D" />
<rect x="199" y="32" width="2" height="16" fill="#FFFFFF" />
<rect x="0" y="33" width="7" height="5" fill="#FFFFFF" />
<rect x="10" y="33" width="1" height="5" fill="#000000" />
<rect x="11" y="33" width="9" height="5" fill="#FFFFFF" />
<rect x="213" y="37" width="37" height="4" fill="#323E4D" />
<rect x="0" y="38" width="7" height="4" fill="#323E4D" />
<rect x="10" y="38" width="10" height="4" fill="#323E4D" />
<rect x="176" y="39" width="8" height="2" fill="#FFFFFF" />
<rect x="192" y="39" width="7" height="2" fill="#FFFFFF" />
<rect x="163" y="41" width="2" height="78" fill="#323E4D" />
<rect x="176" y="41" width="10" height="31" fill="#323E4D" />
<rect x="190" y="41" width="9" height="5" fill="#323E4D" />
<rect x="213" y="41" width="1" height="11" fill="#323E4D" />
<rect x="214" y="41" width="9" height="1" fill="#000000" />
<rect x="223" y="41" width="4" height="11" fill="#323E4D" />
<rect x="227" y="41" width="9" height="1" fill="#000000" />
<rect x="236" y="41" width="3" height="11" fill="#323E4D" />
<rect x="239" y="41" width="9" height="1" fill="#000000" />
<rect x="248" y="41" width="2" height="11" fill="#323E4D" />
<rect x="0" y="42" width="22" height="1" fill="#000000" />
<rect x="214" y="42" width="1" height="5" fill="#000000" />
<rect x="215" y="42" width="8" height="5" fill="#FFFFFF" />
<rect x="227" y="42" width="1" height="5" fill="#000000" />
<rect x="228" y="42" width="8" height="5" fill="#FFFFFF" />
<rect x="239" y="42" width="1" height="5" fill="#000000" />
<rect x="240" y="42" width="8" height="5" fill="#FFFFFF" />
<rect x="0" y="43" width="22" height="2" fill="#243345" />
<rect x="0" y="45" width="22" height="1" fill="#000000" />
<rect x="0" y="46" width="22" height="51" fill="#0F1240" />
<rect x="190" y="46" width="9" height="2" fill="#FFFFFF" />
<rect x="214" y="47" width="9" height="5" fill="#323E4D" />
<rect x="227" y="47" width="9" height="5" fill="#323E4D" />
<rect x="239" y="47" width="9" height="5" fill="#323E4D" />
<rect x="174" y="48" width="2" height="44" fill="#323E4D" />
<rect x="190" y="48" width="11" height="13" fill="#323E4D" />
<rect x="213" y="52" width="37" height="1" fill="#000000" />
<rect x="213" y="53" width="2" height="1" fill="#000000" />
<rect x="215" y="53" width="35" height="1" fill="#243345" />
<rect x="165" y="54" width="4" height="1" fill="#323E4D" />
<rect x="169" y="54" width="4" height="5" fill="#FFFFFF" />
<rect x="173" y="54" width="1" height="1" fill="#323E4D" />
<rect x="213" y="54" width="1" height="38" fill="#000000" />
<rect x="214" y="54" width="1" height="38" fill="#243345" />
<rect x="215" y="54" width="1" height="1" fill="#000000" />
<rect x="216" y="54" width="34" height="1" fill="#243345" />
<rect x="165" y="55" width="3" height="15" fill="#323E4D" />
<rect x="168" y="55" width="1" height="3" fill="#FFFFFF" />
<rect x="173" y="55" width="1" height="3" fill="#FFFFFF" />
<rect x="215" y="55" width="1" height="37" fill="#243345" />
<rect x="216" y="55" width="34" height="1" fill="#000000" />
<rect x="216" y="56" width="1" height="36" fill="#000000" />
<rect x="217" y="56" width="33" height="36" fill="#0F1240" />
<rect x="168" y="58" width="1" height="12" fill="#323E4D" />
<rect x="173" y="58" width="1" height="43" fill="#323E4D" />
<rect x="169" y="59" width="1" height="11" fill="#323E4D" />
<rect x="170" y="59" width="2" height="3" fill="#C65673" />
<rect x="172" y="59" width="1" height="41" fill="#323E4D" />
<rect x="186" y="61" width="1" height="11" fill="#323E4D" />
<rect x="187" y="61" width="6" height="2" fill="#C65673" />
<rect x="193" y="61" width="8" height="40" fill="#323E4D" />
<rect x="170" y="62" width="2" height="38" fill="#323E4D" />
<rect x="187" y="63" width="1" height="2" fill="#C65673" />
<rect x="188" y="63" width="1" height="1" fill="#FFFFFF" />
<rect x="189" y="63" width="1" height="2" fill="#C65673" />
<rect x="190" y="63" width="1" height="1" fill="#FFFFFF" />
<rect x="191" y="63" width="2" height="2" fill="#C65673" />
<rect x="188" y="64" width="1" height="1" fill="#C65673" />
<rect x="190" y="64" width="1" height="1" fill="#C65673" />
<rect x="187" y="65" width="6" height="7" fill="#323E4D" />
<rect x="22" y="67" width="23" height="1" fill="#000000" />
<rect x="45" y="67" width="10" height="15" fill="#323E4D" />
<rect x="55" y="67" width="41" height="1" fill="#000000" />
<rect x="96" y="67" width="10" height="15" fill="#323E4D" />
<rect x="106" y="67" width="27" height="1" fill="#000000" />
<rect x="22" y="68" width="1" height="29" fill="#0F1240" />
<rect x="23" y="68" width="1" height="1" fill="#000000" />
<rect x="24" y="68" width="21" height="1" fill="#243345" />
<rect x="55" y="68" width="2" height="1" fill="#000000" />
<rect x="57" y="68" width="39" height="1" fill="#243345" />
<rect x="106" y="68" width="2" height="1" fill="#000000" />
<rect x="108" y="68" width="26" height="1" fill="#243345" />
<rect x="134" y="68" width="1" height="1" fill="#000000" />
<rect x="23" y="69" width="1" height="28" fill="#0F1240" />
<rect x="24" y="69" width="1" height="1" fill="#000000" />
<rect x="25" y="69" width="20" height="1" fill="#243345" />
<rect x="55" y="69" width="1" height="9" fill="#000000" />
<rect x="56" y="69" width="1" height="9" fill="#243345" />
<rect x="57" y="69" width="1" height="1" fill="#000000" />
<rect x="58" y="69" width="38" height="1" fill="#243345" />
<rect x="106" y="69" width="1" height="9" fill="#000000" />
<rect x="107" y="69" width="1" height="9" fill="#243345" />
<rect x="108" y="69" width="1" height="1" fill="#000000" />
<rect x="109" y="69" width="26" height="1" fill="#243345" />
<rect x="135" y="69" width="1" height="2" fill="#000000" />
<rect x="24" y="70" width="1" height="27" fill="#0F1240" />
<rect x="25" y="70" width="20" height="1" fill="#000000" />
<rect x="57" y="70" width="1" height="8" fill="#243345" />
<rect x="58" y="70" width="38" height="1" fill="#000000" />
<rect x="108" y="70" width="1" height="8" fill="#243345" />
<rect x="109" y="70" width="26" height="1" fill="#000000" />
<rect x="165" y="70" width="5" height="1" fill="#C65673" />
<rect x="25" y="71" width="20" height="7" fill="#0F1240" />
<rect x="58" y="71" width="1" height="7" fill="#000000" />
<rect x="59" y="71" width="37" height="7" fill="#0F1240" />
<rect x="109" y="71" width="1" height="7" fill="#000000" />
<rect x="110" y="71" width="27" height="7" fill="#0F1240" />
<rect x="165" y="71" width="1" height="3" fill="#C65673" />
<rect x="166" y="71" width="1" height="1" fill="#FFFFFF" />
<rect x="167" y="71" width="1" height="3" fill="#C65673" />
<rect x="168" y="71" width="1" height="1" fill="#FFFFFF" />
<rect x="169" y="71" width="1" height="3" fill="#C65673" />
<rect x="166" y="72" width="1" height="2" fill="#C65673" />
<rect x="168" y="72" width="1" height="2" fill="#C65673" />
<rect x="176" y="72" width="6" height="16" fill="#323E4D" />
<rect x="182" y="72" width="6" height="3" fill="#C65673" />
<rect x="188" y="72" width="5" height="20" fill="#323E4D" />
<rect x="165" y="74" width="5" height="26" fill="#323E4D" />
<rect x="182" y="75" width="1" height="2" fill="#C65673" />
<rect x="183" y="75" width="1" height="1" fill="#FFFFFF" />
<rect x="184" y="75" width="1" height="2" fill="#C65673" />
<rect x="185" y="75" width="1" height="1" fill="#FFFFFF" />
<rect x="186" y="75" width="2" height="2" fill="#C65673" />
<rect x="183" y="76" width="1" height="1" fill="#C65673" />
<rect x="185" y="76" width="1" height="1" fill="#C65673" />
<rect x="182" y="77" width="6" height="11" fill="#323E4D" />
<rect x="25" y="78" width="1" height="19" fill="#0F1240" />
<rect x="26" y="78" width="19" height="4" fill="#323E4D" />
<rect x="55" y="78" width="41" height="4" fill="#323E4D" />
<rect x="106" y="78" width="27" height="4" fill="#323E4D" />
<rect x="133" y="78" width="1" height="19" fill="#000000" />
<rect x="134" y="78" width="3" height="1" fill="#0F1240" />
<rect x="134" y="79" width="1" height="1" fill="#000000" />
<rect x="135" y="79" width="2" height="1" fill="#0F1240" />
<rect x="134" y="80" width="1" height="17" fill="#243345" />
<rect x="135" y="80" width="1" height="1" fill="#000000" />
<rect x="136" y="80" width="1" height="1" fill="#0F1240" />
<rect x="135" y="81" width="1" height="16" fill="#243345" />
<rect x="136" y="81" width="1" height="16" fill="#000000" />
<rect x="26" y="82" width="4" height="46" fill="#323E4D" />
<rect x="30" y="82" width="99" height="1" fill="#90FFB7" />
<rect x="129" y="82" width="4" height="46" fill="#323E4D" />
<rect x="30" y="83" width="1" height="41" fill="#90FFB7" />
<rect x="31" y="83" width="97" height="2" fill="#323E4D" />
<rect x="128" y="83" width="1" height="41" fill="#90FFB7" />
<rect x="31" y="85" width="2" height="38" fill="#323E4D" />
<rect x="33" y="85" width="1" height="1" fill="#90FFB7" />
<rect x="34" y="85" width="91" height="1" fill="#323E4D" />
<rect x="125" y="85" width="1" height="1" fill="#90FFB7" />
<rect x="126" y="85" width="2" height="38" fill="#323E4D" />
<rect x="33" y="86" width="50" height="5" fill="#323E4D" />
<rect x="83" y="86" width="3" height="4" fill="#90FFB7" />
<rect x="86" y="86" width="40" height="1" fill="#323E4D" />
<rect x="86" y="87" width="1" height="16" fill="#323E4D" />
<rect x="87" y="87" width="1" height="1" fill="#FFFFFF" />
<rect x="88" y="87" width="38" height="1" fill="#323E4D" />
<rect x="87" y="88" width="1" height="2" fill="#323E4D" />
<rect x="88" y="88" width="1" height="1" fill="#FFFFFF" />
<rect x="89" y="88" width="37" height="7" fill="#323E4D" />
<rect x="176" y="88" width="3" height="1" fill="#323E4D" />
<rect x="179" y="88" width="6" height="2" fill="#FFFFFF" />
<rect x="185" y="88" width="3" height="1" fill="#323E4D" />
<rect x="88" y="89" width="1" height="2" fill="#323E4D" />
<rect x="176" y="89" width="2" height="1" fill="#323E4D" />
<rect x="178" y="89" width="1" height="3" fill="#FFFFFF" />
<rect x="185" y="89" width="1" height="3" fill="#FFFFFF" />
<rect x="186" y="89" width="2" height="1" fill="#323E4D" />
<rect x="83" y="90" width="1" height="1" fill="#90FFB7" />
<rect x="84" y="90" width="1" height="14" fill="#323E4D" />
<rect x="85" y="90" width="1" height="2" fill="#90FFB7" />
<rect x="87" y="90" width="1" height="1" fill="#FFFFFF" />
<rect x="176" y="90" width="1" height="1" fill="#323E4D" />
<rect x="177" y="90" width="1" height="3" fill="#FFFFFF" />
<rect x="179" y="90" width="1" height="1" fill="#FFFFFF" />
<rect x="180" y="90" width="4" height="2" fill="#323E4D" />
<rect x="184" y="90" width="1" height="1" fill="#FFFFFF" />
<rect x="186" y="90" width="1" height="3" fill="#FFFFFF" />
<rect x="187" y="90" width="1" height="1" fill="#323E4D" />
<rect x="33" y="91" width="12" height="13" fill="#323E4D" />
<rect x="45" y="91" width="10" height="2" fill="#90FFB7" />
<rect x="55" y="91" width="29" height="2" fill="#323E4D" />
<rect x="87" y="91" width="1" height="12" fill="#323E4D" />
<rect x="88" y="91" width="1" height="1" fill="#FFFFFF" />
<rect x="176" y="91" width="1" height="3" fill="#FFFFFF" />
<rect x="179" y="91" width="1" height="28" fill="#323E4D" />
<rect x="184" y="91" width="1" height="3" fill="#323E4D" />
<rect x="187" y="91" width="1" height="3" fill="#FFFFFF" />
<rect x="85" y="92" width="1" height="12" fill="#323E4D" />
<rect x="88" y="92" width="1" height="3" fill="#323E4D" />
<rect x="174" y="92" width="1" height="27" fill="#323E4D" />
<rect x="175" y="92" width="1" height="2" fill="#FFFFFF" />
<rect x="178" y="92" width="1" height="27" fill="#323E4D" />
<rect x="180" y="92" width="4" height="7" fill="#C65673" />
<rect x="185" y="92" width="1" height="1" fill="#323E4D" />
<rect x="188" y="92" width="1" height="2" fill="#FFFFFF" />
<rect x="189" y="92" width="4" height="27" fill="#323E4D" />
<rect x="213" y="92" width="37" height="4" fill="#323E4D" />
<rect x="45" y="93" width="21" height="5" fill="#323E4D" />
<rect x="66" y="93" width="14" height="2" fill="#90FFB7" />
<rect x="80" y="93" width="4" height="11" fill="#323E4D" />
<rect x="177" y="93" width="1" height="26" fill="#323E4D" />
<rect x="185" y="93" width="2" height="1" fill="#C65673" />
<rect x="175" y="94" width="2" height="25" fill="#323E4D" />
<rect x="184" y="94" width="2" height="1" fill="#C65673" />
<rect x="186" y="94" width="3" height="25" fill="#323E4D" />
<rect x="66" y="95" width="14" height="2" fill="#323E4D" />
<rect x="88" y="95" width="9" height="2" fill="#90FFB7" />
<rect x="97" y="95" width="29" height="4" fill="#323E4D" />
<rect x="184" y="95" width="1" height="1" fill="#C65673" />
<rect x="185" y="95" width="1" height="24" fill="#323E4D" />
<rect x="184" y="96" width="1" height="23" fill="#323E4D" />
<rect x="213" y="96" width="1" height="10" fill="#323E4D" />
<rect x="214" y="96" width="9" height="1" fill="#000000" />
<rect x="223" y="96" width="4" height="10" fill="#323E4D" />
<rect x="227" y="96" width="9" height="1" fill="#000000" />
<rect x="236" y="96" width="3" height="10" fill="#323E4D" />
<rect x="239" y="96" width="9" height="1" fill="#000000" />
<rect x="248" y="96" width="2" height="10" fill="#323E4D" />
<rect x="0" y="97" width="26" height="4" fill="#323E4D" />
<rect x="66" y="97" width="6" height="1" fill="#323E4D" />
<rect x="72" y="97" width="4" height="2" fill="#FFFFFF" />
<rect x="76" y="97" width="4" height="1" fill="#323E4D" />
<rect x="88" y="97" width="9" height="6" fill="#323E4D" />
<rect x="133" y="97" width="18" height="4" fill="#323E4D" />
<rect x="214" y="97" width="1" height="5" fill="#000000" />
<rect x="215" y="97" width="8" height="5" fill="#FFFFFF" />
<rect x="227" y="97" width="1" height="5" fill="#000000" />
<rect x="228" y="97" width="8" height="5" fill="#FFFFFF" />
<rect x="239" y="97" width="1" height="5" fill="#000000" />
<rect x="240" y="97" width="8" height="5" fill="#FFFFFF" />
<rect x="45" y="98" width="3" height="6" fill="#323E4D" />
<rect x="48" y="98" width="2" height="14" fill="#FFFFFF" />
<rect x="50" y="98" width="20" height="1" fill="#323E4D" />
<rect x="70" y="98" width="2" height="2" fill="#FFFFFF" />
<rect x="76" y="98" width="2" height="2" fill="#FFFFFF" />
<rect x="78" y="98" width="2" height="6" fill="#323E4D" />
<rect x="50" y="99" width="19" height="2" fill="#323E4D" />
<rect x="69" y="99" width="1" height="13" fill="#FFFFFF" />
<rect x="72" y="99" width="4" height="4" fill="#323E4D" />
<rect x="97" y="99" width="4" height="5" fill="#323E4D" />
<rect x="101" y="99" width="13" height="2" fill="#90FFB7" />
<rect x="114" y="99" width="12" height="4" fill="#323E4D" />
<rect x="180" y="99" width="1" height="2" fill="#C65673" />
<rect x="181" y="99" width="2" height="20" fill="#323E4D" />
<rect x="183" y="99" width="1" height="2" fill="#C65673" />
<rect x="70" y="100" width="1" height="12" fill="#FFFFFF" />
<rect x="71" y="100" width="1" height="3" fill="#323E4D" />
<rect x="76" y="100" width="2" height="4" fill="#323E4D" />
<rect x="165" y="100" width="4" height="1" fill="#323E4D" />
<rect x="169" y="100" width="4" height="6" fill="#FFFFFF" />
<rect x="0" y="101" width="3" height="10" fill="#323E4D" />
<rect x="3" y="101" width="9" height="1" fill="#000000" />
<rect x="12" y="101" width="3" height="10" fill="#323E4D" />
<rect x="15" y="101" width="9" height="1" fill="#000000" />
<rect x="24" y="101" width="2" height="10" fill="#323E4D" />
<rect x="50" y="101" width="12" height="2" fill="#323E4D" />
<rect x="62" y="101" width="2" height="11" fill="#FFFFFF" />
<rect x="64" y="101" width="5" height="2" fill="#323E4D" />
<rect x="101" y="101" width="13" height="3" fill="#323E4D" />
<rect x="133" y="101" width="5" height="10" fill="#323E4D" />
<rect x="138" y="101" width="9" height="1" fill="#000000" />
<rect x="147" y="101" width="4" height="10" fill="#323E4D" />
<rect x="165" y="101" width="3" height="18" fill="#323E4D" />
<rect x="168" y="101" width="1" height="4" fill="#FFFFFF" />
<rect x="173" y="101" width="1" height="4" fill="#FFFFFF" />
<rect x="180" y="101" width="1" height="18" fill="#323E4D" />
<rect x="183" y="101" width="1" height="18" fill="#323E4D" />
<rect x="193" y="101" width="2" height="1" fill="#323E4D" />
<rect x="195" y="101" width="2" height="6" fill="#FFFFFF" />
<rect x="197" y="101" width="4" height="1" fill="#323E4D" />
<rect x="3" y="102" width="1" height="5" fill="#000000" />
<rect x="4" y="102" width="8" height="5" fill="#FFFFFF" />
<rect x="15" y="102" width="1" height="5" fill="#000000" />
<rect x="16" y="102" width="8" height="5" fill="#FFFFFF" />
<rect x="138" y="102" width="1" height="5" fill="#000000" />
<rect x="139" y="102" width="8" height="5" fill="#FFFFFF" />
<rect x="193" y="102" width="1" height="17" fill="#323E4D" />
<rect x="194" y="102" width="1" height="5" fill="#FFFFFF" />
<rect x="197" y="102" width="1" height="5" fill="#FFFFFF" />
<rect x="198" y="102" width="3" height="17" fill="#323E4D" />
<rect x="214" y="102" width="9" height="4" fill="#323E4D" />
<rect x="227" y="102" width="9" height="4" fill="#323E4D" />
<rect x="239" y="102" width="9" height="4" fill="#323E4D" />
<rect x="50" y="103" width="10" height="1" fill="#323E4D" />
<rect x="60" y="103" width="2" height="2" fill="#FFFFFF" />
<rect x="64" y="103" width="2" height="2" fill="#FFFFFF" />
<rect x="66" y="103" width="1" height="20" fill="#323E4D" />
<rect x="67" y="103" width="2" height="2" fill="#FFFFFF" />
<rect x="71" y="103" width="2" height="2" fill="#FFFFFF" />
<rect x="73" y="103" width="3" height="1" fill="#323E4D" />
<rect x="86" y="103" width="3" height="2" fill="#FFFFFF" />
<rect x="89" y="103" width="8" height="1" fill="#323E4D" />
<rect x="114" y="103" width="3" height="1" fill="#323E4D" />
<rect x="117" y="103" width="3" height="2" fill="#FFFFFF" />
<rect x="120" y="103" width="6" height="1" fill="#323E4D" />
<rect x="33" y="104" width="6" height="16" fill="#323E4D" />
<rect x="39" y="104" width="8" height="2" fill="#FFFFFF" />
<rect x="47" y="104" width="1" height="19" fill="#323E4D" />
<rect x="50" y="104" width="1" height="19" fill="#323E4D" />
<rect x="51" y="104" width="8" height="2" fill="#FFFFFF" />
<rect x="59" y="104" width="1" height="19" fill="#323E4D" />
<rect x="73" y="104" width="1" height="19" fill="#323E4D" />
<rect x="74" y="104" width="8" height="2" fill="#FFFFFF" />
<rect x="82" y="104" width="2" height="1" fill="#323E4D" />
<rect x="84" y="104" width="2" height="2" fill="#FFFFFF" />
<rect x="89" y="104" width="2" height="2" fill="#FFFFFF" />
<rect x="91" y="104" width="1" height="19" fill="#323E4D" />
<rect x="92" y="104" width="12" height="2" fill="#FFFFFF" />
<rect x="104" y="104" width="1" height="19" fill="#323E4D" />
<rect x="105" y="104" width="8" height="2" fill="#FFFFFF" />
<rect x="113" y="104" width="2" height="1" fill="#323E4D" />
<rect x="115" y="104" width="2" height="2" fill="#FFFFFF" />
<rect x="120" y="104" width="2" height="2" fill="#FFFFFF" />
<rect x="122" y="104" width="4" height="16" fill="#323E4D" />
<rect x="60" y="105" width="2" height="18" fill="#323E4D" />
<rect x="64" y="105" width="2" height="18" fill="#323E4D" />
<rect x="67" y="105" width="2" height="18" fill="#323E4D" />
<rect x="71" y="105" width="2" height="18" fill="#323E4D" />
<rect x="82" y="105" width="1" height="18" fill="#323E4D" />
<rect x="83" y="105" width="1" height="7" fill="#FFFFFF" />
<rect x="86" y="105" width="3" height="18" fill="#323E4D" />
<rect x="113" y="105" width="1" height="18" fill="#323E4D" />
<rect x="114" y="105" width="1" height="7" fill="#FFFFFF" />
<rect x="117" y="105" width="3" height="18" fill="#323E4D" />
<rect x="168" y="105" width="1" height="14" fill="#323E4D" />
<rect x="173" y="105" width="1" height="14" fill="#323E4D" />
<rect x="39" y="106" width="2" height="14" fill="#FFFFFF" />
<rect x="41" y="106" width="4" height="4" fill="#323E4D" />
<rect x="45" y="106" width="2" height="6" fill="#FFFFFF" />
<rect x="51" y="106" width="2" height="6" fill="#FFFFFF" />
<rect x="53" y="106" width="4" height="4" fill="#323E4D" />
<rect x="57" y="106" width="2" height="7" fill="#FFFFFF" />
<rect x="74" y="106" width="2" height="6" fill="#FFFFFF" />
<rect x="76" y="106" width="4" height="4" fill="#323E4D" />
<rect x="80" y="106" width="2" height="6" fill="#FFFFFF" />
<rect x="84" y="106" width="1" height="6" fill="#FFFFFF" />
<rect x="85" y="106" width="1" height="17" fill="#323E4D" />
<rect x="89" y="106" width="2" height="17" fill="#323E4D" />
<rect x="92" y="106" width="2" height="6" fill="#FFFFFF" />
<rect x="94" y="106" width="3" height="17" fill="#323E4D" />
<rect x="97" y="106" width="2" height="6" fill="#FFFFFF" />
<rect x="99" y="106" width="3" height="17" fill="#323E4D" />
<rect x="102" y="106" width="2" height="6" fill="#FFFFFF" />
<rect x="105" y="106" width="2" height="6" fill="#FFFFFF" />
<rect x="107" y="106" width="4" height="1" fill="#323E4D" />
<rect x="111" y="106" width="2" height="3" fill="#FFFFFF" />
<rect x="115" y="106" width="1" height="6" fill="#FFFFFF" />
<rect x="116" y="106" width="1" height="17" fill="#323E4D" />
<rect x="120" y="106" width="2" height="17" fill="#323E4D" />
<rect x="169" y="106" width="1" height="13" fill="#323E4D" />
<rect x="170" y="106" width="2" height="3" fill="#C65673" />
<rect x="172" y="106" width="1" height="13" fill="#323E4D" />
<rect x="208" y="106" width="4" height="18" fill="#323E4D" />
<rect x="212" y="106" width="38" height="1" fill="#000000" />
<rect x="3" y="107" width="9" height="4" fill="#323E4D" />
<rect x="15" y="107" width="9" height="4" fill="#323E4D" />
<rect x="107" y="107" width="4" height="2" fill="#FFFFFF" />
<rect x="138" y="107" width="9" height="4" fill="#323E4D" />
<rect x="194" y="107" width="1" height="12" fill="#323E4D" />
<rect x="195" y="107" width="2" height="3" fill="#C65673" />
<rect x="197" y="107" width="1" height="12" fill="#323E4D" />
<rect x="212" y="107" width="2" height="1" fill="#000000" />
<rect x="214" y="107" width="36" height="1" fill="#243345" />
<rect x="212" y="108" width="1" height="17" fill="#000000" />
<rect x="213" y="108" width="1" height="17" fill="#243345" />
<rect x="214" y="108" width="1" height="1" fill="#000000" />
<rect x="215" y="108" width="35" height="1" fill="#243345" />
<rect x="107" y="109" width="6" height="1" fill="#323E4D" />
<rect x="170" y="109" width="2" height="10" fill="#323E4D" />
<rect x="214" y="109" width="1" height="17" fill="#243345" />
<rect x="215" y="109" width="35" height="1" fill="#000000" />
<rect x="41" y="110" width="4" height="2" fill="#FFFFFF" />
<rect x="53" y="110" width="4" height="2" fill="#FFFFFF" />
<rect x="76" y="110" width="4" height="2" fill="#FFFFFF" />
<rect x="107" y="110" width="6" height="2" fill="#FFFFFF" />
<rect x="195" y="110" width="2" height="9" fill="#323E4D" />
<rect x="215" y="110" width="1" height="18" fill="#000000" />
<rect x="216" y="110" width="34" height="32" fill="#0F1240" />
<rect x="0" y="111" width="26" height="1" fill="#000000" />
<rect x="133" y="111" width="18" height="1" fill="#000000" />
<rect x="0" y="112" width="26" height="2" fill="#243345" />
<rect x="41" y="112" width="6" height="11" fill="#323E4D" />
<rect x="48" y="112" width="2" height="11" fill="#323E4D" />
<rect x="51" y="112" width="6" height="11" fill="#323E4D" />
<rect x="62" y="112" width="2" height="11" fill="#323E4D" />
<rect x="69" y="112" width="2" height="11" fill="#323E4D" />
<rect x="74" y="112" width="8" height="11" fill="#323E4D" />
<rect x="83" y="112" width="2" height="11" fill="#323E4D" />
<rect x="92" y="112" width="2" height="11" fill="#323E4D" />
<rect x="97" y="112" width="2" height="11" fill="#323E4D" />
<rect x="102" y="112" width="2" height="11" fill="#323E4D" />
<rect x="105" y="112" width="8" height="11" fill="#323E4D" />
<rect x="114" y="112" width="2" height="11" fill="#323E4D" />
<rect x="133" y="112" width="2" height="1" fill="#000000" />
<rect x="135" y="112" width="16" height="1" fill="#243345" />
<rect x="57" y="113" width="2" height="10" fill="#323E4D" />
<rect x="133" y="113" width="1" height="16" fill="#000000" />
<rect x="134" y="113" width="1" height="16" fill="#243345" />
<rect x="135" y="113" width="1" height="1" fill="#000000" />
<rect x="136" y="113" width="15" height="1" fill="#243345" />
<rect x="0" y="114" width="26" height="1" fill="#000000" />
<rect x="135" y="114" width="1" height="16" fill="#243345" />
<rect x="136" y="114" width="15" height="1" fill="#000000" />
<rect x="0" y="115" width="26" height="27" fill="#0F1240" />
<rect x="136" y="115" width="1" height="17" fill="#000000" />
<rect x="137" y="115" width="14" height="27" fill="#0F1240" />
<rect x="157" y="117" width="1" height="2" fill="#C65673" />
<rect x="206" y="117" width="1" height="2" fill="#C65673" />
<rect x="156" y="118" width="1" height="6" fill="#323E4D" />
<rect x="158" y="118" width="1" height="2" fill="#C65673" />
<rect x="159" y="118" width="4" height="1" fill="#323E4D" />
<rect x="201" y="118" width="4" height="1" fill="#323E4D" />
<rect x="205" y="118" width="1" height="2" fill="#C65673" />
<rect x="207" y="118" width="1" height="6" fill="#323E4D" />
<rect x="157" y="119" width="1" height="5" fill="#323E4D" />
<rect x="159" y="119" width="46" height="1" fill="#C65673" />
<rect x="206" y="119" width="1" height="5" fill="#323E4D" />
<rect x="33" y="120" width="1" height="1" fill="#90FFB7" />
<rect x="34" y="120" width="7" height="3" fill="#323E4D" />
<rect x="122" y="120" width="3" height="3" fill="#323E4D" />
<rect x="125" y="120" width="1" height="1" fill="#90FFB7" />
<rect x="158" y="120" width="48" height="4" fill="#323E4D" />
<rect x="33" y="121" width="1" height="2" fill="#323E4D" />
<rect x="125" y="121" width="1" height="2" fill="#323E4D" />
<rect x="31" y="123" width="97" height="1" fill="#90FFB7" />
<rect x="30" y="124" width="99" height="4" fill="#323E4D" />
<rect x="151" y="124" width="61" height="1" fill="#000000" />
<rect x="151" y="125" width="1" height="17" fill="#0F1240" />
<rect x="152" y="125" width="1" height="1" fill="#000000" />
<rect x="153" y="125" width="60" height="1" fill="#243345" />
<rect x="213" y="125" width="1" height="1" fill="#000000" />
<rect x="152" y="126" width="1" height="16" fill="#0F1240" />
<rect x="153" y="126" width="1" height="1" fill="#000000" />
<rect x="154" y="126" width="60" height="1" fill="#243345" />
<rect x="214" y="126" width="1" height="2" fill="#000000" />
<rect x="153" y="127" width="1" height="15" fill="#0F1240" />
<rect x="154" y="127" width="60" height="1" fill="#000000" />
<rect x="26" y="128" width="107" height="1" fill="#000000" />
<rect x="154" y="128" width="62" height="14" fill="#0F1240" />
<rect x="26" y="129" width="1" height="1" fill="#000000" />
<rect x="27" y="129" width="107" height="1" fill="#243345" />
<rect x="134" y="129" width="1" height="1" fill="#000000" />
<rect x="26" y="130" width="1" height="12" fill="#0F1240" />
<rect x="27" y="130" width="1" height="1" fill="#000000" />
<rect x="28" y="130" width="107" height="1" fill="#243345" />
<rect x="135" y="130" width="1" height="2" fill="#000000" />
<rect x="27" y="131" width="1" height="11" fill="#0F1240" />
<rect x="28" y="131" width="107" height="1" fill="#000000" />
<rect x="28" y="132" width="109" height="10" fill="#0F1240" />
</svg>