<?xml version="1.0" encoding="UTF-8" ?>
<svg version="1.1" width="93" height="17" xmlns="http://www.w3.org/2000/svg" shape-rendering="crispEdges">
<rect x="51" y="0" width="6" height="1" fill="#0F1240" />
<rect x="51" y="1" width="1" height="5" fill="#0F1240" />
<rect x="52" y="1" width="4" height="1" fill="#9EE0C7" />
<rect x="56" y="1" width="1" height="3" fill="#0F1240" />
<rect x="52" y="2" width="1" height="13" fill="#9EE0C7" />
<rect x="53" y="2" width="3" height="1" fill="#8FC9B3" />
<rect x="65" y="2" width="5" height="1" fill="#0F1240" />
<rect x="53" y="3" width="1" height="11" fill="#8FC9B3" />
<rect x="54" y="3" width="2" height="1" fill="#0F1240" />
<rect x="65" y="3" width="1" height="3" fill="#0F1240" />
<rect x="66" y="3" width="3" height="1" fill="#9EE0C7" />
<rect x="69" y="3" width="1" height="3" fill="#0F1240" />
<rect x="54" y="4" width="1" height="10" fill="#0F1240" />
<rect x="66" y="4" width="3" height="1" fill="#8FC9B3" />
<rect x="0" y="5" width="16" height="1" fill="#0F1240" />
<rect x="20" y="5" width="15" height="1" fill="#0F1240" />
<rect x="36" y="5" width="15" height="1" fill="#0F1240" />
<rect x="56" y="5" width="9" height="1" fill="#0F1240" />
<rect x="66" y="5" width="3" height="1" fill="#0F1240" />
<rect x="70" y="5" width="4" height="1" fill="#0F1240" />
<rect x="78" y="5" width="15" height="1" fill="#0F1240" />
<rect x="0" y="6" width="1" height="11" fill="#0F1240" />
<rect x="1" y="6" width="13" height="1" fill="#9EE0C7" />
<rect x="14" y="6" width="1" height="5" fill="#8FC9B3" />
<rect x="15" y="6" width="1" height="5" fill="#0F1240" />
<rect x="20" y="6" width="1" height="5" fill="#0F1240" />
<rect x="21" y="6" width="13" height="1" fill="#9EE0C7" />
<rect x="34" y="6" width="1" height="8" fill="#0F1240" />
<rect x="36" y="6" width="1" height="8" fill="#0F1240" />
<rect x="37" y="6" width="15" height="1" fill="#9EE0C7" />
<rect x="56" y="6" width="1" height="8" fill="#0F1240" />
<rect x="57" y="6" width="15" height="1" fill="#9EE0C7" />
<rect x="72" y="6" width="1" height="5" fill="#8FC9B3" />
<rect x="73" y="6" width="1" height="5" fill="#0F1240" />
<rect x="78" y="6" width="1" height="5" fill="#0F1240" />
<rect x="79" y="6" width="12" height="1" fill="#9EE0C7" />
<rect x="91" y="6" width="1" height="6" fill="#8FC9B3" />
<rect x="92" y="6" width="1" height="11" fill="#0F1240" />
<rect x="1" y="7" width="1" height="8" fill="#9EE0C7" />
<rect x="2" y="7" width="6" height="1" fill="#8FC9B3" />
<rect x="8" y="7" width="1" height="8" fill="#9EE0C7" />
<rect x="9" y="7" width="4" height="1" fill="#8FC9B3" />
<rect x="13" y="7" width="1" height="5" fill="#9EE0C7" />
<rect x="21" y="7" width="1" height="5" fill="#9EE0C7" />
<rect x="22" y="7" width="4" height="1" fill="#8FC9B3" />
<rect x="26" y="7" width="1" height="8" fill="#9EE0C7" />
<rect x="27" y="7" width="5" height="1" fill="#8FC9B3" />
<rect x="32" y="7" width="1" height="4" fill="#9EE0C7" />
<rect x="33" y="7" width="1" height="5" fill="#8FC9B3" />
<rect x="37" y="7" width="1" height="8" fill="#9EE0C7" />
<rect x="38" y="7" width="7" height="1" fill="#8FC9B3" />
<rect x="45" y="7" width="1" height="8" fill="#9EE0C7" />
<rect x="46" y="7" width="6" height="1" fill="#8FC9B3" />
<rect x="57" y="7" width="1" height="8" fill="#9EE0C7" />
<rect x="58" y="7" width="8" height="1" fill="#8FC9B3" />
<rect x="66" y="7" width="1" height="9" fill="#9EE0C7" />
<rect x="67" y="7" width="4" height="1" fill="#8FC9B3" />
<rect x="71" y="7" width="1" height="5" fill="#9EE0C7" />
<rect x="79" y="7" width="1" height="5" fill="#9EE0C7" />
<rect x="80" y="7" width="4" height="1" fill="#8FC9B3" />
<rect x="84" y="7" width="1" height="8" fill="#9EE0C7" />
<rect x="85" y="7" width="5" height="1" fill="#8FC9B3" />
<rect x="90" y="7" width="1" height="4" fill="#9EE0C7" />
<rect x="2" y="8" width="1" height="6" fill="#8FC9B3" />
<rect x="3" y="8" width="5" height="1" fill="#0F1240" />
<rect x="9" y="8" width="1" height="8" fill="#8FC9B3" />
<rect x="10" y="8" width="3" height="1" fill="#0F1240" />
<rect x="22" y="8" width="1" height="4" fill="#8FC9B3" />
<rect x="23" y="8" width="3" height="1" fill="#0F1240" />
<rect x="27" y="8" width="1" height="2" fill="#8FC9B3" />
<rect x="28" y="8" width="4" height="2" fill="#0F1240" />
<rect x="38" y="8" width="1" height="8" fill="#8FC9B3" />
<rect x="39" y="8" width="6" height="1" fill="#0F1240" />
<rect x="46" y="8" width="1" height="6" fill="#8FC9B3" />
<rect x="47" y="8" width="5" height="1" fill="#0F1240" />
<rect x="58" y="8" width="1" height="8" fill="#8FC9B3" />
<rect x="59" y="8" width="7" height="1" fill="#0F1240" />
<rect x="67" y="8" width="1" height="8" fill="#8FC9B3" />
<rect x="68" y="8" width="3" height="1" fill="#0F1240" />
<rect x="80" y="8" width="1" height="4" fill="#8FC9B3" />
<rect x="81" y="8" width="3" height="1" fill="#0F1240" />
<rect x="85" y="8" width="1" height="2" fill="#8FC9B3" />
<rect x="86" y="8" width="4" height="2" fill="#0F1240" />
<rect x="3" y="9" width="1" height="5" fill="#0F1240" />
<rect x="7" y="9" width="1" height="5" fill="#0F1240" />
<rect x="10" y="9" width="1" height="8" fill="#0F1240" />
<rect x="12" y="9" width="1" height="4" fill="#0F1240" />
<rect x="23" y="9" width="1" height="4" fill="#0F1240" />
<rect x="25" y="9" width="1" height="8" fill="#0F1240" />
<rect x="39" y="9" width="1" height="8" fill="#0F1240" />
<rect x="44" y="9" width="1" height="8" fill="#0F1240" />
<rect x="47" y="9" width="1" height="5" fill="#0F1240" />
<rect x="51" y="9" width="1" height="5" fill="#0F1240" />
<rect x="59" y="9" width="1" height="8" fill="#0F1240" />
<rect x="65" y="9" width="1" height="8" fill="#0F1240" />
<rect x="68" y="9" width="1" height="8" fill="#0F1240" />
<rect x="70" y="9" width="1" height="4" fill="#0F1240" />
<rect x="81" y="9" width="1" height="4" fill="#0F1240" />
<rect x="83" y="9" width="1" height="8" fill="#0F1240" />
<rect x="16" y="10" width="1" height="2" fill="#0F1240" />
<rect x="19" y="10" width="1" height="2" fill="#0F1240" />
<rect x="27" y="10" width="5" height="1" fill="#9EE0C7" />
<rect x="74" y="10" width="1" height="2" fill="#0F1240" />
<rect x="77" y="10" width="1" height="2" fill="#0F1240" />
<rect x="85" y="10" width="5" height="1" fill="#9EE0C7" />
<rect x="14" y="11" width="1" height="2" fill="#9EE0C7" />
<rect x="15" y="11" width="1" height="1" fill="#8FC9B3" />
<rect x="17" y="11" width="2" height="2" fill="#0F1240" />
<rect x="20" y="11" width="1" height="2" fill="#9EE0C7" />
<rect x="27" y="11" width="6" height="1" fill="#8FC9B3" />
<rect x="72" y="11" width="1" height="2" fill="#9EE0C7" />
<rect x="73" y="11" width="1" height="1" fill="#8FC9B3" />
<rect x="75" y="11" width="2" height="2" fill="#0F1240" />
<rect x="78" y="11" width="1" height="2" fill="#9EE0C7" />
<rect x="85" y="11" width="6" height="1" fill="#8FC9B3" />
<rect x="13" y="12" width="1" height="2" fill="#0F1240" />
<rect x="15" y="12" width="1" height="2" fill="#9EE0C7" />
<rect x="16" y="12" width="1" height="1" fill="#8FC9B3" />
<rect x="19" y="12" width="1" height="2" fill="#9EE0C7" />
<rect x="21" y="12" width="1" height="1" fill="#8FC9B3" />
<rect x="22" y="12" width="1" height="2" fill="#0F1240" />
<rect x="27" y="12" width="1" height="2" fill="#8FC9B3" />
<rect x="28" y="12" width="6" height="2" fill="#0F1240" />
<rect x="71" y="12" width="1" height="2" fill="#0F1240" />
<rect x="73" y="12" width="1" height="2" fill="#9EE0C7" />
<rect x="74" y="12" width="1" height="1" fill="#8FC9B3" />
<rect x="77" y="12" width="1" height="2" fill="#9EE0C7" />
<rect x="79" y="12" width="1" height="1" fill="#8FC9B3" />
<rect x="80" y="12" width="1" height="2" fill="#0F1240" />
<rect x="85" y="12" width="1" height="2" fill="#8FC9B3" />
<rect x="86" y="12" width="6" height="2" fill="#0F1240" />
<rect x="4" y="13" width="3" height="1" fill="#0F1240" />
<rect x="14" y="13" width="1" height="2" fill="#0F1240" />
<rect x="16" y="13" width="3" height="2" fill="#9EE0C7" />
<rect x="20" y="13" width="1" height="1" fill="#8FC9B3" />
<rect x="21" y="13" width="1" height="2" fill="#0F1240" />
<rect x="35" y="13" width="1" height="1" fill="#0F1240" />
<rect x="48" y="13" width="3" height="1" fill="#0F1240" />
<rect x="55" y="13" width="1" height="1" fill="#0F1240" />
<rect x="72" y="13" width="1" height="2" fill="#0F1240" />
<rect x="74" y="13" width="3" height="2" fill="#9EE0C7" />
<rect x="78" y="13" width="1" height="1" fill="#8FC9B3" />
<rect x="79" y="13" width="1" height="2" fill="#0F1240" />
<rect x="2" y="14" width="6" height="1" fill="#9EE0C7" />
<rect x="15" y="14" width="1" height="2" fill="#0F1240" />
<rect x="19" y="14" width="1" height="1" fill="#8FC9B3" />
<rect x="20" y="14" width="1" height="3" fill="#0F1240" />
<rect x="27" y="14" width="10" height="1" fill="#9EE0C7" />
<rect x="46" y="14" width="6" height="1" fill="#9EE0C7" />
<rect x="53" y="14" width="4" height="1" fill="#9EE0C7" />
<rect x="73" y="14" width="1" height="2" fill="#0F1240" />
<rect x="77" y="14" width="1" height="1" fill="#8FC9B3" />
<rect x="78" y="14" width="1" height="2" fill="#0F1240" />
<rect x="85" y="14" width="7" height="1" fill="#9EE0C7" />
<rect x="1" y="15" width="8" height="1" fill="#8FC9B3" />
<rect x="16" y="15" width="1" height="2" fill="#0F1240" />
<rect x="17" y="15" width="1" height="1" fill="#9EE0C7" />
<rect x="18" y="15" width="1" height="1" fill="#8FC9B3" />
<rect x="19" y="15" width="1" height="2" fill="#0F1240" />
<rect x="26" y="15" width="12" height="1" fill="#8FC9B3" />
<rect x="45" y="15" width="13" height="1" fill="#8FC9B3" />
<rect x="74" y="15" width="1" height="2" fill="#0F1240" />
<rect x="75" y="15" width="1" height="1" fill="#9EE0C7" />
<rect x="76" y="15" width="1" height="1" fill="#8FC9B3" />
<rect x="77" y="15" width="1" height="2" fill="#0F1240" />
<rect x="84" y="15" width="8" height="1" fill="#8FC9B3" />
<rect x="1" y="16" width="9" height="1" fill="#0F1240" />
<rect x="17" y="16" width="2" height="1" fill="#0F1240" />
<rect x="26" y="16" width="13" height="1" fill="#0F1240" />
<rect x="45" y="16" width="14" height="1" fill="#0F1240" />
<rect x="66" y="16" width="2" height="1" fill="#0F1240" />
<rect x="75" y="16" width="2" height="1" fill="#0F1240" />
<rect x="84" y="16" width="8" height="1" fill="#0F1240" />
</svg>