<?xml version="1.0" encoding="UTF-8" ?>
<svg version="1.1" width="121" height="29" xmlns="http://www.w3.org/2000/svg" shape-rendering="crispEdges">
<rect x="60" y="9" width="6" height="1" fill="#0F1240" />
<rect x="60" y="10" width="1" height="5" fill="#0F1240" />
<rect x="61" y="10" width="4" height="1" fill="#9EE0C7" />
<rect x="65" y="10" width="1" height="3" fill="#0F1240" />
<rect x="61" y="11" width="1" height="13" fill="#9EE0C7" />
<rect x="62" y="11" width="3" height="1" fill="#8FC9B3" />
<rect x="74" y="11" width="5" height="1" fill="#0F1240" />
<rect x="62" y="12" width="1" height="11" fill="#8FC9B3" />
<rect x="63" y="12" width="2" height="1" fill="#0F1240" />
<rect x="74" y="12" width="1" height="3" fill="#0F1240" />
<rect x="75" y="12" width="3" height="1" fill="#9EE0C7" />
<rect x="78" y="12" width="1" height="3" fill="#0F1240" />
<rect x="63" y="13" width="1" height="10" fill="#0F1240" />
<rect x="75" y="13" width="3" height="1" fill="#8FC9B3" />
<rect x="9" y="14" width="16" height="1" fill="#0F1240" />
<rect x="29" y="14" width="15" height="1" fill="#0F1240" />
<rect x="45" y="14" width="15" height="1" fill="#0F1240" />
<rect x="65" y="14" width="9" height="1" fill="#0F1240" />
<rect x="75" y="14" width="3" height="1" fill="#0F1240" />
<rect x="79" y="14" width="4" height="1" fill="#0F1240" />
<rect x="87" y="14" width="15" height="1" fill="#0F1240" />
<rect x="9" y="15" width="1" height="11" fill="#0F1240" />
<rect x="10" y="15" width="13" height="1" fill="#9EE0C7" />
<rect x="23" y="15" width="1" height="5" fill="#8FC9B3" />
<rect x="24" y="15" width="1" height="5" fill="#0F1240" />
<rect x="29" y="15" width="1" height="5" fill="#0F1240" />
<rect x="30" y="15" width="13" height="1" fill="#9EE0C7" />
<rect x="43" y="15" width="1" height="8" fill="#0F1240" />
<rect x="45" y="15" width="1" height="8" fill="#0F1240" />
<rect x="46" y="15" width="15" height="1" fill="#9EE0C7" />
<rect x="65" y="15" width="1" height="8" fill="#0F1240" />
<rect x="66" y="15" width="15" height="1" fill="#9EE0C7" />
<rect x="81" y="15" width="1" height="5" fill="#8FC9B3" />
<rect x="82" y="15" width="1" height="5" fill="#0F1240" />
<rect x="87" y="15" width="1" height="5" fill="#0F1240" />
<rect x="88" y="15" width="12" height="1" fill="#9EE0C7" />
<rect x="100" y="15" width="1" height="6" fill="#8FC9B3" />
<rect x="101" y="15" width="1" height="11" fill="#0F1240" />
<rect x="10" y="16" width="1" height="8" fill="#9EE0C7" />
<rect x="11" y="16" width="6" height="1" fill="#8FC9B3" />
<rect x="17" y="16" width="1" height="8" fill="#9EE0C7" />
<rect x="18" y="16" width="4" height="1" fill="#8FC9B3" />
<rect x="22" y="16" width="1" height="5" fill="#9EE0C7" />
<rect x="30" y="16" width="1" height="5" fill="#9EE0C7" />
<rect x="31" y="16" width="4" height="1" fill="#8FC9B3" />
<rect x="35" y="16" width="1" height="8" fill="#9EE0C7" />
<rect x="36" y="16" width="5" height="1" fill="#8FC9B3" />
<rect x="41" y="16" width="1" height="4" fill="#9EE0C7" />
<rect x="42" y="16" width="1" height="5" fill="#8FC9B3" />
<rect x="46" y="16" width="1" height="8" fill="#9EE0C7" />
<rect x="47" y="16" width="7" height="1" fill="#8FC9B3" />
<rect x="54" y="16" width="1" height="8" fill="#9EE0C7" />
<rect x="55" y="16" width="6" height="1" fill="#8FC9B3" />
<rect x="66" y="16" width="1" height="8" fill="#9EE0C7" />
<rect x="67" y="16" width="8" height="1" fill="#8FC9B3" />
<rect x="75" y="16" width="1" height="9" fill="#9EE0C7" />
<rect x="76" y="16" width="4" height="1" fill="#8FC9B3" />
<rect x="80" y="16" width="1" height="5" fill="#9EE0C7" />
<rect x="88" y="16" width="1" height="5" fill="#9EE0C7" />
<rect x="89" y="16" width="4" height="1" fill="#8FC9B3" />
<rect x="93" y="16" width="1" height="8" fill="#9EE0C7" />
<rect x="94" y="16" width="5" height="1" fill="#8FC9B3" />
<rect x="99" y="16" width="1" height="4" fill="#9EE0C7" />
<rect x="11" y="17" width="1" height="6" fill="#8FC9B3" />
<rect x="12" y="17" width="5" height="1" fill="#0F1240" />
<rect x="18" y="17" width="1" height="8" fill="#8FC9B3" />
<rect x="19" y="17" width="3" height="1" fill="#0F1240" />
<rect x="31" y="17" width="1" height="4" fill="#8FC9B3" />
<rect x="32" y="17" width="3" height="1" fill="#0F1240" />
<rect x="36" y="17" width="1" height="2" fill="#8FC9B3" />
<rect x="37" y="17" width="4" height="2" fill="#0F1240" />
<rect x="47" y="17" width="1" height="8" fill="#8FC9B3" />
<rect x="48" y="17" width="6" height="1" fill="#0F1240" />
<rect x="55" y="17" width="1" height="6" fill="#8FC9B3" />
<rect x="56" y="17" width="5" height="1" fill="#0F1240" />
<rect x="67" y="17" width="1" height="8" fill="#8FC9B3" />
<rect x="68" y="17" width="7" height="1" fill="#0F1240" />
<rect x="76" y="17" width="1" height="8" fill="#8FC9B3" />
<rect x="77" y="17" width="3" height="1" fill="#0F1240" />
<rect x="89" y="17" width="1" height="4" fill="#8FC9B3" />
<rect x="90" y="17" width="3" height="1" fill="#0F1240" />
<rect x="94" y="17" width="1" height="2" fill="#8FC9B3" />
<rect x="95" y="17" width="4" height="2" fill="#0F1240" />
<rect x="12" y="18" width="1" height="5" fill="#0F1240" />
<rect x="16" y="18" width="1" height="5" fill="#0F1240" />
<rect x="19" y="18" width="1" height="8" fill="#0F1240" />
<rect x="21" y="18" width="1" height="4" fill="#0F1240" />
<rect x="32" y="18" width="1" height="4" fill="#0F1240" />
<rect x="34" y="18" width="1" height="8" fill="#0F1240" />
<rect x="48" y="18" width="1" height="8" fill="#0F1240" />
<rect x="53" y="18" width="1" height="8" fill="#0F1240" />
<rect x="56" y="18" width="1" height="5" fill="#0F1240" />
<rect x="60" y="18" width="1" height="5" fill="#0F1240" />
<rect x="68" y="18" width="1" height="8" fill="#0F1240" />
<rect x="74" y="18" width="1" height="8" fill="#0F1240" />
<rect x="77" y="18" width="1" height="8" fill="#0F1240" />
<rect x="79" y="18" width="1" height="4" fill="#0F1240" />
<rect x="90" y="18" width="1" height="4" fill="#0F1240" />
<rect x="92" y="18" width="1" height="8" fill="#0F1240" />
<rect x="25" y="19" width="1" height="2" fill="#0F1240" />
<rect x="28" y="19" width="1" height="2" fill="#0F1240" />
<rect x="36" y="19" width="5" height="1" fill="#9EE0C7" />
<rect x="83" y="19" width="1" height="2" fill="#0F1240" />
<rect x="86" y="19" width="1" height="2" fill="#0F1240" />
<rect x="94" y="19" width="5" height="1" fill="#9EE0C7" />
<rect x="23" y="20" width="1" height="2" fill="#9EE0C7" />
<rect x="24" y="20" width="1" height="1" fill="#8FC9B3" />
<rect x="26" y="20" width="2" height="2" fill="#0F1240" />
<rect x="29" y="20" width="1" height="2" fill="#9EE0C7" />
<rect x="36" y="20" width="6" height="1" fill="#8FC9B3" />
<rect x="81" y="20" width="1" height="2" fill="#9EE0C7" />
<rect x="82" y="20" width="1" height="1" fill="#8FC9B3" />
<rect x="84" y="20" width="2" height="2" fill="#0F1240" />
<rect x="87" y="20" width="1" height="2" fill="#9EE0C7" />
<rect x="94" y="20" width="6" height="1" fill="#8FC9B3" />
<rect x="22" y="21" width="1" height="2" fill="#0F1240" />
<rect x="24" y="21" width="1" height="2" fill="#9EE0C7" />
<rect x="25" y="21" width="1" height="1" fill="#8FC9B3" />
<rect x="28" y="21" width="1" height="2" fill="#9EE0C7" />
<rect x="30" y="21" width="1" height="1" fill="#8FC9B3" />
<rect x="31" y="21" width="1" height="2" fill="#0F1240" />
<rect x="36" y="21" width="1" height="2" fill="#8FC9B3" />
<rect x="37" y="21" width="6" height="2" fill="#0F1240" />
<rect x="80" y="21" width="1" height="2" fill="#0F1240" />
<rect x="82" y="21" width="1" height="2" fill="#9EE0C7" />
<rect x="83" y="21" width="1" height="1" fill="#8FC9B3" />
<rect x="86" y="21" width="1" height="2" fill="#9EE0C7" />
<rect x="88" y="21" width="1" height="1" fill="#8FC9B3" />
<rect x="89" y="21" width="1" height="2" fill="#0F1240" />
<rect x="94" y="21" width="1" height="2" fill="#8FC9B3" />
<rect x="95" y="21" width="6" height="2" fill="#0F1240" />
<rect x="13" y="22" width="3" height="1" fill="#0F1240" />
<rect x="23" y="22" width="1" height="2" fill="#0F1240" />
<rect x="25" y="22" width="3" height="2" fill="#9EE0C7" />
<rect x="29" y="22" width="1" height="1" fill="#8FC9B3" />
<rect x="30" y="22" width="1" height="2" fill="#0F1240" />
<rect x="44" y="22" width="1" height="1" fill="#0F1240" />
<rect x="57" y="22" width="3" height="1" fill="#0F1240" />
<rect x="64" y="22" width="1" height="1" fill="#0F1240" />
<rect x="81" y="22" width="1" height="2" fill="#0F1240" />
<rect x="83" y="22" width="3" height="2" fill="#9EE0C7" />
<rect x="87" y="22" width="1" height="1" fill="#8FC9B3" />
<rect x="88" y="22" width="1" height="2" fill="#0F1240" />
<rect x="11" y="23" width="6" height="1" fill="#9EE0C7" />
<rect x="24" y="23" width="1" height="2" fill="#0F1240" />
<rect x="28" y="23" width="1" height="1" fill="#8FC9B3" />
<rect x="29" y="23" width="1" height="3" fill="#0F1240" />
<rect x="36" y="23" width="10" height="1" fill="#9EE0C7" />
<rect x="55" y="23" width="6" height="1" fill="#9EE0C7" />
<rect x="62" y="23" width="4" height="1" fill="#9EE0C7" />
<rect x="82" y="23" width="1" height="2" fill="#0F1240" />
<rect x="86" y="23" width="1" height="1" fill="#8FC9B3" />
<rect x="87" y="23" width="1" height="2" fill="#0F1240" />
<rect x="94" y="23" width="7" height="1" fill="#9EE0C7" />
<rect x="10" y="24" width="8" height="1" fill="#8FC9B3" />
<rect x="25" y="24" width="1" height="2" fill="#0F1240" />
<rect x="26" y="24" width="1" height="1" fill="#9EE0C7" />
<rect x="27" y="24" width="1" height="1" fill="#8FC9B3" />
<rect x="28" y="24" width="1" height="2" fill="#0F1240" />
<rect x="35" y="24" width="12" height="1" fill="#8FC9B3" />
<rect x="54" y="24" width="13" height="1" fill="#8FC9B3" />
<rect x="83" y="24" width="1" height="2" fill="#0F1240" />
<rect x="84" y="24" width="1" height="1" fill="#9EE0C7" />
<rect x="85" y="24" width="1" height="1" fill="#8FC9B3" />
<rect x="86" y="24" width="1" height="2" fill="#0F1240" />
<rect x="93" y="24" width="8" height="1" fill="#8FC9B3" />
<rect x="10" y="25" width="9" height="1" fill="#0F1240" />
<rect x="26" y="25" width="2" height="1" fill="#0F1240" />
<rect x="35" y="25" width="13" height="1" fill="#0F1240" />
<rect x="54" y="25" width="14" height="1" fill="#0F1240" />
<rect x="75" y="25" width="2" height="1" fill="#0F1240" />
<rect x="84" y="25" width="2" height="1" fill="#0F1240" />
<rect x="93" y="25" width="8" height="1" fill="#0F1240" />
</svg>