<?xml version="1.0" encoding="UTF-8" ?>
<svg version="1.1" width="99" height="46" xmlns="http://www.w3.org/2000/svg" shape-rendering="crispEdges">
<rect x="1" y="0" width="97" height="1" fill="#78F1FF" />
<rect x="0" y="1" width="1" height="44" fill="#78F1FF" />
<rect x="98" y="1" width="1" height="44" fill="#78F1FF" />
<rect x="5" y="6" width="10" height="2" fill="#FFFFFF" />
<rect x="17" y="6" width="3" height="17" fill="#FFFFFF" />
<rect x="26" y="6" width="3" height="17" fill="#FFFFFF" />
<rect x="31" y="6" width="12" height="2" fill="#FFFFFF" />
<rect x="45" y="6" width="12" height="2" fill="#FFFFFF" />
<rect x="59" y="6" width="11" height="2" fill="#FFFFFF" />
<rect x="72" y="6" width="9" height="2" fill="#FFFFFF" />
<rect x="83" y="6" width="11" height="2" fill="#FFFFFF" />
<rect x="5" y="8" width="3" height="8" fill="#FFFFFF" />
<rect x="31" y="8" width="3" height="15" fill="#FFFFFF" />
<rect x="40" y="8" width="3" height="15" fill="#FFFFFF" />
<rect x="45" y="8" width="3" height="15" fill="#FFFFFF" />
<rect x="54" y="8" width="3" height="15" fill="#FFFFFF" />
<rect x="63" y="8" width="3" height="15" fill="#FFFFFF" />
<rect x="72" y="8" width="3" height="15" fill="#FFFFFF" />
<rect x="83" y="8" width="3" height="15" fill="#FFFFFF" />
<rect x="91" y="8" width="3" height="7" fill="#FFFFFF" />
<rect x="86" y="13" width="5" height="2" fill="#FFFFFF" />
<rect x="8" y="14" width="7" height="2" fill="#FFFFFF" />
<rect x="20" y="14" width="6" height="2" fill="#FFFFFF" />
<rect x="75" y="14" width="6" height="2" fill="#FFFFFF" />
<rect x="86" y="15" width="2" height="3" fill="#FFFFFF" />
<rect x="12" y="16" width="3" height="7" fill="#FFFFFF" />
<rect x="88" y="16" width="1" height="4" fill="#FFFFFF" />
<rect x="89" y="17" width="1" height="4" fill="#FFFFFF" />
<rect x="87" y="18" width="1" height="1" fill="#FFFFFF" />
<rect x="90" y="18" width="1" height="4" fill="#FFFFFF" />
<rect x="91" y="19" width="1" height="4" fill="#FFFFFF" />
<rect x="92" y="20" width="1" height="3" fill="#FFFFFF" />
<rect x="5" y="21" width="7" height="2" fill="#FFFFFF" />
<rect x="34" y="21" width="6" height="2" fill="#FFFFFF" />
<rect x="48" y="21" width="6" height="2" fill="#FFFFFF" />
<rect x="75" y="21" width="6" height="2" fill="#FFFFFF" />
<rect x="93" y="21" width="1" height="2" fill="#FFFFFF" />
<rect x="79" y="28" width="5" height="1" fill="#FFFFFF" />
<rect x="78" y="29" width="1" height="1" fill="#FFFFFF" />
<rect x="84" y="29" width="1" height="1" fill="#FFFFFF" />
<rect x="77" y="30" width="1" height="1" fill="#FFFFFF" />
<rect x="85" y="30" width="1" height="1" fill="#FFFFFF" />
<rect x="14" y="31" width="2" height="1" fill="#FFFFFF" />
<rect x="76" y="31" width="1" height="1" fill="#FFFFFF" />
<rect x="86" y="31" width="1" height="1" fill="#FFFFFF" />
<rect x="14" y="32" width="1" height="6" fill="#FFFFFF" />
<rect x="16" y="32" width="2" height="1" fill="#FFFFFF" />
<rect x="75" y="32" width="1" height="5" fill="#FFFFFF" />
<rect x="87" y="32" width="1" height="5" fill="#FFFFFF" />
<rect x="18" y="33" width="2" height="1" fill="#FFFFFF" />
<rect x="30" y="33" width="1" height="3" fill="#FFFFFF" />
<rect x="58" y="33" width="1" height="3" fill="#FFFFFF" />
<rect x="20" y="34" width="2" height="1" fill="#FFFFFF" />
<rect x="29" y="34" width="1" height="1" fill="#FFFFFF" />
<rect x="31" y="34" width="1" height="1" fill="#FFFFFF" />
<rect x="57" y="34" width="1" height="1" fill="#FFFFFF" />
<rect x="59" y="34" width="1" height="1" fill="#FFFFFF" />
<rect x="18" y="35" width="2" height="1" fill="#FFFFFF" />
<rect x="16" y="36" width="2" height="1" fill="#FFFFFF" />
<rect x="15" y="37" width="1" height="1" fill="#FFFFFF" />
<rect x="76" y="37" width="1" height="1" fill="#FFFFFF" />
<rect x="86" y="37" width="1" height="1" fill="#FFFFFF" />
<rect x="77" y="38" width="1" height="1" fill="#FFFFFF" />
<rect x="85" y="38" width="1" height="1" fill="#FFFFFF" />
<rect x="78" y="39" width="1" height="1" fill="#FFFFFF" />
<rect x="84" y="39" width="1" height="1" fill="#FFFFFF" />
<rect x="79" y="40" width="5" height="1" fill="#FFFFFF" />
<rect x="1" y="45" width="97" height="1" fill="#78F1FF" />
</svg>